Fraternidad-ThinItalic.ufo
<glyph name="exclam" format="2">
  <advance width="564"/>
  <unicode hex="0021"/>
  <outline>
    <contour>
      <point x="269" y="360" type="line"/>
      <point x="420" y="1440" type="line"/>
      <point x="519" y="1440" type="line"/>
      <point x="328" y="360" type="line"/>
    </contour>
    <contour>
      <point x="242" y="-6" type="qcurve" smooth="yes"/>
      <point x="216" y="-6"/>
      <point x="180" y="28"/>
      <point x="180" y="54" type="qcurve" smooth="yes"/>
      <point x="180" y="71"/>
      <point x="193" y="103"/>
      <point x="216" y="127"/>
      <point x="247" y="141"/>
      <point x="265" y="141" type="qcurve" smooth="yes"/>
      <point x="291" y="141"/>
      <point x="327" y="107"/>
      <point x="327" y="80" type="qcurve" smooth="yes"/>
      <point x="327" y="63"/>
      <point x="313" y="32"/>
      <point x="290" y="8"/>
      <point x="259" y="-6"/>
    </contour>
  </outline>
</glyph>
<glyph name="numbersign" format="2">
  <advance width="1765"/>
  <unicode hex="0023"/>
  <outline>
    <contour>
      <point x="313" y="0" type="line"/>
      <point x="506" y="462" type="line"/>
      <point x="79" y="462" type="line"/>
      <point x="114" y="546" type="line"/>
      <point x="543" y="546" type="line"/>
      <point x="701" y="924" type="line"/>
      <point x="273" y="924" type="line"/>
      <point x="308" y="1008" type="line"/>
      <point x="738" y="1008" type="line"/>
      <point x="918" y="1440" type="line"/>
      <point x="1004" y="1440" type="line"/>
      <point x="822" y="1008" type="line"/>
      <point x="1208" y="1008" type="line"/>
      <point x="1388" y="1440" type="line"/>
      <point x="1474" y="1440" type="line"/>
      <point x="1292" y="1008" type="line"/>
      <point x="1720" y="1008" type="line"/>
      <point x="1685" y="924" type="line"/>
      <point x="1257" y="924" type="line"/>
      <point x="1098" y="546" type="line"/>
      <point x="1525" y="546" type="line"/>
      <point x="1490" y="462" type="line"/>
      <point x="1063" y="462" type="line"/>
      <point x="868" y="0" type="line"/>
      <point x="784" y="0" type="line"/>
      <point x="976" y="462" type="line"/>
      <point x="592" y="462" type="line"/>
      <point x="398" y="0" type="line"/>
    </contour>
    <contour>
      <point x="627" y="546" type="line"/>
      <point x="1013" y="546" type="line"/>
      <point x="1171" y="924" type="line"/>
      <point x="787" y="924" type="line"/>
    </contour>
  </outline>
</glyph>
<glyph name="dollar" format="2">
  <advance width="1091"/>
  <unicode hex="0024"/>
  <outline>
    <contour>
      <point x="375" y="-196" type="line"/>
      <point x="410" y="26" type="line"/>
      <point x="492" y="26" type="line"/>
      <point x="457" y="-196" type="line"/>
    </contour>
    <contour>
      <point x="630" y="1416" type="line"/>
      <point x="665" y="1640" type="line"/>
      <point x="748" y="1640" type="line"/>
      <point x="712" y="1416" type="line"/>
    </contour>
    <contour>
      <point x="467" y="-30" type="curve" smooth="yes"/>
      <point x="246" y="-30"/>
      <point x="58" y="76"/>
      <point x="18" y="290" type="curve" smooth="yes"/>
      <point x="14" y="312"/>
      <point x="11" y="334"/>
      <point x="10" y="358" type="curve"/>
      <point x="90" y="374" type="line"/>
      <point x="108" y="157"/>
      <point x="277" y="54"/>
      <point x="481" y="54" type="curve" smooth="yes"/>
      <point x="705" y="54"/>
      <point x="925" y="185"/>
      <point x="925" y="431" type="curve" smooth="yes"/>
      <point x="925" y="552"/>
      <point x="840" y="608"/>
      <point x="743" y="647" type="curve"/>
      <point x="724" y="654"/>
      <point x="704" y="661"/>
      <point x="684" y="668" type="curve" smooth="yes"/>
      <point x="403" y="762" type="line" smooth="yes"/>
      <point x="273" y="806"/>
      <point x="173" y="887"/>
      <point x="173" y="1033" type="curve"/>
      <point x="173" y="1033"/>
      <point x="173" y="1033"/>
      <point x="173" y="1033" type="curve"/>
      <point x="173" y="1303"/>
      <point x="424" y="1470"/>
      <point x="674" y="1470" type="curve" smooth="yes"/>
      <point x="920" y="1470"/>
      <point x="1099" y="1322"/>
      <point x="1099" y="1068" type="curve" smooth="yes"/>
      <point x="1099" y="1062"/>
      <point x="1099" y="1056"/>
      <point x="1099" y="1050" type="curve"/>
      <point x="1018" y="1034" type="line"/>
      <point x="1018" y="1039"/>
      <point x="1018" y="1043"/>
      <point x="1018" y="1048" type="curve" smooth="yes"/>
      <point x="1018" y="1261"/>
      <point x="868" y="1386"/>
      <point x="662" y="1386" type="curve" smooth="yes"/>
      <point x="491" y="1386"/>
      <point x="302" y="1286"/>
      <point x="266" y="1113" type="curve" smooth="yes"/>
      <point x="262" y="1093"/>
      <point x="260" y="1073"/>
      <point x="260" y="1052" type="curve" smooth="yes"/>
      <point x="260" y="923"/>
      <point x="376" y="861"/>
      <point x="483" y="826" type="curve" smooth="yes"/>
      <point x="572" y="797"/>
      <point x="661" y="767"/>
      <point x="750" y="738" type="curve" smooth="yes"/>
      <point x="874" y="697"/>
      <point x="972" y="637"/>
      <point x="998" y="516" type="curve" smooth="yes"/>
      <point x="1002" y="496"/>
      <point x="1004" y="474"/>
      <point x="1004" y="450" type="curve" smooth="yes"/>
      <point x="1004" y="144"/>
      <point x="754" y="-30"/>
    </contour>
  </outline>
</glyph>
<glyph name="percent" format="2">
  <advance width="1743"/>
  <unicode hex="0025"/>
  <outline>
    <contour>
      <point x="123" y="0" type="line"/>
      <point x="74" y="60" type="line"/>
      <point x="1649" y="1440" type="line"/>
      <point x="1698" y="1382" type="line"/>
    </contour>
    <contour>
      <point x="1233" y="-30" type="curve" smooth="yes"/>
      <point x="1051" y="-30"/>
      <point x="910" y="113"/>
      <point x="910" y="295" type="curve" smooth="yes"/>
      <point x="910" y="501"/>
      <point x="1088" y="690"/>
      <point x="1297" y="690" type="curve" smooth="yes"/>
      <point x="1482" y="690"/>
      <point x="1619" y="546"/>
      <point x="1619" y="363" type="curve" smooth="yes"/>
      <point x="1619" y="153"/>
      <point x="1444" y="-30"/>
    </contour>
    <contour>
      <point x="1241" y="54" type="curve" smooth="yes"/>
      <point x="1403" y="54"/>
      <point x="1536" y="198"/>
      <point x="1536" y="357" type="curve" smooth="yes"/>
      <point x="1536" y="495"/>
      <point x="1428" y="606"/>
      <point x="1290" y="606" type="curve" smooth="yes"/>
      <point x="1132" y="606"/>
      <point x="993" y="464"/>
      <point x="993" y="306" type="curve" smooth="yes"/>
      <point x="993" y="167"/>
      <point x="1101" y="54"/>
    </contour>
    <contour>
      <point x="475" y="750" type="curve" smooth="yes"/>
      <point x="293" y="750"/>
      <point x="152" y="892"/>
      <point x="152" y="1074" type="curve" smooth="yes"/>
      <point x="152" y="1281"/>
      <point x="329" y="1470"/>
      <point x="539" y="1470" type="curve" smooth="yes"/>
      <point x="721" y="1470"/>
      <point x="862" y="1327"/>
      <point x="862" y="1145" type="curve" smooth="yes"/>
      <point x="862" y="936"/>
      <point x="687" y="750"/>
    </contour>
    <contour>
      <point x="482" y="834" type="curve" smooth="yes"/>
      <point x="641" y="834"/>
      <point x="779" y="976"/>
      <point x="779" y="1134" type="curve" smooth="yes"/>
      <point x="779" y="1274"/>
      <point x="672" y="1386"/>
      <point x="531" y="1386" type="curve" smooth="yes"/>
      <point x="370" y="1386"/>
      <point x="236" y="1242"/>
      <point x="236" y="1083" type="curve" smooth="yes"/>
      <point x="236" y="946"/>
      <point x="344" y="834"/>
    </contour>
  </outline>
</glyph>
<glyph name="ampersand" format="2">
  <advance width="1241"/>
  <unicode hex="0026"/>
  <outline>
    <contour>
      <point x="467" y="-30" type="curve" smooth="yes"/>
      <point x="237" y="-30"/>
      <point x="44" y="68"/>
      <point x="44" y="323" type="curve" smooth="yes"/>
      <point x="44" y="339"/>
      <point x="45" y="354"/>
      <point x="47" y="370" type="curve" smooth="yes"/>
      <point x="60" y="494"/>
      <point x="125" y="616"/>
      <point x="223" y="694" type="curve" smooth="yes"/>
      <point x="266" y="728"/>
      <point x="318" y="753"/>
      <point x="369" y="772" type="curve"/>
      <point x="317" y="835"/>
      <point x="264" y="906"/>
      <point x="248" y="987" type="curve" smooth="yes"/>
      <point x="245" y="1003"/>
      <point x="243" y="1019"/>
      <point x="243" y="1036" type="curve" smooth="yes"/>
      <point x="243" y="1207"/>
      <point x="335" y="1343"/>
      <point x="470" y="1414" type="curve" smooth="yes"/>
      <point x="538" y="1450"/>
      <point x="616" y="1470"/>
      <point x="699" y="1470" type="curve" smooth="yes"/>
      <point x="852" y="1470"/>
      <point x="987" y="1419"/>
      <point x="1039" y="1264" type="curve"/>
      <point x="957" y="1228" type="line"/>
      <point x="925" y="1345"/>
      <point x="804" y="1386"/>
      <point x="694" y="1386" type="curve" smooth="yes"/>
      <point x="488" y="1386"/>
      <point x="333" y="1260"/>
      <point x="333" y="1047" type="curve" smooth="yes"/>
      <point x="333" y="939"/>
      <point x="412" y="863"/>
      <point x="479" y="788" type="curve" smooth="yes"/>
      <point x="911" y="306" type="line"/>
      <point x="924" y="346"/>
      <point x="933" y="384"/>
      <point x="939" y="426" type="curve" smooth="yes"/>
      <point x="951" y="504"/>
      <point x="963" y="582"/>
      <point x="975" y="660" type="curve"/>
      <point x="1063" y="660" type="line"/>
      <point x="1055" y="612"/>
      <point x="1047" y="544"/>
      <point x="1035" y="473" type="curve" smooth="yes"/>
      <point x="1020" y="386"/>
      <point x="1000" y="295"/>
      <point x="970" y="238" type="curve"/>
      <point x="1129" y="62" type="line"/>
      <point x="1062" y="0" type="line"/>
      <point x="919" y="162" type="line"/>
      <point x="898" y="132"/>
      <point x="872" y="108"/>
      <point x="843" y="86" type="curve" smooth="yes"/>
      <point x="722" y="-7"/>
      <point x="617" y="-30"/>
    </contour>
    <contour>
      <point x="477" y="54" type="curve" smooth="yes"/>
      <point x="641" y="54"/>
      <point x="764" y="93"/>
      <point x="869" y="226" type="curve"/>
      <point x="429" y="706" type="line"/>
      <point x="249" y="655"/>
      <point x="133" y="519"/>
      <point x="133" y="329" type="curve" smooth="yes"/>
      <point x="133" y="128"/>
      <point x="299" y="54"/>
    </contour>
  </outline>
</glyph>
<glyph name="parenleft" format="2">
  <advance width="762"/>
  <unicode hex="0028"/>
  <outline>
    <contour>
      <point x="468" y="-344" type="line"/>
      <point x="327" y="-142"/>
      <point x="249" y="105"/>
      <point x="235" y="350" type="curve"/>
      <point x="234" y="378"/>
      <point x="233" y="405"/>
      <point x="233" y="432" type="curve" smooth="yes"/>
      <point x="233" y="518"/>
      <point x="241" y="604"/>
      <point x="256" y="689" type="curve" smooth="yes"/>
      <point x="322" y="1056"/>
      <point x="523" y="1406"/>
      <point x="786" y="1664" type="curve"/>
      <point x="839" y="1612" type="line"/>
      <point x="539" y="1310"/>
      <point x="313" y="889"/>
      <point x="313" y="455" type="curve" smooth="yes"/>
      <point x="313" y="198"/>
      <point x="389" y="-79"/>
      <point x="538" y="-290" type="curve"/>
    </contour>
  </outline>
</glyph>
<glyph name="parenright" format="2">
  <advance width="762"/>
  <unicode hex="0029"/>
  <outline>
    <contour>
      <point x="198" y="-344" type="line"/>
      <point x="517" y="-30"/>
      <point x="744" y="425"/>
      <point x="744" y="878" type="curve" smooth="yes"/>
      <point x="744" y="1153"/>
      <point x="663" y="1439"/>
      <point x="503" y="1664" type="curve"/>
      <point x="434" y="1612" type="line"/>
      <point x="583" y="1392"/>
      <point x="664" y="1127"/>
      <point x="664" y="861" type="curve" smooth="yes"/>
      <point x="664" y="438"/>
      <point x="443" y="3"/>
      <point x="145" y="-290" type="curve"/>
    </contour>
  </outline>
</glyph>
<glyph name="asterisk" format="2">
  <advance width="801"/>
  <unicode hex="002A"/>
  <outline>
    <contour>
      <point x="244" y="814" type="line"/>
      <point x="186" y="864" type="line"/>
      <point x="380" y="1086" type="line"/>
      <point x="138" y="1170" type="line"/>
      <point x="176" y="1250" type="line"/>
      <point x="418" y="1166" type="line"/>
      <point x="461" y="1440" type="line"/>
      <point x="543" y="1440" type="line"/>
      <point x="500" y="1166" type="line"/>
      <point x="768" y="1250" type="line"/>
      <point x="781" y="1170" type="line"/>
      <point x="513" y="1086" type="line"/>
      <point x="635" y="864" type="line"/>
      <point x="560" y="814" type="line"/>
      <point x="438" y="1036" type="line"/>
    </contour>
  </outline>
</glyph>
<glyph name="plus" format="2">
  <advance width="1112"/>
  <unicode hex="002B"/>
  <outline>
    <contour>
      <point x="456" y="260" type="line"/>
      <point x="523" y="678" type="line"/>
      <point x="113" y="678" type="line"/>
      <point x="126" y="762" type="line"/>
      <point x="536" y="762" type="line"/>
      <point x="602" y="1180" type="line"/>
      <point x="684" y="1180" type="line"/>
      <point x="618" y="762" type="line"/>
      <point x="1028" y="762" type="line"/>
      <point x="1015" y="678" type="line"/>
      <point x="605" y="678" type="line"/>
      <point x="539" y="260" type="line"/>
    </contour>
  </outline>
</glyph>
<glyph name="period" format="2">
  <advance width="402"/>
  <unicode hex="002E"/>
  <outline>
    <contour>
      <point x="100" y="-6" type="curve" smooth="yes"/>
      <point x="66" y="-6"/>
      <point x="38" y="19"/>
      <point x="38" y="54" type="curve" smooth="yes"/>
      <point x="38" y="100"/>
      <point x="76" y="141"/>
      <point x="123" y="141" type="curve" smooth="yes"/>
      <point x="158" y="141"/>
      <point x="185" y="116"/>
      <point x="185" y="80" type="curve" smooth="yes"/>
      <point x="185" y="34"/>
      <point x="146" y="-6"/>
    </contour>
  </outline>
</glyph>
<glyph name="zero" format="2">
  <advance width="1104"/>
  <unicode hex="0030"/>
  <outline>
    <contour>
      <point x="560" y="-30" type="qcurve" smooth="yes"/>
      <point x="478" y="-30"/>
      <point x="334" y="32"/>
      <point x="229" y="138"/>
      <point x="168" y="283"/>
      <point x="168" y="365" type="qcurve" smooth="yes"/>
      <point x="168" y="376"/>
      <point x="168" y="397"/>
      <point x="170" y="408" type="qcurve"/>
      <point x="255" y="1032" type="line" smooth="yes"/>
      <point x="267" y="1120"/>
      <point x="349" y="1279"/>
      <point x="474" y="1399"/>
      <point x="633" y="1470"/>
      <point x="723" y="1470" type="qcurve" smooth="yes"/>
      <point x="806" y="1470"/>
      <point x="949" y="1408"/>
      <point x="1054" y="1302"/>
      <point x="1115" y="1158"/>
      <point x="1115" y="1075" type="qcurve" smooth="yes"/>
      <point x="1115" y="1064"/>
      <point x="1115" y="1043"/>
      <point x="1113" y="1032" type="qcurve"/>
      <point x="1028" y="408" type="line" smooth="yes"/>
      <point x="1016" y="320"/>
      <point x="934" y="161"/>
      <point x="810" y="41"/>
      <point x="650" y="-30"/>
    </contour>
    <contour>
      <point x="568" y="54" type="qcurve" smooth="yes"/>
      <point x="641" y="54"/>
      <point x="770" y="111"/>
      <point x="870" y="208"/>
      <point x="936" y="336"/>
      <point x="946" y="408" type="qcurve" smooth="yes"/>
      <point x="1031" y="1032" type="line"/>
      <point x="1033" y="1041"/>
      <point x="1033" y="1058"/>
      <point x="1033" y="1067" type="qcurve" smooth="yes"/>
      <point x="1033" y="1134"/>
      <point x="984" y="1250"/>
      <point x="898" y="1336"/>
      <point x="782" y="1386"/>
      <point x="715" y="1386" type="qcurve" smooth="yes"/>
      <point x="642" y="1386"/>
      <point x="513" y="1329"/>
      <point x="413" y="1232"/>
      <point x="347" y="1104"/>
      <point x="337" y="1032" type="qcurve" smooth="yes"/>
      <point x="252" y="408" type="line"/>
      <point x="250" y="399"/>
      <point x="250" y="382"/>
      <point x="250" y="373" type="qcurve" smooth="yes"/>
      <point x="250" y="306"/>
      <point x="299" y="190"/>
      <point x="385" y="104"/>
      <point x="501" y="54"/>
    </contour>
  </outline>
</glyph>
<glyph name="one" format="2">
  <advance width="665"/>
  <unicode hex="0031"/>
  <outline>
    <contour>
      <point x="272" y="0" type="line"/>
      <point x="485" y="1342" type="line"/>
      <point x="192" y="1180" type="line"/>
      <point x="208" y="1278" type="line"/>
      <point x="500" y="1440" type="line"/>
      <point x="583" y="1440" type="line"/>
      <point x="354" y="0" type="line"/>
    </contour>
  </outline>
</glyph>
<glyph name="two" format="2">
  <advance width="1063"/>
  <unicode hex="0032"/>
  <outline>
    <contour>
      <point x="-12" y="0" type="line"/>
      <point x="3" y="84" type="line"/>
      <point x="786" y="698" type="line" smooth="yes"/>
      <point x="905" y="791"/>
      <point x="960" y="910"/>
      <point x="960" y="1060" type="curve" smooth="yes"/>
      <point x="960" y="1243"/>
      <point x="818" y="1386"/>
      <point x="635" y="1386" type="curve" smooth="yes"/>
      <point x="459" y="1386"/>
      <point x="288" y="1258"/>
      <point x="242" y="1093" type="curve"/>
      <point x="165" y="1119" type="line"/>
      <point x="224" y="1318"/>
      <point x="431" y="1470"/>
      <point x="643" y="1470" type="curve" smooth="yes"/>
      <point x="869" y="1470"/>
      <point x="1042" y="1293"/>
      <point x="1042" y="1067" type="curve" smooth="yes"/>
      <point x="1042" y="893"/>
      <point x="973" y="744"/>
      <point x="835" y="636" type="curve" smooth="yes"/>
      <point x="51" y="24" type="line"/>
      <point x="37" y="84" type="line"/>
      <point x="889" y="84" type="line"/>
      <point x="876" y="0" type="line"/>
    </contour>
  </outline>
</glyph>
<glyph name="three" format="2">
  <advance width="1026"/>
  <unicode hex="0033"/>
  <outline>
    <contour>
      <point x="419" y="-30" type="curve" smooth="yes"/>
      <point x="225" y="-30"/>
      <point x="66" y="69"/>
      <point x="24" y="266" type="curve"/>
      <point x="102" y="294" type="line"/>
      <point x="142" y="142"/>
      <point x="255" y="54"/>
      <point x="413" y="54" type="curve" smooth="yes"/>
      <point x="670" y="54"/>
      <point x="803" y="242"/>
      <point x="803" y="485" type="curve" smooth="yes"/>
      <point x="803" y="681"/>
      <point x="686" y="808"/>
      <point x="487" y="808" type="curve" smooth="yes"/>
      <point x="427" y="808"/>
      <point x="356" y="789"/>
      <point x="301" y="764" type="curve"/>
      <point x="286" y="832" type="line"/>
      <point x="977" y="1418" type="line"/>
      <point x="993" y="1356" type="line"/>
      <point x="242" y="1356" type="line"/>
      <point x="255" y="1440" type="line"/>
      <point x="1037" y="1440" type="line"/>
      <point x="1024" y="1354" type="line"/>
      <point x="397" y="826" type="line"/>
      <point x="371" y="876" type="line"/>
      <point x="417" y="887"/>
      <point x="463" y="893"/>
      <point x="510" y="893" type="curve" smooth="yes"/>
      <point x="747" y="893"/>
      <point x="891" y="723"/>
      <point x="891" y="493" type="curve" smooth="yes"/>
      <point x="891" y="208"/>
      <point x="721" y="-30"/>
    </contour>
  </outline>
</glyph>
<glyph name="six" format="2">
  <advance width="1187"/>
  <unicode hex="0036"/>
  <outline>
    <contour>
      <point x="508" y="-30" type="qcurve" smooth="yes"/>
      <point x="376" y="-30"/>
      <point x="169" y="100"/>
      <point x="56" y="318"/>
      <point x="66" y="450" type="qcurve" smooth="yes"/>
      <point x="69" y="488"/>
      <point x="90" y="569"/>
      <point x="121" y="650"/>
      <point x="159" y="726"/>
      <point x="180" y="760" type="qcurve"/>
      <point x="674" y="1440" type="line"/>
      <point x="771" y="1440" type="line"/>
      <point x="177" y="626" type="line"/>
      <point x="135" y="664" type="line"/>
      <point x="207" y="781"/>
      <point x="445" y="930"/>
      <point x="584" y="930" type="qcurve" smooth="yes"/>
      <point x="716" y="930"/>
      <point x="924" y="800"/>
      <point x="1036" y="582"/>
      <point x="1026" y="450" type="qcurve" smooth="yes"/>
      <point x="1016" y="318"/>
      <point x="869" y="100"/>
      <point x="640" y="-30"/>
    </contour>
    <contour>
      <point x="515" y="54" type="qcurve" smooth="yes"/>
      <point x="625" y="54"/>
      <point x="813" y="160"/>
      <point x="933" y="340"/>
      <point x="942" y="450" type="qcurve" smooth="yes"/>
      <point x="951" y="560"/>
      <point x="859" y="740"/>
      <point x="687" y="846"/>
      <point x="577" y="846" type="qcurve" smooth="yes"/>
      <point x="467" y="846"/>
      <point x="279" y="740"/>
      <point x="159" y="560"/>
      <point x="150" y="450" type="qcurve" smooth="yes"/>
      <point x="141" y="340"/>
      <point x="233" y="160"/>
      <point x="405" y="54"/>
    </contour>
  </outline>
</glyph>
<glyph name="seven" format="2">
  <advance width="924"/>
  <unicode hex="0037"/>
  <outline>
    <contour>
      <point x="108" y="0" type="line"/>
      <point x="863" y="1354" type="line"/>
      <point x="185" y="1354" type="line"/>
      <point x="198" y="1440" type="line"/>
      <point x="965" y="1440" type="line"/>
      <point x="964" y="1434"/>
      <point x="951" y="1355"/>
      <point x="951" y="1354" type="curve"/>
      <point x="196" y="0" type="line"/>
    </contour>
  </outline>
</glyph>
<glyph name="eight" format="2">
  <advance width="1071"/>
  <unicode hex="0038"/>
  <outline>
    <contour>
      <point x="423" y="-24" type="qcurve"/>
      <point x="344" y="-23"/>
      <point x="210" y="28"/>
      <point x="112" y="124"/>
      <point x="57" y="259"/>
      <point x="58" y="343" type="qcurve"/>
      <point x="58" y="432"/>
      <point x="109" y="583"/>
      <point x="202" y="702"/>
      <point x="336" y="786"/>
      <point x="420" y="805" type="qcurve"/>
      <point x="414" y="760" type="line"/>
      <point x="361" y="775"/>
      <point x="283" y="833"/>
      <point x="233" y="911"/>
      <point x="209" y="1005"/>
      <point x="209" y="1058" type="qcurve"/>
      <point x="210" y="1156"/>
      <point x="284" y="1307"/>
      <point x="410" y="1409"/>
      <point x="578" y="1462"/>
      <point x="673" y="1461" type="qcurve"/>
      <point x="743" y="1461"/>
      <point x="868" y="1416"/>
      <point x="961" y="1332"/>
      <point x="1015" y="1211"/>
      <point x="1014" y="1135" type="qcurve" smooth="yes"/>
      <point x="1013" y="1062"/>
      <point x="970" y="927"/>
      <point x="889" y="820"/>
      <point x="772" y="748"/>
      <point x="698" y="739" type="qcurve"/>
      <point x="697" y="783" type="line"/>
      <point x="812" y="734"/>
      <point x="932" y="562"/>
      <point x="931" y="439" type="qcurve" smooth="yes"/>
      <point x="930" y="330"/>
      <point x="852" y="158"/>
      <point x="716" y="39"/>
      <point x="531" y="-24"/>
    </contour>
    <contour>
      <point x="437" y="60" type="qcurve" smooth="yes"/>
      <point x="528" y="60"/>
      <point x="676" y="111"/>
      <point x="782" y="209"/>
      <point x="841" y="350"/>
      <point x="842" y="441" type="qcurve" smooth="yes"/>
      <point x="843" y="509"/>
      <point x="799" y="615"/>
      <point x="720" y="687"/>
      <point x="612" y="725"/>
      <point x="549" y="725" type="qcurve" smooth="yes"/>
      <point x="457" y="725"/>
      <point x="309" y="675"/>
      <point x="204" y="578"/>
      <point x="146" y="437"/>
      <point x="145" y="345" type="qcurve" smooth="yes"/>
      <point x="144" y="278"/>
      <point x="189" y="172"/>
      <point x="267" y="99"/>
      <point x="374" y="60"/>
    </contour>
    <contour>
      <point x="563" y="808" type="qcurve" smooth="yes"/>
      <point x="641" y="808"/>
      <point x="774" y="847"/>
      <point x="870" y="927"/>
      <point x="924" y="1047"/>
      <point x="925" y="1128" type="qcurve" smooth="yes"/>
      <point x="926" y="1188"/>
      <point x="883" y="1280"/>
      <point x="810" y="1341"/>
      <point x="712" y="1372"/>
      <point x="658" y="1372" type="qcurve" smooth="yes"/>
      <point x="580" y="1372"/>
      <point x="448" y="1334"/>
      <point x="352" y="1256"/>
      <point x="298" y="1136"/>
      <point x="297" y="1055" type="qcurve"/>
      <point x="297" y="994"/>
      <point x="339" y="902"/>
      <point x="411" y="840"/>
      <point x="508" y="808"/>
    </contour>
  </outline>
</glyph>
<glyph name="nine" format="2">
  <advance width="1187"/>
  <unicode hex="0039"/>
  <outline>
    <contour>
      <point x="679" y="1470" type="qcurve" smooth="yes"/>
      <point x="811" y="1470"/>
      <point x="1018" y="1340"/>
      <point x="1131" y="1122"/>
      <point x="1121" y="990" type="qcurve" smooth="yes"/>
      <point x="1113" y="888"/>
      <point x="1062" y="770"/>
      <point x="1007" y="680" type="curve"/>
      <point x="513" y="0" type="line"/>
      <point x="422" y="0" type="line"/>
      <point x="1016" y="814" type="line"/>
      <point x="1052" y="776" type="line"/>
      <point x="980" y="659"/>
      <point x="742" y="510"/>
      <point x="603" y="510" type="qcurve" smooth="yes"/>
      <point x="471" y="510"/>
      <point x="263" y="640"/>
      <point x="151" y="858"/>
      <point x="161" y="990" type="qcurve" smooth="yes"/>
      <point x="171" y="1122"/>
      <point x="318" y="1340"/>
      <point x="547" y="1470"/>
    </contour>
    <contour>
      <point x="672" y="1386" type="qcurve" smooth="yes"/>
      <point x="562" y="1386"/>
      <point x="374" y="1280"/>
      <point x="254" y="1100"/>
      <point x="245" y="990" type="qcurve" smooth="yes"/>
      <point x="236" y="880"/>
      <point x="328" y="700"/>
      <point x="500" y="594"/>
      <point x="610" y="594" type="qcurve" smooth="yes"/>
      <point x="720" y="594"/>
      <point x="908" y="700"/>
      <point x="1028" y="880"/>
      <point x="1037" y="990" type="qcurve" smooth="yes"/>
      <point x="1046" y="1100"/>
      <point x="954" y="1280"/>
      <point x="782" y="1386"/>
    </contour>
  </outline>
</glyph>
<glyph name="equal" format="2">
  <advance width="1421"/>
  <unicode hex="003D"/>
  <outline>
    <contour>
      <point x="244" y="836" type="line"/>
      <point x="257" y="920" type="line"/>
      <point x="1257" y="920" type="line"/>
      <point x="1243" y="836" type="line"/>
    </contour>
    <contour>
      <point x="194" y="520" type="line"/>
      <point x="207" y="604" type="line"/>
      <point x="1206" y="604" type="line"/>
      <point x="1193" y="520" type="line"/>
    </contour>
  </outline>
</glyph>
<glyph name="greater" format="2">
  <advance width="1198"/>
  <unicode hex="003E"/>
  <outline>
    <contour>
      <point x="464" y="168" type="line"/>
      <point x="987" y="630" type="line"/>
      <point x="605" y="1092" type="line"/>
      <point x="542" y="1038" type="line"/>
      <point x="879" y="630" type="line"/>
      <point x="418" y="222" type="line"/>
    </contour>
  </outline>
</glyph>
<glyph name="question" format="2">
  <advance width="1124"/>
  <unicode hex="003F"/>
  <outline>
    <contour>
      <point x="700" y="1470" type="curve" smooth="yes"/>
      <point x="946" y="1470"/>
      <point x="1138" y="1321"/>
      <point x="1138" y="1065" type="curve" smooth="yes"/>
      <point x="1138" y="855"/>
      <point x="1031" y="691"/>
      <point x="827" y="632" type="curve" smooth="yes"/>
      <point x="746" y="608"/>
      <point x="665" y="605"/>
      <point x="582" y="605" type="curve"/>
      <point x="590" y="689" type="line"/>
      <point x="594" y="689"/>
      <point x="627" y="689"/>
      <point x="631" y="689" type="curve" smooth="yes"/>
      <point x="874" y="689"/>
      <point x="1054" y="795"/>
      <point x="1054" y="1059" type="curve" smooth="yes"/>
      <point x="1054" y="1271"/>
      <point x="892" y="1386"/>
      <point x="693" y="1386" type="curve" smooth="yes"/>
      <point x="452" y="1386"/>
      <point x="320" y="1288"/>
      <point x="233" y="1066" type="curve"/>
      <point x="218" y="1069"/>
      <point x="171" y="1079"/>
      <point x="156" y="1082" type="curve"/>
      <point x="244" y="1342"/>
      <point x="427" y="1470"/>
    </contour>
    <contour>
      <point x="596" y="360" type="line"/>
      <point x="513" y="360" type="line"/>
      <point x="566" y="689" type="line"/>
      <point x="648" y="689" type="line"/>
    </contour>
    <contour>
      <point x="498" y="-6" type="curve" smooth="yes"/>
      <point x="463" y="-6"/>
      <point x="436" y="19"/>
      <point x="436" y="54" type="curve" smooth="yes"/>
      <point x="436" y="100"/>
      <point x="474" y="141"/>
      <point x="521" y="141" type="curve" smooth="yes"/>
      <point x="556" y="141"/>
      <point x="583" y="116"/>
      <point x="583" y="80" type="curve" smooth="yes"/>
      <point x="583" y="34"/>
      <point x="544" y="-6"/>
    </contour>
  </outline>
</glyph>
<glyph name="at" format="2">
  <advance width="1726"/>
  <unicode hex="0040"/>
  <outline>
    <contour>
      <point x="737" y="-210" type="curve" smooth="yes"/>
      <point x="376" y="-210"/>
      <point x="115" y="48"/>
      <point x="115" y="410" type="curve" smooth="yes"/>
      <point x="115" y="564"/>
      <point x="155" y="709"/>
      <point x="225" y="836" type="curve" smooth="yes"/>
      <point x="375" y="1105"/>
      <point x="660" y="1290"/>
      <point x="988" y="1290" type="curve" smooth="yes"/>
      <point x="1334" y="1290"/>
      <point x="1592" y="1095"/>
      <point x="1592" y="732" type="curve" smooth="yes"/>
      <point x="1592" y="578"/>
      <point x="1540" y="383"/>
      <point x="1419" y="278" type="curve" smooth="yes"/>
      <point x="1366" y="231"/>
      <point x="1299" y="202"/>
      <point x="1217" y="202" type="curve" smooth="yes"/>
      <point x="1103" y="202"/>
      <point x="1012" y="254"/>
      <point x="1002" y="376" type="curve"/>
      <point x="1038" y="368" type="line"/>
      <point x="985" y="281"/>
      <point x="881" y="238"/>
      <point x="782" y="238" type="curve" smooth="yes"/>
      <point x="649" y="238"/>
      <point x="558" y="319"/>
      <point x="558" y="455" type="curve" smooth="yes"/>
      <point x="558" y="635"/>
      <point x="685" y="784"/>
      <point x="871" y="784" type="curve" smooth="yes"/>
      <point x="962" y="784"/>
      <point x="1053" y="750"/>
      <point x="1084" y="658" type="curve"/>
      <point x="1041" y="620" type="line"/>
      <point x="1062" y="756" type="line"/>
      <point x="1139" y="756" type="line"/>
      <point x="1093" y="466" type="line" smooth="yes"/>
      <point x="1091" y="453"/>
      <point x="1090" y="440"/>
      <point x="1090" y="427" type="curve" smooth="yes"/>
      <point x="1090" y="346"/>
      <point x="1126" y="304"/>
      <point x="1189" y="291" type="curve" smooth="yes"/>
      <point x="1205" y="288"/>
      <point x="1222" y="286"/>
      <point x="1241" y="286" type="curve" smooth="yes"/>
      <point x="1278" y="286"/>
      <point x="1312" y="297"/>
      <point x="1344" y="317" type="curve" smooth="yes"/>
      <point x="1468" y="395"/>
      <point x="1504" y="581"/>
      <point x="1504" y="717" type="curve" smooth="yes"/>
      <point x="1504" y="1037"/>
      <point x="1280" y="1206"/>
      <point x="975" y="1206" type="curve" smooth="yes"/>
      <point x="877" y="1206"/>
      <point x="778" y="1189"/>
      <point x="688" y="1150" type="curve" smooth="yes"/>
      <point x="406" y="1030"/>
      <point x="205" y="736"/>
      <point x="205" y="428" type="curve" smooth="yes"/>
      <point x="205" y="112"/>
      <point x="439" y="-126"/>
      <point x="756" y="-126" type="curve" smooth="yes"/>
      <point x="887" y="-126"/>
      <point x="1033" y="-87"/>
      <point x="1145" y="-18" type="curve"/>
      <point x="1170" y="-86" type="line"/>
      <point x="1039" y="-165"/>
      <point x="890" y="-210"/>
    </contour>
    <contour>
      <point x="800" y="324" type="curve" smooth="yes"/>
      <point x="935" y="324"/>
      <point x="1016" y="428"/>
      <point x="1016" y="557" type="curve" smooth="yes"/>
      <point x="1016" y="641"/>
      <point x="966" y="689"/>
      <point x="893" y="700" type="curve"/>
      <point x="882" y="701"/>
      <point x="871" y="702"/>
      <point x="860" y="702" type="curve" smooth="yes"/>
      <point x="721" y="702"/>
      <point x="641" y="601"/>
      <point x="641" y="467" type="curve" smooth="yes"/>
      <point x="641" y="369"/>
      <point x="708" y="324"/>
    </contour>
  </outline>
</glyph>
<glyph name="A" format="2">
  <advance width="1185"/>
  <unicode hex="0041"/>
  <outline>
    <contour>
      <point x="-65" y="0" type="line"/>
      <point x="677" y="1440" type="line"/>
      <point x="765" y="1440" type="line"/>
      <point x="1050" y="0" type="line"/>
      <point x="962" y="0" type="line"/>
      <point x="684" y="1402" type="line"/>
      <point x="743" y="1402" type="line"/>
      <point x="23" y="0" type="line"/>
    </contour>
    <contour>
      <point x="190" y="374" type="line"/>
      <point x="203" y="454" type="line"/>
      <point x="924" y="454" type="line"/>
      <point x="912" y="374" type="line"/>
    </contour>
  </outline>
</glyph>
<glyph name="B" format="2">
  <advance width="1158"/>
  <unicode hex="0042"/>
  <outline>
    <contour>
      <point x="23" y="0" type="line"/>
      <point x="251" y="1440" type="line"/>
      <point x="786" y="1440" type="line" smooth="yes"/>
      <point x="961" y="1440"/>
      <point x="1114" y="1331"/>
      <point x="1114" y="1145" type="curve" smooth="yes"/>
      <point x="1114" y="967"/>
      <point x="985" y="800"/>
      <point x="819" y="742" type="curve"/>
      <point x="823" y="790" type="line"/>
      <point x="971" y="738"/>
      <point x="1075" y="627"/>
      <point x="1075" y="464" type="curve"/>
      <point x="1075" y="464"/>
      <point x="1075" y="464"/>
      <point x="1075" y="464" type="curve"/>
      <point x="1075" y="191"/>
      <point x="864" y="0"/>
      <point x="596" y="0" type="curve" smooth="yes"/>
    </contour>
    <contour>
      <point x="119" y="84" type="line"/>
      <point x="570" y="84" type="line" smooth="yes"/>
      <point x="600" y="84"/>
      <point x="631" y="87"/>
      <point x="660" y="91" type="curve"/>
      <point x="836" y="121"/>
      <point x="982" y="240"/>
      <point x="982" y="439" type="curve" smooth="yes"/>
      <point x="982" y="595"/>
      <point x="867" y="718"/>
      <point x="709" y="718" type="curve" smooth="yes"/>
      <point x="219" y="718" type="line"/>
    </contour>
    <contour>
      <point x="232" y="800" type="line"/>
      <point x="685" y="800" type="line" smooth="yes"/>
      <point x="865" y="800"/>
      <point x="1025" y="960"/>
      <point x="1025" y="1140" type="curve" smooth="yes"/>
      <point x="1025" y="1284"/>
      <point x="905" y="1358"/>
      <point x="773" y="1358" type="curve" smooth="yes"/>
      <point x="321" y="1358" type="line"/>
    </contour>
  </outline>
</glyph>
<glyph name="C" format="2">
  <advance width="1357"/>
  <unicode hex="0043"/>
  <outline>
    <contour>
      <point x="633" y="-30" type="curve" smooth="yes"/>
      <point x="240" y="-30"/>
      <point x="62" y="240"/>
      <point x="62" y="608" type="curve" smooth="yes"/>
      <point x="62" y="1048"/>
      <point x="274" y="1470"/>
      <point x="767" y="1470" type="curve" smooth="yes"/>
      <point x="1076" y="1470"/>
      <point x="1284" y="1297"/>
      <point x="1325" y="988" type="curve"/>
      <point x="1238" y="968" type="line"/>
      <point x="1201" y="1232"/>
      <point x="1025" y="1386"/>
      <point x="758" y="1386" type="curve" smooth="yes"/>
      <point x="325" y="1386"/>
      <point x="150" y="990"/>
      <point x="150" y="612" type="curve" smooth="yes"/>
      <point x="150" y="296"/>
      <point x="300" y="54"/>
      <point x="641" y="54" type="curve" smooth="yes"/>
      <point x="914" y="54"/>
      <point x="1110" y="216"/>
      <point x="1193" y="472" type="curve"/>
      <point x="1278" y="452" type="line"/>
      <point x="1181" y="154"/>
      <point x="951" y="-30"/>
    </contour>
  </outline>
</glyph>
<glyph name="D" format="2">
  <advance width="1255"/>
  <unicode hex="0044"/>
  <outline>
    <contour>
      <point x="23" y="0" type="line"/>
      <point x="251" y="1440" type="line"/>
      <point x="615" y="1440" type="line" smooth="yes"/>
      <point x="677" y="1440"/>
      <point x="740" y="1440"/>
      <point x="801" y="1430" type="curve" smooth="yes"/>
      <point x="1108" y="1382"/>
      <point x="1205" y="1106"/>
      <point x="1205" y="829" type="curve" smooth="yes"/>
      <point x="1205" y="486"/>
      <point x="1065" y="68"/>
      <point x="677" y="10" type="curve" smooth="yes"/>
      <point x="614" y="1"/>
      <point x="550" y="0"/>
      <point x="487" y="0" type="curve" smooth="yes"/>
    </contour>
    <contour>
      <point x="125" y="84" type="line"/>
      <point x="494" y="84" type="line" smooth="yes"/>
      <point x="553" y="84"/>
      <point x="612" y="86"/>
      <point x="670" y="96" type="curve" smooth="yes"/>
      <point x="1020" y="157"/>
      <point x="1116" y="526"/>
      <point x="1116" y="833" type="curve" smooth="yes"/>
      <point x="1116" y="1074"/>
      <point x="1046" y="1295"/>
      <point x="780" y="1344" type="curve" smooth="yes"/>
      <point x="723" y="1354"/>
      <point x="665" y="1356"/>
      <point x="608" y="1356" type="curve" smooth="yes"/>
      <point x="326" y="1356" type="line"/>
    </contour>
  </outline>
</glyph>
<glyph name="F" format="2">
  <advance width="942"/>
  <unicode hex="0046"/>
  <outline>
    <contour>
      <point x="23" y="0" type="line"/>
      <point x="251" y="1440" type="line"/>
      <point x="1035" y="1440" type="line"/>
      <point x="1022" y="1356" type="line"/>
      <point x="320" y="1356" type="line"/>
      <point x="226" y="762" type="line"/>
      <point x="810" y="762" type="line"/>
      <point x="797" y="678" type="line"/>
      <point x="213" y="678" type="line"/>
      <point x="106" y="0" type="line"/>
    </contour>
  </outline>
</glyph>
<glyph name="G" format="2">
  <advance width="1342"/>
  <unicode hex="0047"/>
  <outline>
    <contour>
      <point x="1090" y="0" type="line"/>
      <point x="1172" y="0" type="line"/>
      <point x="1286" y="720" type="line"/>
      <point x="1204" y="720" type="line"/>
    </contour>
    <contour>
      <point x="766" y="1468" type="qcurve" smooth="yes"/>
      <point x="643" y="1468"/>
      <point x="442" y="1401"/>
      <point x="285" y="1283"/>
      <point x="171" y="1120"/>
      <point x="97" y="928"/>
      <point x="61" y="714"/>
      <point x="61" y="604" type="qcurve" smooth="yes"/>
      <point x="61" y="468"/>
      <point x="129" y="235"/>
      <point x="268" y="66"/>
      <point x="482" y="-30"/>
      <point x="628" y="-30" type="qcurve" smooth="yes"/>
      <point x="691" y="-30"/>
      <point x="814" y="-10"/>
      <point x="928" y="33"/>
      <point x="1031" y="100"/>
      <point x="1075" y="147" type="qcurve" smooth="yes"/>
      <point x="1085" y="158"/>
      <point x="1112" y="191"/>
      <point x="1139" y="227"/>
      <point x="1160" y="264"/>
      <point x="1164" y="277" type="qcurve"/>
      <point x="1282" y="720" type="line"/>
      <point x="625" y="720" type="line"/>
      <point x="612" y="636" type="line"/>
      <point x="1190" y="636" type="line"/>
      <point x="1178" y="510"/>
      <point x="1105" y="297"/>
      <point x="972" y="141"/>
      <point x="774" y="54"/>
      <point x="637" y="54" type="qcurve" smooth="yes"/>
      <point x="510" y="54"/>
      <point x="326" y="137"/>
      <point x="206" y="284"/>
      <point x="149" y="486"/>
      <point x="149" y="604" type="qcurve" smooth="yes"/>
      <point x="149" y="701"/>
      <point x="177" y="892"/>
      <point x="239" y="1065"/>
      <point x="335" y="1213"/>
      <point x="470" y="1322"/>
      <point x="647" y="1384"/>
      <point x="758" y="1384" type="qcurve" smooth="yes"/>
      <point x="833" y="1384"/>
      <point x="967" y="1347"/>
      <point x="1077" y="1273"/>
      <point x="1157" y="1162"/>
      <point x="1179" y="1088" type="qcurve"/>
      <point x="1263" y="1122" type="line"/>
      <point x="1237" y="1209"/>
      <point x="1141" y="1339"/>
      <point x="1012" y="1425"/>
      <point x="854" y="1468"/>
    </contour>
  </outline>
</glyph>
<glyph name="J" format="2">
  <advance width="844"/>
  <unicode hex="004A"/>
  <outline>
    <contour>
      <point x="256" y="-28" type="curve" smooth="yes"/>
      <point x="87" y="-28"/>
      <point x="-45" y="81"/>
      <point x="-69" y="250" type="curve"/>
      <point x="17" y="270" type="line"/>
      <point x="37" y="141"/>
      <point x="139" y="56"/>
      <point x="269" y="56" type="curve" smooth="yes"/>
      <point x="485" y="56"/>
      <point x="558" y="241"/>
      <point x="587" y="424" type="curve" smooth="yes"/>
      <point x="747" y="1440" type="line"/>
      <point x="830" y="1440" type="line"/>
      <point x="669" y="424" type="line" smooth="yes"/>
      <point x="656" y="345"/>
      <point x="621" y="209"/>
      <point x="578" y="142" type="curve" smooth="yes"/>
      <point x="507" y="31"/>
      <point x="386" y="-28"/>
    </contour>
  </outline>
</glyph>
<glyph name="M" format="2">
  <advance width="1523"/>
  <unicode hex="004D"/>
  <outline>
    <contour>
      <point x="27" y="0" type="line"/>
      <point x="255" y="1440" type="line"/>
      <point x="335" y="1440" type="line"/>
      <point x="700" y="232" type="line"/>
      <point x="1441" y="1440" type="line"/>
      <point x="1525" y="1440" type="line"/>
      <point x="1297" y="2" type="line"/>
      <point x="1214" y="2" type="line"/>
      <point x="1410" y="1238" type="line"/>
      <point x="729" y="130" type="line"/>
      <point x="636" y="130" type="line"/>
      <point x="307" y="1238" type="line"/>
      <point x="111" y="0" type="line"/>
    </contour>
  </outline>
</glyph>
<glyph name="O" format="2">
  <advance width="1371"/>
  <unicode hex="004F"/>
  <outline>
    <contour>
      <point x="633" y="-30" type="curve" smooth="yes"/>
      <point x="240" y="-30"/>
      <point x="62" y="240"/>
      <point x="62" y="608" type="curve" smooth="yes"/>
      <point x="62" y="1048"/>
      <point x="274" y="1470"/>
      <point x="767" y="1470" type="curve" smooth="yes"/>
      <point x="1160" y="1470"/>
      <point x="1338" y="1200"/>
      <point x="1338" y="832" type="curve" smooth="yes"/>
      <point x="1338" y="393"/>
      <point x="1125" y="-30"/>
    </contour>
    <contour>
      <point x="641" y="54" type="curve" smooth="yes"/>
      <point x="1072" y="54"/>
      <point x="1249" y="441"/>
      <point x="1249" y="820" type="curve" smooth="yes"/>
      <point x="1249" y="1139"/>
      <point x="1105" y="1386"/>
      <point x="758" y="1386" type="curve" smooth="yes"/>
      <point x="325" y="1386"/>
      <point x="150" y="990"/>
      <point x="150" y="612" type="curve" smooth="yes"/>
      <point x="150" y="296"/>
      <point x="300" y="54"/>
    </contour>
  </outline>
</glyph>
<glyph name="P" format="2">
  <advance width="1118"/>
  <unicode hex="0050"/>
  <outline>
    <contour>
      <point x="23" y="0" type="line"/>
      <point x="251" y="1440" type="line"/>
      <point x="771" y="1440" type="line" smooth="yes"/>
      <point x="988" y="1440"/>
      <point x="1133" y="1312"/>
      <point x="1133" y="1090" type="curve" smooth="yes"/>
      <point x="1133" y="809"/>
      <point x="923" y="576"/>
      <point x="634" y="576" type="curve" smooth="yes"/>
      <point x="605" y="576"/>
      <point x="576" y="576"/>
      <point x="547" y="576" type="curve" smooth="yes"/>
      <point x="197" y="576" type="line"/>
      <point x="106" y="0" type="line"/>
    </contour>
    <contour>
      <point x="210" y="660" type="line"/>
      <point x="647" y="660" type="line" smooth="yes"/>
      <point x="731" y="660"/>
      <point x="815" y="681"/>
      <point x="882" y="734" type="curve" smooth="yes"/>
      <point x="934" y="775"/>
      <point x="974" y="828"/>
      <point x="1001" y="887" type="curve" smooth="yes"/>
      <point x="1029" y="946"/>
      <point x="1043" y="1011"/>
      <point x="1043" y="1076" type="curve" smooth="yes"/>
      <point x="1043" y="1256"/>
      <point x="935" y="1356"/>
      <point x="757" y="1356" type="curve" smooth="yes"/>
      <point x="320" y="1356" type="line"/>
    </contour>
  </outline>
</glyph>
<glyph name="Q" format="2">
  <advance width="1375"/>
  <unicode hex="0051"/>
  <outline>
    <contour>
      <point x="1036" y="160" type="line"/>
      <point x="1078" y="53"/>
      <point x="1143" y="7"/>
      <point x="1258" y="-2" type="curve"/>
      <point x="1229" y="-90" type="line"/>
      <point x="1084" y="-72"/>
      <point x="1007" y="-15"/>
      <point x="954" y="120" type="curve"/>
    </contour>
    <contour>
      <point x="633" y="-30" type="curve" smooth="yes"/>
      <point x="241" y="-30"/>
      <point x="62" y="238"/>
      <point x="62" y="608" type="curve" smooth="yes"/>
      <point x="62" y="1049"/>
      <point x="274" y="1470"/>
      <point x="767" y="1470" type="curve" smooth="yes"/>
      <point x="1159" y="1470"/>
      <point x="1338" y="1202"/>
      <point x="1338" y="832" type="curve" smooth="yes"/>
      <point x="1338" y="392"/>
      <point x="1125" y="-30"/>
    </contour>
    <contour>
      <point x="641" y="54" type="curve" smooth="yes"/>
      <point x="1072" y="54"/>
      <point x="1249" y="440"/>
      <point x="1249" y="820" type="curve" smooth="yes"/>
      <point x="1249" y="1140"/>
      <point x="1105" y="1386"/>
      <point x="758" y="1386" type="curve" smooth="yes"/>
      <point x="326" y="1386"/>
      <point x="150" y="992"/>
      <point x="150" y="612" type="curve" smooth="yes"/>
      <point x="150" y="295"/>
      <point x="300" y="54"/>
    </contour>
  </outline>
</glyph>
<glyph name="R" format="2">
  <advance width="1173"/>
  <unicode hex="0052"/>
  <outline>
    <contour>
      <point x="887" y="0" type="line"/>
      <point x="651" y="682" type="line"/>
      <point x="747" y="682" type="line"/>
      <point x="985" y="0" type="line"/>
    </contour>
    <contour>
      <point x="23" y="0" type="line"/>
      <point x="251" y="1440" type="line"/>
      <point x="771" y="1440" type="line" smooth="yes"/>
      <point x="975" y="1440"/>
      <point x="1136" y="1324"/>
      <point x="1136" y="1108" type="curve" smooth="yes"/>
      <point x="1136" y="1007"/>
      <point x="1104" y="916"/>
      <point x="1050" y="840" type="curve" smooth="yes"/>
      <point x="960" y="715"/>
      <point x="809" y="636"/>
      <point x="643" y="636" type="curve" smooth="yes"/>
      <point x="614" y="636"/>
      <point x="585" y="636"/>
      <point x="556" y="636" type="curve" smooth="yes"/>
      <point x="206" y="636" type="line"/>
      <point x="106" y="0" type="line"/>
    </contour>
    <contour>
      <point x="220" y="720" type="line"/>
      <point x="657" y="720" type="line" smooth="yes"/>
      <point x="686" y="720"/>
      <point x="716" y="723"/>
      <point x="744" y="728" type="curve" smooth="yes"/>
      <point x="766" y="732"/>
      <point x="786" y="738"/>
      <point x="806" y="745" type="curve" smooth="yes"/>
      <point x="946" y="798"/>
      <point x="1046" y="939"/>
      <point x="1046" y="1092" type="curve" smooth="yes"/>
      <point x="1046" y="1269"/>
      <point x="924" y="1356"/>
      <point x="757" y="1356" type="curve" smooth="yes"/>
      <point x="320" y="1356" type="line"/>
    </contour>
  </outline>
</glyph>
<glyph name="S" format="2">
  <advance width="1142"/>
  <unicode hex="0053"/>
  <outline>
    <contour>
      <point x="548" y="-30" type="curve" smooth="yes"/>
      <point x="303" y="-30"/>
      <point x="69" y="89"/>
      <point x="36" y="358" type="curve"/>
      <point x="119" y="374" type="line"/>
      <point x="156" y="155"/>
      <point x="352" y="54"/>
      <point x="555" y="54" type="curve" smooth="yes"/>
      <point x="780" y="54"/>
      <point x="1013" y="176"/>
      <point x="995" y="429" type="curve" smooth="yes"/>
      <point x="986" y="560"/>
      <point x="873" y="619"/>
      <point x="761" y="654" type="curve" smooth="yes"/>
      <point x="647" y="690"/>
      <point x="532" y="726"/>
      <point x="418" y="762" type="curve" smooth="yes"/>
      <point x="280" y="806"/>
      <point x="166" y="882"/>
      <point x="155" y="1037" type="curve" smooth="yes"/>
      <point x="136" y="1316"/>
      <point x="398" y="1470"/>
      <point x="649" y="1470" type="curve" smooth="yes"/>
      <point x="908" y="1470"/>
      <point x="1109" y="1320"/>
      <point x="1128" y="1050" type="curve"/>
      <point x="1044" y="1034" type="line"/>
      <point x="1028" y="1263"/>
      <point x="862" y="1386"/>
      <point x="642" y="1386" type="curve" smooth="yes"/>
      <point x="448" y="1386"/>
      <point x="227" y="1270"/>
      <point x="243" y="1050" type="curve" smooth="yes"/>
      <point x="252" y="915"/>
      <point x="394" y="865"/>
      <point x="503" y="830" type="curve" smooth="yes"/>
      <point x="597" y="800"/>
      <point x="693" y="773"/>
      <point x="786" y="740" type="curve" smooth="yes"/>
      <point x="935" y="688"/>
      <point x="1062" y="623"/>
      <point x="1075" y="449" type="curve" smooth="yes"/>
      <point x="1097" y="135"/>
      <point x="836" y="-30"/>
    </contour>
  </outline>
</glyph>
<glyph name="U" format="2">
  <advance width="1324"/>
  <unicode hex="0055"/>
  <outline>
    <contour>
      <point x="560" y="-30" type="curve" smooth="yes"/>
      <point x="297" y="-30"/>
      <point x="94" y="117"/>
      <point x="94" y="395" type="curve" smooth="yes"/>
      <point x="94" y="434"/>
      <point x="98" y="472"/>
      <point x="104" y="510" type="curve" smooth="yes"/>
      <point x="251" y="1440" type="line"/>
      <point x="334" y="1440" type="line"/>
      <point x="191" y="538" type="line" smooth="yes"/>
      <point x="184" y="496"/>
      <point x="180" y="454"/>
      <point x="180" y="411" type="curve" smooth="yes"/>
      <point x="180" y="377"/>
      <point x="183" y="341"/>
      <point x="191" y="308" type="curve" smooth="yes"/>
      <point x="232" y="143"/>
      <point x="406" y="50"/>
      <point x="567" y="50" type="curve" smooth="yes"/>
      <point x="748" y="50"/>
      <point x="917" y="162"/>
      <point x="1016" y="308" type="curve" smooth="yes"/>
      <point x="1048" y="355"/>
      <point x="1071" y="404"/>
      <point x="1086" y="457" type="curve" smooth="yes"/>
      <point x="1094" y="483"/>
      <point x="1100" y="510"/>
      <point x="1104" y="538" type="curve" smooth="yes"/>
      <point x="1247" y="1440" type="line"/>
      <point x="1329" y="1440" type="line"/>
      <point x="1280" y="1130"/>
      <point x="1231" y="820"/>
      <point x="1182" y="510" type="curve" smooth="yes"/>
      <point x="1133" y="200"/>
      <point x="877" y="-30"/>
    </contour>
  </outline>
</glyph>
<glyph name="X" format="2">
  <advance width="1119"/>
  <unicode hex="0058"/>
  <outline>
    <contour>
      <point x="-82" y="0" type="line"/>
      <point x="529" y="730" type="line"/>
      <point x="157" y="1440" type="line"/>
      <point x="255" y="1440" type="line"/>
      <point x="585" y="798" type="line"/>
      <point x="1120" y="1440" type="line"/>
      <point x="1218" y="1440" type="line"/>
      <point x="621" y="730" type="line"/>
      <point x="1001" y="0" type="line"/>
      <point x="903" y="0" type="line"/>
      <point x="563" y="660" type="line"/>
      <point x="16" y="0" type="line"/>
    </contour>
  </outline>
</glyph>
<glyph name="Z" format="2">
  <advance width="1118"/>
  <unicode hex="005A"/>
  <outline>
    <contour>
      <point x="-12" y="0" type="line"/>
      <point x="-7" y="30" type="line"/>
      <point x="1024" y="1356" type="line"/>
      <point x="203" y="1356" type="line"/>
      <point x="216" y="1440" type="line"/>
      <point x="1159" y="1440" type="line"/>
      <point x="1153" y="1406" type="line"/>
      <point x="126" y="82" type="line"/>
      <point x="944" y="82" type="line"/>
      <point x="931" y="0" type="line"/>
    </contour>
  </outline>
</glyph>
<glyph name="bracketright" format="2">
  <advance width="730"/>
  <unicode hex="005D"/>
  <outline>
    <contour>
      <point x="527" y="-444" type="line"/>
      <point x="862" y="1764" type="line"/>
      <point x="537" y="1764" type="line"/>
      <point x="524" y="1680" type="line"/>
      <point x="767" y="1680" type="line"/>
      <point x="457" y="-360" type="line"/>
      <point x="214" y="-360" type="line"/>
      <point x="202" y="-444" type="line"/>
    </contour>
  </outline>
</glyph>
<glyph name="asciicircum" format="2">
  <advance width="669"/>
  <unicode hex="005E"/>
  <outline>
    <contour>
      <point x="79" y="1620" type="line"/>
      <point x="313" y="1860" type="line"/>
      <point x="403" y="1860" type="line"/>
      <point x="561" y="1620" type="line"/>
      <point x="463" y="1620" type="line"/>
      <point x="347" y="1790" type="line"/>
      <point x="177" y="1620" type="line"/>
    </contour>
  </outline>
</glyph>
<glyph name="a" format="2">
  <advance width="1013"/>
  <unicode hex="0061"/>
  <outline>
    <contour>
      <point x="360" y="-30" type="curve" smooth="yes"/>
      <point x="182" y="-30"/>
      <point x="32" y="59"/>
      <point x="32" y="253" type="curve" smooth="yes"/>
      <point x="32" y="489"/>
      <point x="203" y="568"/>
      <point x="392" y="605" type="curve" smooth="yes"/>
      <point x="439" y="615"/>
      <point x="487" y="622"/>
      <point x="534" y="628" type="curve" smooth="yes"/>
      <point x="641" y="642"/>
      <point x="748" y="653"/>
      <point x="854" y="668" type="curve"/>
      <point x="824" y="648" type="line"/>
      <point x="828" y="679"/>
      <point x="830" y="710"/>
      <point x="830" y="741" type="curve" smooth="yes"/>
      <point x="830" y="942"/>
      <point x="742" y="1026"/>
      <point x="542" y="1026" type="curve" smooth="yes"/>
      <point x="370" y="1026"/>
      <point x="258" y="942"/>
      <point x="203" y="780" type="curve"/>
      <point x="119" y="804" type="line"/>
      <point x="183" y="1009"/>
      <point x="342" y="1110"/>
      <point x="553" y="1110" type="curve" smooth="yes"/>
      <point x="724" y="1110"/>
      <point x="834" y="1045"/>
      <point x="885" y="924" type="curve" smooth="yes"/>
      <point x="908" y="871"/>
      <point x="919" y="806"/>
      <point x="919" y="732" type="curve" smooth="yes"/>
      <point x="919" y="713"/>
      <point x="918" y="695"/>
      <point x="915" y="676" type="curve" smooth="yes"/>
      <point x="808" y="0" type="line"/>
      <point x="735" y="0" type="line"/>
      <point x="782" y="296" type="line"/>
      <point x="836" y="294" type="line"/>
      <point x="763" y="86"/>
      <point x="577" y="-30"/>
    </contour>
    <contour>
      <point x="363" y="54" type="curve" smooth="yes"/>
      <point x="544" y="54"/>
      <point x="675" y="137"/>
      <point x="748" y="279" type="curve" smooth="yes"/>
      <point x="768" y="318"/>
      <point x="784" y="361"/>
      <point x="795" y="408" type="curve" smooth="yes"/>
      <point x="811" y="477"/>
      <point x="816" y="549"/>
      <point x="821" y="620" type="curve"/>
      <point x="860" y="586" type="line"/>
      <point x="750" y="575"/>
      <point x="640" y="566"/>
      <point x="530" y="551" type="curve" smooth="yes"/>
      <point x="410" y="535"/>
      <point x="257" y="510"/>
      <point x="175" y="422" type="curve" smooth="yes"/>
      <point x="138" y="383"/>
      <point x="115" y="331"/>
      <point x="115" y="263" type="curve" smooth="yes"/>
      <point x="115" y="246"/>
      <point x="116" y="231"/>
      <point x="119" y="217" type="curve"/>
      <point x="140" y="101"/>
      <point x="243" y="54"/>
    </contour>
  </outline>
</glyph>
<glyph name="b" format="2">
  <advance width="1077"/>
  <unicode hex="0062"/>
  <outline>
    <contour>
      <point x="496" y="-30" type="curve" smooth="yes"/>
      <point x="220" y="-30"/>
      <point x="118" y="218"/>
      <point x="118" y="458" type="curve" smooth="yes"/>
      <point x="118" y="761"/>
      <point x="259" y="1110"/>
      <point x="612" y="1110" type="curve" smooth="yes"/>
      <point x="889" y="1110"/>
      <point x="997" y="867"/>
      <point x="997" y="624" type="curve" smooth="yes"/>
      <point x="997" y="321"/>
      <point x="846" y="-30"/>
    </contour>
    <contour>
      <point x="23" y="0" type="line"/>
      <point x="251" y="1440" type="line"/>
      <point x="330" y="1440" type="line"/>
      <point x="237" y="850" type="line"/>
      <point x="231" y="850" type="line"/>
      <point x="97" y="0" type="line"/>
    </contour>
    <contour>
      <point x="504" y="54" type="curve" smooth="yes"/>
      <point x="801" y="54"/>
      <point x="911" y="370"/>
      <point x="911" y="619" type="curve" smooth="yes"/>
      <point x="911" y="830"/>
      <point x="830" y="1026"/>
      <point x="590" y="1026" type="curve" smooth="yes"/>
      <point x="291" y="1026"/>
      <point x="179" y="720"/>
      <point x="179" y="467" type="curve" smooth="yes"/>
      <point x="179" y="256"/>
      <point x="263" y="54"/>
    </contour>
  </outline>
</glyph>
<glyph name="c" format="2">
  <advance width="1012"/>
  <unicode hex="0063"/>
  <outline>
    <contour>
      <point x="474" y="-30" type="curve" smooth="yes"/>
      <point x="172" y="-30"/>
      <point x="53" y="193"/>
      <point x="53" y="467" type="curve" smooth="yes"/>
      <point x="53" y="787"/>
      <point x="216" y="1110"/>
      <point x="575" y="1110" type="curve" smooth="yes"/>
      <point x="752" y="1110"/>
      <point x="913" y="1019"/>
      <point x="963" y="842" type="curve"/>
      <point x="884" y="808" type="line"/>
      <point x="838" y="953"/>
      <point x="715" y="1026"/>
      <point x="567" y="1026" type="curve" smooth="yes"/>
      <point x="258" y="1026"/>
      <point x="138" y="735"/>
      <point x="138" y="468" type="curve" smooth="yes"/>
      <point x="138" y="242"/>
      <point x="229" y="54"/>
      <point x="481" y="54" type="curve" smooth="yes"/>
      <point x="636" y="54"/>
      <point x="763" y="133"/>
      <point x="835" y="270" type="curve"/>
      <point x="909" y="234" type="line"/>
      <point x="814" y="68"/>
      <point x="668" y="-30"/>
    </contour>
  </outline>
</glyph>
<glyph name="d" format="2">
  <advance width="1077"/>
  <unicode hex="0064"/>
  <outline>
    <contour>
      <point x="451" y="-30" type="curve" smooth="yes"/>
      <point x="165" y="-30"/>
      <point x="52" y="204"/>
      <point x="52" y="459" type="curve" smooth="yes"/>
      <point x="52" y="750"/>
      <point x="197" y="1110"/>
      <point x="537" y="1110" type="curve" smooth="yes"/>
      <point x="819" y="1110"/>
      <point x="931" y="882"/>
      <point x="931" y="630" type="curve" smooth="yes"/>
      <point x="931" y="342"/>
      <point x="792" y="-30"/>
    </contour>
    <contour>
      <point x="459" y="54" type="curve" smooth="yes"/>
      <point x="758" y="54"/>
      <point x="870" y="365"/>
      <point x="870" y="617" type="curve" smooth="yes"/>
      <point x="870" y="828"/>
      <point x="786" y="1026"/>
      <point x="545" y="1026" type="curve" smooth="yes"/>
      <point x="244" y="1026"/>
      <point x="138" y="720"/>
      <point x="138" y="467" type="curve" smooth="yes"/>
      <point x="138" y="260"/>
      <point x="220" y="54"/>
    </contour>
    <contour>
      <point x="781" y="0" type="line"/>
      <point x="915" y="850" type="line"/>
      <point x="910" y="850" type="line"/>
      <point x="1003" y="1440" type="line"/>
      <point x="1082" y="1440" type="line"/>
      <point x="854" y="0" type="line"/>
    </contour>
  </outline>
</glyph>
<glyph name="e" format="2">
  <advance width="1076"/>
  <unicode hex="0065"/>
  <outline>
    <contour>
      <point x="475" y="-30" type="curve" smooth="yes"/>
      <point x="185" y="-30"/>
      <point x="52" y="183"/>
      <point x="52" y="452" type="curve" smooth="yes"/>
      <point x="52" y="777"/>
      <point x="205" y="1110"/>
      <point x="575" y="1110" type="curve" smooth="yes"/>
      <point x="874" y="1110"/>
      <point x="995" y="889"/>
      <point x="995" y="617" type="curve" smooth="yes"/>
      <point x="995" y="583"/>
      <point x="993" y="550"/>
      <point x="990" y="516" type="curve"/>
      <point x="905" y="516" type="line"/>
      <point x="907" y="549"/>
      <point x="910" y="583"/>
      <point x="910" y="616" type="curve" smooth="yes"/>
      <point x="910" y="841"/>
      <point x="818" y="1026"/>
      <point x="568" y="1026" type="curve" smooth="yes"/>
      <point x="249" y="1026"/>
      <point x="137" y="729"/>
      <point x="137" y="456" type="curve" smooth="yes"/>
      <point x="137" y="231"/>
      <point x="236" y="54"/>
      <point x="482" y="54" type="curve" smooth="yes"/>
      <point x="658" y="54"/>
      <point x="794" y="148"/>
      <point x="880" y="298" type="curve"/>
      <point x="943" y="258" type="line"/>
      <point x="845" y="80"/>
      <point x="681" y="-30"/>
    </contour>
    <contour>
      <point x="103" y="516" type="line"/>
      <point x="117" y="600" type="line"/>
      <point x="952" y="600" type="line"/>
      <point x="939" y="516" type="line"/>
    </contour>
  </outline>
</glyph>
<glyph name="f" format="2">
  <advance width="637"/>
  <unicode hex="0066"/>
  <outline>
    <contour>
      <point x="139" y="0" type="line"/>
      <point x="302" y="1030" type="line" smooth="yes"/>
      <point x="311" y="1088"/>
      <point x="320" y="1145"/>
      <point x="329" y="1202" type="curve" smooth="yes"/>
      <point x="332" y="1223"/>
      <point x="337" y="1243"/>
      <point x="342" y="1262" type="curve" smooth="yes"/>
      <point x="374" y="1375"/>
      <point x="442" y="1447"/>
      <point x="558" y="1465" type="curve" smooth="yes"/>
      <point x="577" y="1468"/>
      <point x="598" y="1470"/>
      <point x="620" y="1470" type="curve" smooth="yes"/>
      <point x="635" y="1470"/>
      <point x="650" y="1470"/>
      <point x="664" y="1470" type="curve" smooth="yes"/>
      <point x="753" y="1470" type="line"/>
      <point x="741" y="1394" type="line"/>
      <point x="718" y="1394"/>
      <point x="696" y="1394"/>
      <point x="673" y="1394" type="curve" smooth="yes"/>
      <point x="558" y="1394"/>
      <point x="486" y="1382"/>
      <point x="444" y="1311" type="curve" smooth="yes"/>
      <point x="427" y="1282"/>
      <point x="415" y="1244"/>
      <point x="407" y="1194" type="curve" smooth="yes"/>
      <point x="218" y="0" type="line"/>
    </contour>
    <contour>
      <point x="111" y="996" type="line"/>
      <point x="124" y="1080" type="line"/>
      <point x="691" y="1080" type="line"/>
      <point x="678" y="996" type="line"/>
    </contour>
  </outline>
</glyph>
<glyph name="g" format="2">
  <advance width="1077"/>
  <unicode hex="0067"/>
  <outline>
    <contour>
      <point x="337" y="-510" type="curve" smooth="yes"/>
      <point x="168" y="-510"/>
      <point x="31" y="-434"/>
      <point x="-27" y="-270" type="curve"/>
      <point x="51" y="-220" type="line"/>
      <point x="93" y="-358"/>
      <point x="212" y="-424"/>
      <point x="351" y="-424" type="curve" smooth="yes"/>
      <point x="548" y="-424"/>
      <point x="652" y="-335"/>
      <point x="713" y="-202" type="curve" smooth="yes"/>
      <point x="748" y="-126"/>
      <point x="768" y="-36"/>
      <point x="783" y="60" type="curve" smooth="yes"/>
      <point x="797" y="152"/>
      <point x="812" y="244"/>
      <point x="826" y="336" type="curve"/>
      <point x="834" y="336" type="line"/>
      <point x="952" y="1080" type="line"/>
      <point x="1025" y="1080" type="line"/>
      <point x="864" y="60" type="line" smooth="yes"/>
      <point x="856" y="10"/>
      <point x="847" y="-38"/>
      <point x="836" y="-83" type="curve" smooth="yes"/>
      <point x="825" y="-129"/>
      <point x="812" y="-172"/>
      <point x="796" y="-212" type="curve" smooth="yes"/>
      <point x="724" y="-392"/>
      <point x="595" y="-510"/>
    </contour>
    <contour>
      <point x="451" y="-30" type="curve" smooth="yes"/>
      <point x="165" y="-30"/>
      <point x="52" y="204"/>
      <point x="52" y="459" type="curve" smooth="yes"/>
      <point x="52" y="750"/>
      <point x="197" y="1110"/>
      <point x="537" y="1110" type="curve" smooth="yes"/>
      <point x="819" y="1110"/>
      <point x="931" y="882"/>
      <point x="931" y="630" type="curve" smooth="yes"/>
      <point x="931" y="342"/>
      <point x="792" y="-30"/>
    </contour>
    <contour>
      <point x="459" y="54" type="curve" smooth="yes"/>
      <point x="758" y="54"/>
      <point x="870" y="365"/>
      <point x="870" y="617" type="curve" smooth="yes"/>
      <point x="870" y="828"/>
      <point x="786" y="1026"/>
      <point x="545" y="1026" type="curve" smooth="yes"/>
      <point x="244" y="1026"/>
      <point x="138" y="720"/>
      <point x="138" y="467" type="curve" smooth="yes"/>
      <point x="138" y="260"/>
      <point x="220" y="54"/>
    </contour>
  </outline>
</glyph>
<glyph name="h" format="2">
  <advance width="1068"/>
  <unicode hex="0068"/>
  <outline>
    <contour>
      <point x="784" y="0" type="line"/>
      <point x="875" y="572" type="line" smooth="yes"/>
      <point x="882" y="619"/>
      <point x="887" y="666"/>
      <point x="887" y="713" type="curve" smooth="yes"/>
      <point x="887" y="898"/>
      <point x="808" y="1022"/>
      <point x="610" y="1022" type="curve" smooth="yes"/>
      <point x="357" y="1022"/>
      <point x="230" y="817"/>
      <point x="196" y="590" type="curve"/>
      <point x="122" y="588" type="line"/>
      <point x="163" y="861"/>
      <point x="321" y="1104"/>
      <point x="623" y="1104" type="curve" smooth="yes"/>
      <point x="858" y="1104"/>
      <point x="968" y="943"/>
      <point x="968" y="722" type="curve" smooth="yes"/>
      <point x="968" y="677"/>
      <point x="963" y="632"/>
      <point x="956" y="588" type="curve" smooth="yes"/>
      <point x="863" y="0" type="line"/>
    </contour>
    <contour>
      <point x="23" y="0" type="line"/>
      <point x="251" y="1440" type="line"/>
      <point x="325" y="1440" type="line"/>
      <point x="190" y="590" type="line"/>
      <point x="196" y="590" type="line"/>
      <point x="102" y="0" type="line"/>
    </contour>
  </outline>
</glyph>
<glyph name="j" format="2">
  <advance width="418"/>
  <unicode hex="006A"/>
  <outline>
    <contour>
      <point x="-194" y="-480" type="line"/>
      <point x="-180" y="-394" type="line"/>
      <point x="-116" y="-394" type="line" smooth="yes"/>
      <point x="-11" y="-394"/>
      <point x="44" y="-329"/>
      <point x="60" y="-230" type="curve" smooth="yes"/>
      <point x="268" y="1080" type="line"/>
      <point x="347" y="1080" type="line"/>
      <point x="141" y="-220" type="line" smooth="yes"/>
      <point x="115" y="-386"/>
      <point x="48" y="-480"/>
      <point x="-131" y="-480" type="curve" smooth="yes"/>
    </contour>
    <contour>
      <point x="343" y="1303" type="curve" smooth="yes"/>
      <point x="309" y="1303"/>
      <point x="284" y="1328"/>
      <point x="284" y="1362" type="curve" smooth="yes"/>
      <point x="284" y="1407"/>
      <point x="319" y="1450"/>
      <point x="366" y="1450" type="curve" smooth="yes"/>
      <point x="401" y="1450"/>
      <point x="425" y="1424"/>
      <point x="425" y="1390" type="curve" smooth="yes"/>
      <point x="425" y="1345"/>
      <point x="389" y="1303"/>
    </contour>
  </outline>
</glyph>
<glyph name="l" format="2">
  <advance width="463"/>
  <unicode hex="006C"/>
  <outline>
    <contour>
      <point x="379" y="0" type="line"/>
      <point x="329" y="0" type="line" smooth="yes"/>
      <point x="212" y="0"/>
      <point x="134" y="68"/>
      <point x="134" y="188" type="curve" smooth="yes"/>
      <point x="134" y="227"/>
      <point x="143" y="266"/>
      <point x="149" y="304" type="curve" smooth="yes"/>
      <point x="329" y="1440" type="line"/>
      <point x="408" y="1440" type="line"/>
      <point x="223" y="276" type="line" smooth="yes"/>
      <point x="220" y="254"/>
      <point x="217" y="232"/>
      <point x="217" y="210" type="curve" smooth="yes"/>
      <point x="217" y="91"/>
      <point x="296" y="84"/>
      <point x="393" y="84" type="curve"/>
    </contour>
  </outline>
</glyph>
<glyph name="m" format="2">
  <advance width="1525"/>
  <unicode hex="006D"/>
  <outline>
    <contour>
      <point x="1209" y="0" type="line"/>
      <point x="1311" y="638" type="line"/>
      <point x="1316" y="664"/>
      <point x="1323" y="718"/>
      <point x="1328" y="744" type="qcurve"/>
      <point x="1330" y="760"/>
      <point x="1333" y="791"/>
      <point x="1333" y="807" type="qcurve" smooth="yes"/>
      <point x="1333" y="857"/>
      <point x="1300" y="941"/>
      <point x="1240" y="1001"/>
      <point x="1156" y="1034"/>
      <point x="1106" y="1034" type="qcurve" smooth="yes"/>
      <point x="1073" y="1034"/>
      <point x="1010" y="1019"/>
      <point x="980" y="1005" type="qcurve" smooth="yes"/>
      <point x="937" y="986"/>
      <point x="875" y="924"/>
      <point x="834" y="849"/>
      <point x="812" y="763"/>
      <point x="808" y="718" type="qcurve"/>
      <point x="738" y="718" type="line"/>
      <point x="741" y="799"/>
      <point x="798" y="941"/>
      <point x="897" y="1048"/>
      <point x="1034" y="1110"/>
      <point x="1118" y="1110" type="qcurve" smooth="yes"/>
      <point x="1182" y="1110"/>
      <point x="1291" y="1070"/>
      <point x="1370" y="997"/>
      <point x="1414" y="892"/>
      <point x="1414" y="826" type="qcurve" smooth="yes"/>
      <point x="1414" y="807"/>
      <point x="1411" y="769"/>
      <point x="1408" y="750" type="qcurve" smooth="yes"/>
      <point x="1287" y="0" type="line"/>
    </contour>
    <contour>
      <point x="23" y="0" type="line"/>
      <point x="194" y="1080" type="line"/>
      <point x="268" y="1080" type="line"/>
      <point x="233" y="860" type="line"/>
      <point x="238" y="860" type="line"/>
      <point x="102" y="0" type="line"/>
    </contour>
    <contour>
      <point x="617" y="0" type="line"/>
      <point x="718" y="626" type="line"/>
      <point x="723" y="652"/>
      <point x="730" y="704"/>
      <point x="735" y="730" type="qcurve" smooth="yes"/>
      <point x="738" y="747"/>
      <point x="741" y="782"/>
      <point x="741" y="799" type="qcurve" smooth="yes"/>
      <point x="741" y="851"/>
      <point x="709" y="938"/>
      <point x="649" y="1000"/>
      <point x="564" y="1034"/>
      <point x="511" y="1034" type="qcurve" smooth="yes"/>
      <point x="443" y="1034"/>
      <point x="337" y="982"/>
      <point x="263" y="895"/>
      <point x="221" y="780"/>
      <point x="215" y="718" type="qcurve"/>
      <point x="147" y="750" type="line"/>
      <point x="153" y="826"/>
      <point x="215" y="957"/>
      <point x="315" y="1054"/>
      <point x="448" y="1110"/>
      <point x="526" y="1110" type="qcurve" smooth="yes"/>
      <point x="590" y="1110"/>
      <point x="698" y="1070"/>
      <point x="777" y="997"/>
      <point x="821" y="892"/>
      <point x="821" y="826" type="qcurve" smooth="yes"/>
      <point x="821" y="806"/>
      <point x="817" y="764"/>
      <point x="814" y="744" type="qcurve" smooth="yes"/>
      <point x="694" y="0" type="line"/>
    </contour>
  </outline>
</glyph>
<glyph name="n" format="2">
  <advance width="1068"/>
  <unicode hex="006E"/>
  <outline>
    <contour>
      <point x="784" y="0" type="line"/>
      <point x="875" y="572" type="line" smooth="yes"/>
      <point x="882" y="619"/>
      <point x="887" y="666"/>
      <point x="887" y="713" type="curve" smooth="yes"/>
      <point x="887" y="898"/>
      <point x="808" y="1022"/>
      <point x="610" y="1022" type="curve" smooth="yes"/>
      <point x="357" y="1022"/>
      <point x="230" y="817"/>
      <point x="196" y="590" type="curve"/>
      <point x="122" y="588" type="line"/>
      <point x="163" y="860"/>
      <point x="320" y="1104"/>
      <point x="623" y="1104" type="curve" smooth="yes"/>
      <point x="858" y="1104"/>
      <point x="968" y="943"/>
      <point x="968" y="722" type="curve" smooth="yes"/>
      <point x="968" y="677"/>
      <point x="963" y="632"/>
      <point x="956" y="588" type="curve" smooth="yes"/>
      <point x="863" y="0" type="line"/>
    </contour>
    <contour>
      <point x="23" y="0" type="line"/>
      <point x="194" y="1080" type="line"/>
      <point x="268" y="1080" type="line"/>
      <point x="233" y="860" type="line"/>
      <point x="238" y="860" type="line"/>
      <point x="102" y="0" type="line"/>
    </contour>
  </outline>
</glyph>
<glyph name="o" format="2">
  <advance width="1077"/>
  <unicode hex="006F"/>
  <outline>
    <contour>
      <point x="474" y="-30" type="curve" smooth="yes"/>
      <point x="178" y="-30"/>
      <point x="53" y="190"/>
      <point x="53" y="461" type="curve" smooth="yes"/>
      <point x="53" y="783"/>
      <point x="212" y="1110"/>
      <point x="575" y="1110" type="curve" smooth="yes"/>
      <point x="870" y="1110"/>
      <point x="997" y="894"/>
      <point x="997" y="623" type="curve" smooth="yes"/>
      <point x="997" y="300"/>
      <point x="840" y="-30"/>
    </contour>
    <contour>
      <point x="481" y="54" type="curve" smooth="yes"/>
      <point x="798" y="54"/>
      <point x="912" y="349"/>
      <point x="912" y="621" type="curve" smooth="yes"/>
      <point x="912" y="849"/>
      <point x="818" y="1026"/>
      <point x="567" y="1026" type="curve" smooth="yes"/>
      <point x="252" y="1026"/>
      <point x="138" y="735"/>
      <point x="138" y="464" type="curve" smooth="yes"/>
      <point x="138" y="240"/>
      <point x="232" y="54"/>
    </contour>
  </outline>
</glyph>
<glyph name="p" format="2">
  <advance width="1077"/>
  <unicode hex="0070"/>
  <outline>
    <contour>
      <point x="456" y="-30" type="curve" smooth="yes"/>
      <point x="204" y="-30"/>
      <point x="110" y="178"/>
      <point x="110" y="400" type="curve" smooth="yes"/>
      <point x="110" y="720"/>
      <point x="283" y="1110"/>
      <point x="652" y="1110" type="curve" smooth="yes"/>
      <point x="906" y="1110"/>
      <point x="1004" y="906"/>
      <point x="1004" y="680" type="curve" smooth="yes"/>
      <point x="1004" y="360"/>
      <point x="823" y="-30"/>
    </contour>
    <contour>
      <point x="-53" y="-480" type="line"/>
      <point x="194" y="1080" type="line"/>
      <point x="268" y="1080" type="line"/>
      <point x="133" y="230" type="line"/>
      <point x="139" y="230" type="line"/>
      <point x="26" y="-480" type="line"/>
    </contour>
    <contour>
      <point x="470" y="54" type="curve" smooth="yes"/>
      <point x="782" y="54"/>
      <point x="919" y="409"/>
      <point x="919" y="673" type="curve" smooth="yes"/>
      <point x="919" y="867"/>
      <point x="840" y="1026"/>
      <point x="624" y="1026" type="curve" smooth="yes"/>
      <point x="310" y="1026"/>
      <point x="171" y="682"/>
      <point x="171" y="414" type="curve" smooth="yes"/>
      <point x="171" y="219"/>
      <point x="253" y="54"/>
    </contour>
  </outline>
</glyph>
<glyph name="q" format="2">
  <advance width="1077"/>
  <unicode hex="0071"/>
  <outline>
    <contour>
      <point x="451" y="-30" type="curve" smooth="yes"/>
      <point x="165" y="-30"/>
      <point x="52" y="204"/>
      <point x="52" y="459" type="curve" smooth="yes"/>
      <point x="52" y="750"/>
      <point x="197" y="1110"/>
      <point x="537" y="1110" type="curve" smooth="yes"/>
      <point x="819" y="1110"/>
      <point x="931" y="882"/>
      <point x="931" y="630" type="curve" smooth="yes"/>
      <point x="931" y="341"/>
      <point x="792" y="-30"/>
    </contour>
    <contour>
      <point x="459" y="54" type="curve" smooth="yes"/>
      <point x="758" y="54"/>
      <point x="870" y="365"/>
      <point x="870" y="617" type="curve" smooth="yes"/>
      <point x="870" y="829"/>
      <point x="786" y="1026"/>
      <point x="545" y="1026" type="curve" smooth="yes"/>
      <point x="244" y="1026"/>
      <point x="138" y="721"/>
      <point x="138" y="467" type="curve" smooth="yes"/>
      <point x="138" y="259"/>
      <point x="220" y="54"/>
    </contour>
    <contour>
      <point x="699" y="-480" type="line"/>
      <point x="812" y="230" type="line"/>
      <point x="817" y="230" type="line"/>
      <point x="952" y="1080" type="line"/>
      <point x="1025" y="1080" type="line"/>
      <point x="778" y="-480" type="line"/>
    </contour>
  </outline>
</glyph>
<glyph name="r" format="2">
  <advance width="622"/>
  <unicode hex="0072"/>
  <outline>
    <contour>
      <point x="23" y="0" type="line"/>
      <point x="194" y="1080" type="line"/>
      <point x="268" y="1080" type="line"/>
      <point x="227" y="822" type="line"/>
      <point x="208" y="856" type="line"/>
      <point x="281" y="996"/>
      <point x="407" y="1092"/>
      <point x="570" y="1092" type="curve"/>
      <point x="570" y="1092"/>
      <point x="570" y="1092"/>
      <point x="570" y="1092" type="curve"/>
      <point x="597" y="1092"/>
      <point x="624" y="1089"/>
      <point x="649" y="1080" type="curve"/>
      <point x="637" y="1000" type="line"/>
      <point x="611" y="1006"/>
      <point x="584" y="1009"/>
      <point x="558" y="1009" type="curve" smooth="yes"/>
      <point x="476" y="1009"/>
      <point x="421" y="988"/>
      <point x="359" y="936" type="curve" smooth="yes"/>
      <point x="270" y="861"/>
      <point x="230" y="753"/>
      <point x="206" y="643" type="curve" smooth="yes"/>
      <point x="198" y="606"/>
      <point x="192" y="569"/>
      <point x="186" y="532" type="curve" smooth="yes"/>
      <point x="102" y="0" type="line"/>
    </contour>
  </outline>
</glyph>
<glyph name="s" format="2">
  <advance width="963"/>
  <unicode hex="0073"/>
  <outline>
    <contour>
      <point x="391" y="-24" type="qcurve" smooth="yes"/>
      <point x="321" y="-24"/>
      <point x="187" y="16"/>
      <point x="80" y="96"/>
      <point x="14" y="216"/>
      <point x="11" y="295" type="qcurve"/>
      <point x="94" y="304" type="line"/>
      <point x="100" y="244"/>
      <point x="158" y="153"/>
      <point x="246" y="91"/>
      <point x="353" y="59"/>
      <point x="407" y="59" type="qcurve" smooth="yes"/>
      <point x="460" y="59"/>
      <point x="566" y="74"/>
      <point x="657" y="113"/>
      <point x="726" y="180"/>
      <point x="742" y="231" type="qcurve" smooth="yes"/>
      <point x="746" y="245"/>
      <point x="751" y="273"/>
      <point x="752" y="288" type="qcurve"/>
      <point x="754" y="307"/>
      <point x="748" y="346"/>
      <point x="741" y="365" type="qcurve" smooth="yes"/>
      <point x="729" y="396"/>
      <point x="641" y="451"/>
      <point x="520" y="503"/>
      <point x="381" y="555"/>
      <point x="257" y="614"/>
      <point x="163" y="681"/>
      <point x="146" y="723" type="qcurve" smooth="yes"/>
      <point x="141" y="736"/>
      <point x="134" y="759"/>
      <point x="132" y="771" type="qcurve"/>
      <point x="131" y="782"/>
      <point x="130" y="806"/>
      <point x="131" y="820" type="qcurve" smooth="yes"/>
      <point x="137" y="901"/>
      <point x="220" y="1010"/>
      <point x="342" y="1076"/>
      <point x="489" y="1104"/>
      <point x="559" y="1104" type="qcurve"/>
      <point x="631" y="1105"/>
      <point x="766" y="1058"/>
      <point x="869" y="970"/>
      <point x="926" y="843"/>
      <point x="920" y="763" type="qcurve"/>
      <point x="837" y="754" type="line"/>
      <point x="837" y="820"/>
      <point x="786" y="921"/>
      <point x="701" y="989"/>
      <point x="590" y="1023"/>
      <point x="531" y="1022" type="qcurve"/>
      <point x="488" y="1022"/>
      <point x="393" y="1010"/>
      <point x="308" y="978"/>
      <point x="241" y="923"/>
      <point x="225" y="880" type="qcurve"/>
      <point x="221" y="867"/>
      <point x="215" y="841"/>
      <point x="214" y="826" type="qcurve" smooth="yes"/>
      <point x="209" y="771"/>
      <point x="286" y="693"/>
      <point x="410" y="632"/>
      <point x="561" y="580"/>
      <point x="699" y="521"/>
      <point x="805" y="448"/>
      <point x="822" y="397" type="qcurve" smooth="yes"/>
      <point x="827" y="382"/>
      <point x="834" y="356"/>
      <point x="836" y="343" type="qcurve"/>
      <point x="837" y="330"/>
      <point x="837" y="303"/>
      <point x="836" y="287" type="qcurve" smooth="yes"/>
      <point x="829" y="197"/>
      <point x="749" y="77"/>
      <point x="627" y="6"/>
      <point x="473" y="-24"/>
    </contour>
  </outline>
</glyph>
<glyph name="t" format="2">
  <advance width="713"/>
  <unicode hex="0074"/>
  <outline>
    <contour>
      <point x="561" y="0" type="line"/>
      <point x="520" y="-9"/>
      <point x="479" y="-14"/>
      <point x="437" y="-14" type="curve" smooth="yes"/>
      <point x="295" y="-14"/>
      <point x="197" y="49"/>
      <point x="197" y="201" type="curve" smooth="yes"/>
      <point x="197" y="254"/>
      <point x="208" y="306"/>
      <point x="216" y="358" type="curve" smooth="yes"/>
      <point x="377" y="1380" type="line"/>
      <point x="456" y="1380" type="line"/>
      <point x="295" y="358" type="line" smooth="yes"/>
      <point x="288" y="312"/>
      <point x="277" y="265"/>
      <point x="277" y="218" type="curve" smooth="yes"/>
      <point x="277" y="106"/>
      <point x="350" y="68"/>
      <point x="452" y="68" type="curve" smooth="yes"/>
      <point x="493" y="68"/>
      <point x="534" y="73"/>
      <point x="574" y="80" type="curve"/>
    </contour>
    <contour>
      <point x="75" y="996" type="line"/>
      <point x="89" y="1080" type="line"/>
      <point x="732" y="1080" type="line"/>
      <point x="719" y="996" type="line"/>
    </contour>
  </outline>
</glyph>
<glyph name="u" format="2">
  <advance width="1068"/>
  <unicode hex="0075"/>
  <outline>
    <contour>
      <point x="417" y="-24" type="curve" smooth="yes"/>
      <point x="182" y="-24"/>
      <point x="72" y="137"/>
      <point x="72" y="358" type="curve" smooth="yes"/>
      <point x="72" y="403"/>
      <point x="77" y="448"/>
      <point x="84" y="492" type="curve" smooth="yes"/>
      <point x="177" y="1080" type="line"/>
      <point x="256" y="1080" type="line"/>
      <point x="165" y="508" type="line" smooth="yes"/>
      <point x="158" y="462"/>
      <point x="153" y="415"/>
      <point x="153" y="368" type="curve" smooth="yes"/>
      <point x="153" y="182"/>
      <point x="231" y="58"/>
      <point x="430" y="58" type="curve" smooth="yes"/>
      <point x="685" y="58"/>
      <point x="807" y="263"/>
      <point x="844" y="490" type="curve"/>
      <point x="918" y="492" type="line"/>
      <point x="876" y="220"/>
      <point x="719" y="-24"/>
    </contour>
    <contour>
      <point x="772" y="0" type="line"/>
      <point x="807" y="220" type="line"/>
      <point x="802" y="220" type="line"/>
      <point x="938" y="1080" type="line"/>
      <point x="1017" y="1080" type="line"/>
      <point x="846" y="0" type="line"/>
    </contour>
  </outline>
</glyph>
<glyph name="w" format="2">
  <advance width="1408"/>
  <unicode hex="0077"/>
  <outline>
    <contour>
      <point x="249" y="0" type="line"/>
      <point x="106" y="1080" type="line"/>
      <point x="190" y="1080" type="line"/>
      <point x="313" y="144" type="line"/>
      <point x="733" y="1080" type="line"/>
      <point x="817" y="1080" type="line"/>
      <point x="940" y="144" type="line"/>
      <point x="1362" y="1080" type="line"/>
      <point x="1444" y="1080" type="line"/>
      <point x="959" y="0" type="line"/>
      <point x="876" y="0" type="line"/>
      <point x="753" y="938" type="line"/>
      <point x="332" y="0" type="line"/>
    </contour>
  </outline>
</glyph>
<glyph name="x" format="2">
  <advance width="964"/>
  <unicode hex="0078"/>
  <outline>
    <contour>
      <point x="-82" y="0" type="line"/>
      <point x="422" y="546" type="line"/>
      <point x="98" y="1080" type="line"/>
      <point x="197" y="1080" type="line"/>
      <point x="479" y="608" type="line"/>
      <point x="909" y="1080" type="line"/>
      <point x="1008" y="1080" type="line"/>
      <point x="515" y="546" type="line"/>
      <point x="847" y="0" type="line"/>
      <point x="746" y="0" type="line"/>
      <point x="460" y="484" type="line"/>
      <point x="18" y="0" type="line"/>
    </contour>
  </outline>
</glyph>
<glyph name="y" format="2">
  <advance width="1042"/>
  <unicode hex="0079"/>
  <outline>
    <contour>
      <point x="488.884" y="75" type="line"/>
      <point x="188.421" y="1080" type="line"/>
      <point x="104.031" y="1080" type="line"/>
      <point x="422.4" y="0" type="line"/>
      <point x="447.62" y="0" type="line"/>
      <point x="402.507" y="-89"/>
      <point x="338.907" y="-214"/>
      <point x="289.489" y="-299"/>
      <point x="250.526" y="-350"/>
      <point x="231.158" y="-364" type="qcurve" smooth="yes"/>
      <point x="214.002" y="-376"/>
      <point x="183.13" y="-389"/>
      <point x="147.528" y="-394"/>
      <point x="105.818" y="-394"/>
      <point x="77.9608" y="-392" type="qcurve"/>
      <point x="66.2368" y="-478" type="line"/>
      <point x="102.961" y="-479"/>
      <point x="155.477" y="-478"/>
      <point x="197.171" y="-471"/>
      <point x="233.03" y="-457"/>
      <point x="253.232" y="-444" type="qcurve" smooth="yes"/>
      <point x="274.404" y="-431"/>
      <point x="312.155" y="-396"/>
      <point x="350.709" y="-348"/>
      <point x="388.261" y="-286"/>
      <point x="408.264" y="-246" type="qcurve" smooth="yes"/>
      <point x="1087.34" y="1078" type="line"/>
      <point x="1004.89" y="1078" type="line"/>
    </contour>
  </outline>
</glyph>
<glyph name="z" format="2">
  <advance width="992"/>
  <unicode hex="007A"/>
  <outline>
    <contour>
      <point x="-65" y="0" type="line"/>
      <point x="-60" y="30" type="line"/>
      <point x="833" y="992" type="line"/>
      <point x="138" y="992" type="line"/>
      <point x="152" y="1080" type="line"/>
      <point x="994" y="1080" type="line"/>
      <point x="988" y="1046" type="line"/>
      <point x="95" y="88" type="line"/>
      <point x="791" y="88" type="line"/>
      <point x="777" y="0" type="line"/>
    </contour>
  </outline>
</glyph>
<glyph name="braceleft" format="2">
  <advance width="746"/>
  <unicode hex="007B"/>
  <outline>
    <contour>
      <point x="391" y="-444" type="line" smooth="yes"/>
      <point x="293" y="-444"/>
      <point x="215" y="-371"/>
      <point x="215" y="-272" type="curve" smooth="yes"/>
      <point x="215" y="-260"/>
      <point x="216" y="-248"/>
      <point x="218" y="-236" type="curve" smooth="yes"/>
      <point x="326" y="450" type="line" smooth="yes"/>
      <point x="327" y="457"/>
      <point x="328" y="463"/>
      <point x="328" y="470" type="curve" smooth="yes"/>
      <point x="328" y="540"/>
      <point x="250" y="611"/>
      <point x="250" y="653" type="curve" smooth="yes"/>
      <point x="250" y="707"/>
      <point x="378" y="778"/>
      <point x="393" y="870" type="curve" smooth="yes"/>
      <point x="501" y="1554" type="line" smooth="yes"/>
      <point x="519" y="1668"/>
      <point x="623" y="1764"/>
      <point x="740" y="1764" type="curve" smooth="yes"/>
      <point x="846" y="1764" type="line"/>
      <point x="833" y="1680" type="line"/>
      <point x="727" y="1680" type="line" smooth="yes"/>
      <point x="656" y="1680"/>
      <point x="595" y="1623"/>
      <point x="584" y="1554" type="curve" smooth="yes"/>
      <point x="475" y="870" type="line" smooth="yes"/>
      <point x="461" y="782"/>
      <point x="398" y="726"/>
      <point x="342" y="660" type="curve"/>
      <point x="373" y="604"/>
      <point x="412" y="552"/>
      <point x="412" y="486" type="curve" smooth="yes"/>
      <point x="412" y="474"/>
      <point x="411" y="462"/>
      <point x="409" y="450" type="curve" smooth="yes"/>
      <point x="300" y="-236" type="line" smooth="yes"/>
      <point x="299" y="-243"/>
      <point x="298" y="-250"/>
      <point x="298" y="-257" type="curve" smooth="yes"/>
      <point x="298" y="-316"/>
      <point x="346" y="-360"/>
      <point x="404" y="-360" type="curve" smooth="yes"/>
      <point x="510" y="-360" type="line"/>
      <point x="496" y="-444" type="line"/>
    </contour>
  </outline>
</glyph>
<glyph name="bar" format="2">
  <advance width="399"/>
  <unicode hex="007C"/>
  <outline>
    <contour>
      <point x="58" y="0" type="line"/>
      <point x="286" y="1440" type="line"/>
      <point x="369" y="1440" type="line"/>
      <point x="141" y="0" type="line"/>
    </contour>
  </outline>
</glyph>
<glyph name="braceright" format="2">
  <advance width="746"/>
  <unicode hex="007D"/>
  <outline>
    <contour>
      <point x="228" y="-444" type="line" smooth="yes"/>
      <point x="343" y="-444"/>
      <point x="449" y="-349"/>
      <point x="466" y="-236" type="curve" smooth="yes"/>
      <point x="473" y="-193"/>
      <point x="480" y="-150"/>
      <point x="486" y="-107" type="curve" smooth="yes"/>
      <point x="570" y="450" type="line" smooth="yes"/>
      <point x="584" y="540"/>
      <point x="712" y="614"/>
      <point x="712" y="667" type="curve" smooth="yes"/>
      <point x="712" y="705"/>
      <point x="632" y="779"/>
      <point x="632" y="850" type="curve" smooth="yes"/>
      <point x="632" y="857"/>
      <point x="633" y="863"/>
      <point x="634" y="870" type="curve" smooth="yes"/>
      <point x="732" y="1511" type="line" smooth="yes"/>
      <point x="734" y="1526"/>
      <point x="736" y="1540"/>
      <point x="738" y="1554" type="curve" smooth="yes"/>
      <point x="739" y="1560"/>
      <point x="740" y="1565"/>
      <point x="740" y="1571" type="curve"/>
      <point x="741" y="1577"/>
      <point x="741" y="1583"/>
      <point x="741" y="1588" type="curve" smooth="yes"/>
      <point x="741" y="1689"/>
      <point x="664" y="1764"/>
      <point x="564" y="1764" type="curve" smooth="yes"/>
      <point x="552" y="1764"/>
      <point x="540" y="1764"/>
      <point x="529" y="1764" type="curve" smooth="yes"/>
      <point x="458" y="1764" type="line"/>
      <point x="445" y="1680" type="line"/>
      <point x="551" y="1680" type="line" smooth="yes"/>
      <point x="582" y="1680"/>
      <point x="608" y="1669"/>
      <point x="627" y="1650" type="curve"/>
      <point x="646" y="1632"/>
      <point x="657" y="1606"/>
      <point x="657" y="1575" type="curve" smooth="yes"/>
      <point x="657" y="1568"/>
      <point x="656" y="1561"/>
      <point x="655" y="1554" type="curve" smooth="yes"/>
      <point x="552" y="870" type="line"/>
      <point x="550" y="859"/>
      <point x="549" y="847"/>
      <point x="549" y="836" type="curve" smooth="yes"/>
      <point x="549" y="768"/>
      <point x="588" y="717"/>
      <point x="620" y="660" type="curve"/>
      <point x="562" y="592"/>
      <point x="502" y="540"/>
      <point x="488" y="450" type="curve" smooth="yes"/>
      <point x="482" y="407"/>
      <point x="476" y="364"/>
      <point x="469" y="321" type="curve" smooth="yes"/>
      <point x="384" y="-236" type="line" smooth="yes"/>
      <point x="379" y="-270"/>
      <point x="360" y="-301"/>
      <point x="334" y="-324" type="curve" smooth="yes"/>
      <point x="311" y="-344"/>
      <point x="286" y="-354"/>
      <point x="260" y="-358" type="curve" smooth="yes"/>
      <point x="221" y="-365"/>
      <point x="179" y="-360"/>
      <point x="135" y="-360" type="curve"/>
      <point x="123" y="-444" type="line"/>
    </contour>
  </outline>
</glyph>
<glyph name="asciitilde" format="2">
  <advance width="1179"/>
  <unicode hex="007E"/>
  <outline>
    <contour>
      <point x="761" y="504" type="curve" smooth="yes"/>
      <point x="613" y="504"/>
      <point x="511" y="639"/>
      <point x="393" y="639" type="curve" smooth="yes"/>
      <point x="333" y="639"/>
      <point x="296" y="601"/>
      <point x="296" y="541" type="curve" smooth="yes"/>
      <point x="296" y="533"/>
      <point x="297" y="525"/>
      <point x="299" y="518" type="curve"/>
      <point x="200" y="518" type="line"/>
      <point x="199" y="526"/>
      <point x="199" y="533"/>
      <point x="199" y="541" type="curve" smooth="yes"/>
      <point x="199" y="661"/>
      <point x="296" y="752"/>
      <point x="414" y="752" type="curve" smooth="yes"/>
      <point x="424" y="752"/>
      <point x="434" y="751"/>
      <point x="444" y="750" type="curve" smooth="yes"/>
      <point x="580" y="734"/>
      <point x="674" y="616"/>
      <point x="785" y="616" type="curve" smooth="yes"/>
      <point x="843" y="616"/>
      <point x="882" y="662"/>
      <point x="882" y="719" type="curve" smooth="yes"/>
      <point x="882" y="727"/>
      <point x="881" y="735"/>
      <point x="880" y="743" type="curve"/>
      <point x="979" y="743" type="line"/>
      <point x="980" y="735"/>
      <point x="980" y="726"/>
      <point x="980" y="718" type="curve" smooth="yes"/>
      <point x="980" y="597"/>
      <point x="879" y="504"/>
    </contour>
  </outline>
</glyph>
<glyph name="exclamdown" format="2">
  <advance width="564"/>
  <unicode hex="00A1"/>
  <outline>
    <contour>
      <point x="335" y="1086" type="qcurve" smooth="yes"/>
      <point x="318" y="1086"/>
      <point x="287" y="1072"/>
      <point x="264" y="1048"/>
      <point x="250" y="1017"/>
      <point x="250" y="1000" type="qcurve" smooth="yes"/>
      <point x="250" y="973"/>
      <point x="286" y="939"/>
      <point x="312" y="939" type="qcurve" smooth="yes"/>
      <point x="330" y="939"/>
      <point x="361" y="953"/>
      <point x="384" y="977"/>
      <point x="397" y="1009"/>
      <point x="397" y="1026" type="qcurve" smooth="yes"/>
      <point x="397" y="1052"/>
      <point x="361" y="1086"/>
    </contour>
    <contour>
      <point x="247" y="720" type="line"/>
      <point x="64" y="-360" type="line"/>
      <point x="163" y="-360" type="line"/>
      <point x="306" y="720" type="line"/>
    </contour>
  </outline>
</glyph>
<glyph name="cent" format="2">
  <advance width="1041"/>
  <unicode hex="00A2"/>
  <outline>
    <contour>
      <point x="406" y="-60" type="line"/>
      <point x="435" y="122" type="line"/>
      <point x="179" y="138"/>
      <point x="70" y="316"/>
      <point x="70" y="558" type="curve" smooth="yes"/>
      <point x="70" y="889"/>
      <point x="252" y="1236"/>
      <point x="615" y="1258" type="curve"/>
      <point x="643" y="1440" type="line"/>
      <point x="726" y="1440" type="line"/>
      <point x="697" y="1258" type="line"/>
      <point x="859" y="1246"/>
      <point x="999" y="1157"/>
      <point x="1037" y="992" type="curve"/>
      <point x="953" y="958" type="line"/>
      <point x="913" y="1106"/>
      <point x="788" y="1176"/>
      <point x="641" y="1176" type="curve" smooth="yes"/>
      <point x="468" y="1176"/>
      <point x="337" y="1094"/>
      <point x="254" y="944" type="curve" smooth="yes"/>
      <point x="192" y="833"/>
      <point x="159" y="695"/>
      <point x="159" y="569" type="curve" smooth="yes"/>
      <point x="159" y="352"/>
      <point x="256" y="204"/>
      <point x="487" y="204" type="curve" smooth="yes"/>
      <point x="648" y="204"/>
      <point x="782" y="283"/>
      <point x="866" y="420" type="curve"/>
      <point x="941" y="384" type="line"/>
      <point x="840" y="234"/>
      <point x="701" y="135"/>
      <point x="517" y="122" type="curve"/>
      <point x="488" y="-60" type="line"/>
    </contour>
  </outline>
</glyph>
<glyph name="sterling" format="2">
  <advance width="1107"/>
  <unicode hex="00A3"/>
  <outline>
    <contour>
      <point x="-47" y="0" type="line"/>
      <point x="-34" y="84" type="line"/>
      <point x="16" y="84"/>
      <point x="65" y="84"/>
      <point x="115" y="84" type="curve" smooth="yes"/>
      <point x="191" y="84"/>
      <point x="261" y="148"/>
      <point x="272" y="222" type="curve" smooth="yes"/>
      <point x="411" y="1100" type="line" smooth="yes"/>
      <point x="444" y="1307"/>
      <point x="605" y="1470"/>
      <point x="821" y="1470" type="curve" smooth="yes"/>
      <point x="1029" y="1470"/>
      <point x="1102" y="1299"/>
      <point x="1132" y="1122" type="curve"/>
      <point x="1050" y="1096" type="line"/>
      <point x="1027" y="1238"/>
      <point x="975" y="1386"/>
      <point x="805" y="1386" type="curve" smooth="yes"/>
      <point x="632" y="1386"/>
      <point x="520" y="1264"/>
      <point x="494" y="1100" type="curve" smooth="yes"/>
      <point x="333" y="84" type="line"/>
      <point x="942" y="84" type="line"/>
      <point x="929" y="0" type="line"/>
    </contour>
    <contour>
      <point x="63" y="694" type="line"/>
      <point x="76" y="778" type="line"/>
      <point x="838" y="778" type="line"/>
      <point x="825" y="694" type="line"/>
    </contour>
  </outline>
</glyph>
<glyph name="currency" format="2">
  <advance width="1207"/>
  <unicode hex="00A4"/>
  <outline>
    <contour>
      <point x="572" y="196" type="curve" smooth="yes"/>
      <point x="304" y="196"/>
      <point x="102" y="408"/>
      <point x="102" y="674" type="curve" smooth="yes"/>
      <point x="102" y="976"/>
      <point x="359" y="1246"/>
      <point x="664" y="1246" type="curve" smooth="yes"/>
      <point x="932" y="1246"/>
      <point x="1135" y="1036"/>
      <point x="1135" y="769" type="curve" smooth="yes"/>
      <point x="1135" y="466"/>
      <point x="879" y="196"/>
    </contour>
    <contour>
      <point x="37" y="160" type="line"/>
      <point x="-12" y="220" type="line"/>
      <point x="206" y="412" type="line"/>
      <point x="256" y="352" type="line"/>
    </contour>
    <contour>
      <point x="306" y="1028" type="line"/>
      <point x="146" y="1222" type="line"/>
      <point x="214" y="1280" type="line"/>
      <point x="372" y="1088" type="line"/>
    </contour>
    <contour>
      <point x="1021" y="160" type="line"/>
      <point x="863" y="352" type="line"/>
      <point x="931" y="412" type="line"/>
      <point x="1089" y="220" type="line"/>
    </contour>
    <contour>
      <point x="579" y="280" type="curve" smooth="yes"/>
      <point x="836" y="280"/>
      <point x="1053" y="508"/>
      <point x="1053" y="762" type="curve" smooth="yes"/>
      <point x="1053" y="982"/>
      <point x="878" y="1162"/>
      <point x="657" y="1162" type="curve" smooth="yes"/>
      <point x="396" y="1162"/>
      <point x="184" y="935"/>
      <point x="184" y="677" type="curve" smooth="yes"/>
      <point x="184" y="456"/>
      <point x="358" y="280"/>
    </contour>
    <contour>
      <point x="1027" y="1028" type="line"/>
      <point x="980" y="1088" type="line"/>
      <point x="1198" y="1280" type="line"/>
      <point x="1248" y="1222" type="line"/>
    </contour>
  </outline>
</glyph>
<glyph name="section" format="2">
  <advance width="992"/>
  <unicode hex="00A7"/>
  <outline>
    <contour>
      <point x="370" y="-328" type="curve" smooth="yes"/>
      <point x="185" y="-328"/>
      <point x="14" y="-244"/>
      <point x="2" y="-40" type="curve"/>
      <point x="89" y="-24" type="line"/>
      <point x="106" y="-175"/>
      <point x="246" y="-244"/>
      <point x="385" y="-244" type="curve" smooth="yes"/>
      <point x="541" y="-244"/>
      <point x="711" y="-150"/>
      <point x="711" y="24" type="curve" smooth="yes"/>
      <point x="711" y="52"/>
      <point x="704" y="80"/>
      <point x="686" y="102" type="curve" smooth="yes"/>
      <point x="593" y="218"/>
      <point x="203" y="232"/>
      <point x="91" y="375" type="curve" smooth="yes"/>
      <point x="76" y="394"/>
      <point x="67" y="416"/>
      <point x="62" y="439" type="curve"/>
      <point x="60" y="451"/>
      <point x="59" y="463"/>
      <point x="59" y="475" type="curve" smooth="yes"/>
      <point x="59" y="668"/>
      <point x="235" y="787"/>
      <point x="415" y="787" type="curve" smooth="yes"/>
      <point x="436" y="787"/>
      <point x="456" y="785"/>
      <point x="477" y="782" type="curve"/>
      <point x="469" y="766" type="line"/>
      <point x="338" y="736"/>
      <point x="148" y="654"/>
      <point x="148" y="495" type="curve" smooth="yes"/>
      <point x="148" y="419"/>
      <point x="213" y="378"/>
      <point x="302" y="346" type="curve" smooth="yes"/>
      <point x="451" y="293"/>
      <point x="666" y="269"/>
      <point x="757" y="162" type="curve"/>
      <point x="776" y="141"/>
      <point x="789" y="116"/>
      <point x="796" y="88" type="curve"/>
      <point x="799" y="73"/>
      <point x="801" y="58"/>
      <point x="801" y="41" type="curve" smooth="yes"/>
      <point x="801" y="-200"/>
      <point x="591" y="-328"/>
    </contour>
    <contour>
      <point x="529" y="232" type="curve"/>
      <point x="535" y="256" type="line"/>
      <point x="672" y="256"/>
      <point x="807" y="352"/>
      <point x="827" y="489" type="curve"/>
      <point x="829" y="500"/>
      <point x="830" y="512"/>
      <point x="830" y="524" type="curve" smooth="yes"/>
      <point x="830" y="552"/>
      <point x="823" y="580"/>
      <point x="805" y="602" type="curve" smooth="yes"/>
      <point x="781" y="632"/>
      <point x="735" y="656"/>
      <point x="680" y="676" type="curve" smooth="yes"/>
      <point x="526" y="734"/>
      <point x="292" y="770"/>
      <point x="209" y="875" type="curve"/>
      <point x="201" y="884"/>
      <point x="195" y="895"/>
      <point x="191" y="905" type="curve" smooth="yes"/>
      <point x="182" y="927"/>
      <point x="178" y="951"/>
      <point x="178" y="975" type="curve" smooth="yes"/>
      <point x="178" y="1192"/>
      <point x="401" y="1310"/>
      <point x="594" y="1310" type="curve" smooth="yes"/>
      <point x="771" y="1310"/>
      <point x="939" y="1206"/>
      <point x="939" y="1013" type="curve"/>
      <point x="939" y="1013"/>
      <point x="939" y="1013"/>
      <point x="939" y="1013" type="curve"/>
      <point x="939" y="998" type="line"/>
      <point x="852" y="982" type="line"/>
      <point x="849" y="1144"/>
      <point x="724" y="1226"/>
      <point x="571" y="1226" type="curve" smooth="yes"/>
      <point x="440" y="1226"/>
      <point x="266" y="1148"/>
      <point x="266" y="995" type="curve" smooth="yes"/>
      <point x="266" y="955"/>
      <point x="284" y="925"/>
      <point x="314" y="900" type="curve" smooth="yes"/>
      <point x="360" y="863"/>
      <point x="432" y="840"/>
      <point x="512" y="818" type="curve" smooth="yes"/>
      <point x="657" y="778"/>
      <point x="825" y="744"/>
      <point x="891" y="641" type="curve" smooth="yes"/>
      <point x="909" y="613"/>
      <point x="919" y="581"/>
      <point x="919" y="541" type="curve" smooth="yes"/>
      <point x="919" y="373"/>
      <point x="801" y="215"/>
      <point x="624" y="215" type="curve" smooth="yes"/>
      <point x="613" y="215"/>
      <point x="602" y="216"/>
      <point x="591" y="217" type="curve"/>
      <point x="570" y="220"/>
      <point x="549" y="225"/>
    </contour>
  </outline>
</glyph>
<glyph name="copyright" format="2">
  <advance width="1454"/>
  <unicode hex="00A9"/>
  <outline>
    <contour>
      <point x="673" y="-10" type="curve" smooth="yes"/>
      <point x="321" y="-10"/>
      <point x="57" y="266"/>
      <point x="57" y="615" type="curve" smooth="yes"/>
      <point x="57" y="1014"/>
      <point x="392" y="1366"/>
      <point x="795" y="1366" type="curve" smooth="yes"/>
      <point x="1149" y="1366"/>
      <point x="1412" y="1092"/>
      <point x="1412" y="741" type="curve" smooth="yes"/>
      <point x="1412" y="342"/>
      <point x="1076" y="-10"/>
    </contour>
    <contour>
      <point x="701" y="260" type="curve" smooth="yes"/>
      <point x="649" y="260"/>
      <point x="601" y="270"/>
      <point x="559" y="288" type="curve" smooth="yes"/>
      <point x="464" y="330"/>
      <point x="397" y="415"/>
      <point x="381" y="532" type="curve" smooth="yes"/>
      <point x="377" y="562"/>
      <point x="376" y="593"/>
      <point x="376" y="623" type="curve" smooth="yes"/>
      <point x="376" y="821"/>
      <point x="459" y="1008"/>
      <point x="632" y="1074" type="curve" smooth="yes"/>
      <point x="676" y="1091"/>
      <point x="724" y="1100"/>
      <point x="779" y="1100" type="curve" smooth="yes"/>
      <point x="812" y="1100"/>
      <point x="846" y="1096"/>
      <point x="878" y="1087" type="curve" smooth="yes"/>
      <point x="975" y="1061"/>
      <point x="1058" y="995"/>
      <point x="1078" y="890" type="curve"/>
      <point x="996" y="862" type="line"/>
      <point x="963" y="963"/>
      <point x="874" y="1018"/>
      <point x="770" y="1018" type="curve" smooth="yes"/>
      <point x="555" y="1018"/>
      <point x="467" y="820"/>
      <point x="467" y="632" type="curve" smooth="yes"/>
      <point x="467" y="476"/>
      <point x="534" y="342"/>
      <point x="708" y="342" type="curve" smooth="yes"/>
      <point x="826" y="342"/>
      <point x="904" y="396"/>
      <point x="962" y="496" type="curve"/>
      <point x="1041" y="466" type="line"/>
      <point x="971" y="334"/>
      <point x="850" y="260"/>
    </contour>
    <contour>
      <point x="1323" y="737" type="curve" smooth="yes"/>
      <point x="1323" y="1040"/>
      <point x="1092" y="1278"/>
      <point x="787" y="1278" type="curve" smooth="yes"/>
      <point x="431" y="1278"/>
      <point x="142" y="972"/>
      <point x="142" y="620" type="curve" smooth="yes"/>
      <point x="142" y="315"/>
      <point x="375" y="78"/>
      <point x="681" y="78" type="curve" smooth="yes"/>
      <point x="1033" y="78"/>
      <point x="1323" y="390"/>
    </contour>
  </outline>
</glyph>
<glyph name="ordfeminine" format="2">
  <advance width="590"/>
  <unicode hex="00AA"/>
  <outline>
    <contour>
      <point x="365.8" y="786" type="curve" smooth="yes"/>
      <point x="259" y="786"/>
      <point x="170.8" y="841.2"/>
      <point x="170.8" y="956.4" type="curve" smooth="yes"/>
      <point x="170.8" y="1100.4"/>
      <point x="272.8" y="1149"/>
      <point x="390.4" y="1173" type="curve" smooth="yes"/>
      <point x="418" y="1178.4"/>
      <point x="446.8" y="1183.8"/>
      <point x="474.4" y="1187.4" type="curve" smooth="yes"/>
      <point x="536.8" y="1196.4"/>
      <point x="599.2" y="1202.4"/>
      <point x="661" y="1211.4" type="curve"/>
      <point x="635.8" y="1195.8" type="line"/>
      <point x="638.2" y="1212"/>
      <point x="639.4" y="1228.8"/>
      <point x="639.4" y="1245.6" type="curve" smooth="yes"/>
      <point x="639.4" y="1357.2"/>
      <point x="588.4" y="1402.2"/>
      <point x="478" y="1402.2" type="curve" smooth="yes"/>
      <point x="383.2" y="1402.2"/>
      <point x="319" y="1356"/>
      <point x="287.8" y="1266.6" type="curve"/>
      <point x="222.4" y="1287" type="line"/>
      <point x="262.6" y="1410"/>
      <point x="359.2" y="1470"/>
      <point x="485.8" y="1470" type="curve" smooth="yes"/>
      <point x="587.2" y="1470"/>
      <point x="658" y="1434"/>
      <point x="690.4" y="1357.2" type="curve" smooth="yes"/>
      <point x="704.2" y="1325.4"/>
      <point x="710.8" y="1287.6"/>
      <point x="710.8" y="1245" type="curve" smooth="yes"/>
      <point x="710.8" y="1232.4"/>
      <point x="710.2" y="1220.4"/>
      <point x="707.8" y="1207.8" type="curve"/>
      <point x="644.2" y="804" type="line"/>
      <point x="584.2" y="804" type="line"/>
      <point x="611.2" y="973.8" type="line"/>
      <point x="643.6" y="967.8" type="line"/>
      <point x="596.2" y="850.8"/>
      <point x="491.8" y="786"/>
    </contour>
    <contour>
      <point x="375.4" y="850.2" type="curve" smooth="yes"/>
      <point x="475" y="850.2"/>
      <point x="550.6" y="897"/>
      <point x="592" y="976.8" type="curve" smooth="yes"/>
      <point x="603.4" y="998.4"/>
      <point x="611.8" y="1021.8"/>
      <point x="617.8" y="1048.2" type="curve" smooth="yes"/>
      <point x="626.8" y="1086.6"/>
      <point x="629.8" y="1126.8"/>
      <point x="632.8" y="1166.4" type="curve"/>
      <point x="659.8" y="1147.2" type="line"/>
      <point x="600.4" y="1141.2"/>
      <point x="536.8" y="1135.2"/>
      <point x="473.2" y="1126.2" type="curve" smooth="yes"/>
      <point x="404.2" y="1116"/>
      <point x="318.4" y="1101"/>
      <point x="273.4" y="1054.2" type="curve" smooth="yes"/>
      <point x="252.4" y="1032.6"/>
      <point x="239.2" y="1003.8"/>
      <point x="238.6" y="967.2" type="curve" smooth="yes"/>
      <point x="238.6" y="957.6"/>
      <point x="238.6" y="949.2"/>
      <point x="240.4" y="941.4" type="curve"/>
      <point x="250.6" y="876"/>
      <point x="308.8" y="850.2"/>
    </contour>
    <contour>
      <point x="119.2" y="649.8" type="line"/>
      <point x="131.2" y="726" type="line"/>
      <point x="688.6" y="726" type="line"/>
      <point x="676.6" y="649.8" type="line"/>
    </contour>
  </outline>
</glyph>
<glyph name="guillemotleft" format="2">
  <advance width="953"/>
  <unicode hex="00AB"/>
  <outline>
    <contour>
      <point x="688" y="112" type="line"/>
      <point x="421" y="542" type="line"/>
      <point x="824" y="970" type="line"/>
      <point x="877" y="922" type="line"/>
      <point x="519" y="542" type="line"/>
      <point x="756" y="160" type="line"/>
    </contour>
    <contour>
      <point x="394" y="112" type="line"/>
      <point x="127" y="542" type="line"/>
      <point x="530" y="970" type="line"/>
      <point x="583" y="922" type="line"/>
      <point x="225" y="542" type="line"/>
      <point x="462" y="160" type="line"/>
    </contour>
  </outline>
</glyph>
<glyph name="logicalnot" format="2">
  <advance width="1152"/>
  <unicode hex="00AC"/>
  <outline>
    <contour>
      <point x="928" y="402" type="line"/>
      <point x="968" y="658" type="line"/>
      <point x="110" y="658" type="line"/>
      <point x="123" y="742" type="line"/>
      <point x="1064" y="742" type="line"/>
      <point x="1010" y="402" type="line"/>
    </contour>
  </outline>
</glyph>
<glyph name="registered" format="2">
  <advance width="1157"/>
  <unicode hex="00AE"/>
  <outline>
    <contour>
      <point x="607" y="594" type="curve" smooth="yes"/>
      <point x="367" y="594"/>
      <point x="189" y="779"/>
      <point x="189" y="1018" type="curve" smooth="yes"/>
      <point x="189" y="1288"/>
      <point x="415" y="1524"/>
      <point x="688" y="1524" type="curve" smooth="yes"/>
      <point x="927" y="1524"/>
      <point x="1104" y="1339"/>
      <point x="1104" y="1103" type="curve" smooth="yes"/>
      <point x="1104" y="833"/>
      <point x="880" y="594"/>
    </contour>
    <contour>
      <point x="614" y="678" type="curve" smooth="yes"/>
      <point x="841" y="678"/>
      <point x="1022" y="877"/>
      <point x="1022" y="1099" type="curve" smooth="yes"/>
      <point x="1022" y="1291"/>
      <point x="872" y="1440"/>
      <point x="681" y="1440" type="curve" smooth="yes"/>
      <point x="456" y="1440"/>
      <point x="271" y="1243"/>
      <point x="271" y="1021" type="curve" smooth="yes"/>
      <point x="271" y="827"/>
      <point x="421" y="678"/>
    </contour>
    <contour>
      <point x="453" y="834" type="line"/>
      <point x="526" y="1294" type="line"/>
      <point x="726" y="1294" type="line" smooth="yes"/>
      <point x="796" y="1294"/>
      <point x="852" y="1238"/>
      <point x="852" y="1169" type="curve" smooth="yes"/>
      <point x="852" y="1102"/>
      <point x="802" y="1037"/>
      <point x="742" y="1012" type="curve"/>
      <point x="800" y="834" type="line"/>
      <point x="720" y="834" type="line"/>
      <point x="667" y="998" type="line"/>
      <point x="550" y="998" type="line"/>
      <point x="524" y="834" type="line"/>
    </contour>
    <contour>
      <point x="561" y="1066" type="line"/>
      <point x="688" y="1066" type="line" smooth="yes"/>
      <point x="737" y="1066"/>
      <point x="778" y="1114"/>
      <point x="778" y="1161" type="curve" smooth="yes"/>
      <point x="778" y="1196"/>
      <point x="748" y="1226"/>
      <point x="713" y="1226" type="curve" smooth="yes"/>
      <point x="586" y="1226" type="line"/>
    </contour>
  </outline>
</glyph>
<glyph name="macron" format="2">
  <advance width="892"/>
  <unicode hex="00AF"/>
  <outline>
    <contour>
      <point x="377" y="1680" type="line"/>
      <point x="391" y="1764" type="line"/>
      <point x="861" y="1764" type="line"/>
      <point x="848" y="1680" type="line"/>
    </contour>
  </outline>
</glyph>
<glyph name="degree" format="2">
  <advance width="864"/>
  <unicode hex="00B0"/>
  <outline>
    <contour>
      <point x="449" y="750" type="curve" smooth="yes"/>
      <point x="266" y="750"/>
      <point x="127" y="892"/>
      <point x="127" y="1074" type="curve" smooth="yes"/>
      <point x="127" y="1279"/>
      <point x="305" y="1470"/>
      <point x="513" y="1470" type="curve" smooth="yes"/>
      <point x="695" y="1470"/>
      <point x="836" y="1328"/>
      <point x="836" y="1146" type="curve" smooth="yes"/>
      <point x="836" y="936"/>
      <point x="662" y="750"/>
    </contour>
    <contour>
      <point x="457" y="834" type="curve" smooth="yes"/>
      <point x="619" y="834"/>
      <point x="753" y="977"/>
      <point x="753" y="1137" type="curve" smooth="yes"/>
      <point x="753" y="1274"/>
      <point x="644" y="1386"/>
      <point x="506" y="1386" type="curve" smooth="yes"/>
      <point x="346" y="1386"/>
      <point x="210" y="1241"/>
      <point x="210" y="1083" type="curve" smooth="yes"/>
      <point x="210" y="946"/>
      <point x="319" y="834"/>
    </contour>
  </outline>
</glyph>
<glyph name="twosuperior" format="2">
  <advance width="748"/>
  <unicode hex="00B2"/>
  <outline>
    <contour>
      <point x="74" y="540" type="line"/>
      <point x="88" y="616" type="line"/>
      <point x="563" y="990" type="line" smooth="yes"/>
      <point x="632" y="1044"/>
      <point x="666" y="1109"/>
      <point x="666" y="1197" type="curve" smooth="yes"/>
      <point x="666" y="1301"/>
      <point x="589" y="1382"/>
      <point x="484" y="1382" type="curve" smooth="yes"/>
      <point x="390" y="1382"/>
      <point x="298" y="1316"/>
      <point x="268" y="1228" type="curve"/>
      <point x="191" y="1252" type="line"/>
      <point x="233" y="1374"/>
      <point x="354" y="1460"/>
      <point x="490" y="1460" type="curve" smooth="yes"/>
      <point x="635" y="1460"/>
      <point x="749" y="1352"/>
      <point x="749" y="1205" type="curve" smooth="yes"/>
      <point x="749" y="1086"/>
      <point x="697" y="996"/>
      <point x="604" y="924" type="curve" smooth="yes"/>
      <point x="135" y="560" type="line"/>
      <point x="121" y="620" type="line"/>
      <point x="659" y="620" type="line"/>
      <point x="646" y="540" type="line"/>
    </contour>
  </outline>
</glyph>
<glyph name="threesuperior" format="2">
  <advance width="724"/>
  <unicode hex="00B3"/>
  <outline>
    <contour>
      <point x="343" y="520" type="curve" smooth="yes"/>
      <point x="217" y="520"/>
      <point x="119" y="592"/>
      <point x="90" y="716" type="curve"/>
      <point x="169" y="740" type="line"/>
      <point x="190" y="649"/>
      <point x="258" y="600"/>
      <point x="350" y="600" type="curve" smooth="yes"/>
      <point x="487" y="600"/>
      <point x="566" y="708"/>
      <point x="566" y="838" type="curve" smooth="yes"/>
      <point x="566" y="949"/>
      <point x="499" y="1024"/>
      <point x="386" y="1024" type="curve" smooth="yes"/>
      <point x="349" y="1024"/>
      <point x="313" y="1013"/>
      <point x="279" y="1000" type="curve"/>
      <point x="262" y="1064" type="line"/>
      <point x="696" y="1424" type="line"/>
      <point x="709" y="1362" type="line"/>
      <point x="221" y="1362" type="line"/>
      <point x="234" y="1440" type="line"/>
      <point x="739" y="1440" type="line"/>
      <point x="727" y="1360" type="line"/>
      <point x="340" y="1036" type="line"/>
      <point x="325" y="1090" type="line"/>
      <point x="352" y="1096"/>
      <point x="379" y="1099"/>
      <point x="407" y="1099" type="curve" smooth="yes"/>
      <point x="558" y="1099"/>
      <point x="649" y="992"/>
      <point x="649" y="845" type="curve" smooth="yes"/>
      <point x="649" y="666"/>
      <point x="528" y="520"/>
    </contour>
  </outline>
</glyph>
<glyph name="paragraph" format="2">
  <advance width="1102"/>
  <unicode hex="00B6"/>
  <outline>
    <contour>
      <point x="521" y="-282" type="line"/>
      <point x="657" y="576" type="line"/>
      <point x="598" y="576"/>
      <point x="542" y="575"/>
      <point x="484" y="584" type="curve"/>
      <point x="484" y="584"/>
      <point x="484" y="584"/>
      <point x="484" y="584" type="curve"/>
      <point x="338" y="608"/>
      <point x="246" y="710"/>
      <point x="219" y="843" type="curve" smooth="yes"/>
      <point x="214" y="870"/>
      <point x="211" y="897"/>
      <point x="211" y="926" type="curve" smooth="yes"/>
      <point x="211" y="1083"/>
      <point x="276" y="1224"/>
      <point x="384" y="1319" type="curve" smooth="yes"/>
      <point x="448" y="1375"/>
      <point x="528" y="1415"/>
      <point x="617" y="1432" type="curve"/>
      <point x="647" y="1437"/>
      <point x="678" y="1440"/>
      <point x="710" y="1440" type="curve" smooth="yes"/>
      <point x="876" y="1440" type="line"/>
      <point x="604" y="-282" type="line"/>
    </contour>
    <contour>
      <point x="717" y="-282" type="line"/>
      <point x="990" y="1440" type="line"/>
      <point x="1072" y="1440" type="line"/>
      <point x="800" y="-282" type="line"/>
    </contour>
  </outline>
</glyph>
<glyph name="periodcentered" format="2">
  <advance width="368"/>
  <unicode hex="00B7"/>
  <outline>
    <contour>
      <point x="173" y="550" type="curve" smooth="yes"/>
      <point x="134" y="550"/>
      <point x="104" y="577"/>
      <point x="104" y="617" type="curve" smooth="yes"/>
      <point x="104" y="667"/>
      <point x="148" y="710"/>
      <point x="198" y="710" type="curve" smooth="yes"/>
      <point x="235" y="710"/>
      <point x="263" y="683"/>
      <point x="263" y="646" type="curve" smooth="yes"/>
      <point x="263" y="597"/>
      <point x="224" y="550"/>
    </contour>
  </outline>
</glyph>
<glyph name="cedilla" format="2">
  <advance width="708"/>
  <unicode hex="00B8"/>
  <outline>
    <contour>
      <point x="153" y="-478" type="qcurve" smooth="yes"/>
      <point x="124" y="-478"/>
      <point x="66" y="-464"/>
      <point x="40" y="-450" type="qcurve"/>
      <point x="79" y="-376" type="line"/>
      <point x="98" y="-384"/>
      <point x="139" y="-396"/>
      <point x="160" y="-396" type="qcurve" smooth="yes"/>
      <point x="183" y="-396"/>
      <point x="222" y="-378"/>
      <point x="251" y="-348"/>
      <point x="268" y="-308"/>
      <point x="268" y="-285" type="qcurve" smooth="yes"/>
      <point x="268" y="-264"/>
      <point x="244" y="-233"/>
      <point x="210" y="-212"/>
      <point x="170" y="-198"/>
      <point x="153" y="-192" type="qcurve"/>
      <point x="260" y="14" type="line"/>
      <point x="343" y="14" type="line"/>
      <point x="261" y="-142" type="line"/>
      <point x="303" y="-161"/>
      <point x="356" y="-225"/>
      <point x="356" y="-273" type="qcurve" smooth="yes"/>
      <point x="356" y="-314"/>
      <point x="324" y="-389"/>
      <point x="268" y="-445"/>
      <point x="195" y="-478"/>
    </contour>
  </outline>
</glyph>
<glyph name="onesuperior" format="2">
  <advance width="563"/>
  <unicode hex="00B9"/>
  <outline>
    <contour>
      <point x="258" y="540" type="line"/>
      <point x="386" y="1348" type="line"/>
      <point x="203" y="1246" type="line"/>
      <point x="218" y="1338" type="line"/>
      <point x="400" y="1440" type="line"/>
      <point x="481" y="1440" type="line"/>
      <point x="338" y="540" type="line"/>
    </contour>
  </outline>
</glyph>
<glyph name="ordmasculine" format="2">
  <advance width="656"/>
  <unicode hex="00BA"/>
  <outline>
    <contour>
      <point x="471" y="786" type="qcurve" smooth="yes"/>
      <point x="405" y="786"/>
      <point x="308" y="832"/>
      <point x="244" y="912"/>
      <point x="214" y="1020"/>
      <point x="214" y="1081" type="qcurve" smooth="yes"/>
      <point x="214" y="1154"/>
      <point x="252" y="1294"/>
      <point x="331" y="1403"/>
      <point x="451" y="1470"/>
      <point x="532" y="1470" type="qcurve" smooth="yes"/>
      <point x="598" y="1470"/>
      <point x="696" y="1424"/>
      <point x="760" y="1345"/>
      <point x="791" y="1238"/>
      <point x="791" y="1177" type="qcurve" smooth="yes"/>
      <point x="791" y="1103"/>
      <point x="752" y="963"/>
      <point x="674" y="853"/>
      <point x="554" y="786"/>
    </contour>
    <contour>
      <point x="477" y="854" type="qcurve" smooth="yes"/>
      <point x="544" y="854"/>
      <point x="637" y="911"/>
      <point x="694" y="1002"/>
      <point x="720" y="1116"/>
      <point x="720" y="1174" type="qcurve" smooth="yes"/>
      <point x="720" y="1222"/>
      <point x="699" y="1305"/>
      <point x="653" y="1366"/>
      <point x="579" y="1402"/>
      <point x="526" y="1402" type="qcurve" smooth="yes"/>
      <point x="459" y="1402"/>
      <point x="367" y="1345"/>
      <point x="310" y="1255"/>
      <point x="284" y="1142"/>
      <point x="284" y="1085" type="qcurve" smooth="yes"/>
      <point x="284" y="1038"/>
      <point x="305" y="954"/>
      <point x="351" y="891"/>
      <point x="425" y="854"/>
    </contour>
    <contour>
      <point x="150" y="649" type="line"/>
      <point x="162" y="725" type="line"/>
      <point x="719" y="725" type="line"/>
      <point x="707" y="649" type="line"/>
    </contour>
  </outline>
</glyph>
<glyph name="onehalf" format="2">
  <advance width="1704"/>
  <unicode hex="00BD"/>
  <outline>
    <contour>
      <point x="258" y="540" type="line"/>
      <point x="386" y="1348" type="line"/>
      <point x="203" y="1246" type="line"/>
      <point x="218" y="1338" type="line"/>
      <point x="400" y="1440" type="line"/>
      <point x="481" y="1440" type="line"/>
      <point x="338" y="540" type="line"/>
    </contour>
    <contour>
      <point x="944" y="0" type="line"/>
      <point x="958" y="76" type="line"/>
      <point x="1433" y="450" type="line" smooth="yes"/>
      <point x="1502" y="505"/>
      <point x="1537" y="567"/>
      <point x="1537" y="657" type="curve" smooth="yes"/>
      <point x="1537" y="761"/>
      <point x="1461" y="842"/>
      <point x="1355" y="842" type="curve" smooth="yes"/>
      <point x="1258" y="842"/>
      <point x="1162" y="771"/>
      <point x="1135" y="679" type="curve"/>
      <point x="1058" y="703" type="line"/>
      <point x="1098" y="830"/>
      <point x="1222" y="920"/>
      <point x="1361" y="920" type="curve" smooth="yes"/>
      <point x="1506" y="920"/>
      <point x="1620" y="812"/>
      <point x="1620" y="665" type="curve" smooth="yes"/>
      <point x="1620" y="546"/>
      <point x="1568" y="456"/>
      <point x="1475" y="384" type="curve" smooth="yes"/>
      <point x="1006" y="20" type="line"/>
      <point x="992" y="80" type="line"/>
      <point x="1529" y="80" type="line"/>
      <point x="1517" y="0" type="line"/>
    </contour>
    <contour>
      <point x="168" y="0" type="line"/>
      <point x="105" y="60" type="line"/>
      <point x="1396" y="1440" type="line"/>
      <point x="1457" y="1382" type="line"/>
    </contour>
  </outline>
</glyph>
<glyph name="questiondown" format="2">
  <advance width="1008"/>
  <unicode hex="00BF"/>
  <outline>
    <contour>
      <point x="787" y="475" type="curve"/>
      <point x="773" y="391" type="line"/>
      <point x="732" y="391" type="line" smooth="yes"/>
      <point x="686" y="391"/>
      <point x="642" y="387"/>
      <point x="601" y="380" type="curve"/>
      <point x="437" y="349"/>
      <point x="319" y="253"/>
      <point x="288" y="58" type="curve" smooth="yes"/>
      <point x="285" y="36"/>
      <point x="282" y="15"/>
      <point x="282" y="-7" type="curve" smooth="yes"/>
      <point x="282" y="-207"/>
      <point x="438" y="-306"/>
      <point x="622" y="-306" type="curve" smooth="yes"/>
      <point x="867" y="-306"/>
      <point x="1002" y="-205"/>
      <point x="1104" y="14" type="curve"/>
      <point x="1180" y="-2" type="line"/>
      <point x="1075" y="-258"/>
      <point x="887" y="-390"/>
      <point x="609" y="-390" type="curve" smooth="yes"/>
      <point x="381" y="-390"/>
      <point x="198" y="-261"/>
      <point x="198" y="-18" type="curve" smooth="yes"/>
      <point x="198" y="205"/>
      <point x="324" y="386"/>
      <point x="541" y="449" type="curve" smooth="yes"/>
      <point x="622" y="472"/>
      <point x="703" y="475"/>
    </contour>
    <contour>
      <point x="826" y="720" type="line"/>
      <point x="773" y="391" type="line"/>
      <point x="691" y="391" type="line"/>
      <point x="743" y="720" type="line"/>
    </contour>
    <contour>
      <point x="841" y="1086" type="curve" smooth="yes"/>
      <point x="876" y="1086"/>
      <point x="903" y="1061"/>
      <point x="903" y="1026" type="curve" smooth="yes"/>
      <point x="903" y="980"/>
      <point x="865" y="939"/>
      <point x="818" y="939" type="curve" smooth="yes"/>
      <point x="783" y="939"/>
      <point x="756" y="964"/>
      <point x="756" y="1000" type="curve" smooth="yes"/>
      <point x="756" y="1046"/>
      <point x="795" y="1086"/>
    </contour>
  </outline>
</glyph>
<glyph name="Agrave" format="2">
  <advance width="1185"/>
  <unicode hex="00C0"/>
  <outline>
    <component base="A"/>
    <contour>
      <point x="691" y="1620" type="line"/>
      <point x="638" y="1890" type="line"/>
      <point x="732" y="1890" type="line"/>
      <point x="755" y="1620" type="line"/>
    </contour>
  </outline>
</glyph>
<glyph name="Aacute" format="2">
  <advance width="1185"/>
  <unicode hex="00C1"/>
  <outline>
    <contour>
      <point x="842" y="1890" type="line"/>
      <point x="735" y="1620" type="line"/>
      <point x="799" y="1620" type="line"/>
      <point x="936" y="1890" type="line"/>
    </contour>
    <contour>
      <point x="-65" y="0" type="line"/>
      <point x="677" y="1440" type="line"/>
      <point x="765" y="1440" type="line"/>
      <point x="1050" y="0" type="line"/>
      <point x="962" y="0" type="line"/>
      <point x="684" y="1402" type="line"/>
      <point x="743" y="1402" type="line"/>
      <point x="23" y="0" type="line"/>
    </contour>
    <contour>
      <point x="190" y="374" type="line"/>
      <point x="203" y="454" type="line"/>
      <point x="924" y="454" type="line"/>
      <point x="912" y="374" type="line"/>
    </contour>
  </outline>
</glyph>
<glyph name="Atilde" format="2">
  <advance width="1185"/>
  <unicode hex="00C3"/>
  <outline>
    <contour>
      <point x="894" y="1670" type="curve" smooth="yes"/>
      <point x="789" y="1670"/>
      <point x="715" y="1766"/>
      <point x="632" y="1766" type="curve" smooth="yes"/>
      <point x="584" y="1766"/>
      <point x="556" y="1726"/>
      <point x="566" y="1680" type="curve"/>
      <point x="495" y="1680" type="line"/>
      <point x="494" y="1686"/>
      <point x="494" y="1692"/>
      <point x="494" y="1699" type="curve" smooth="yes"/>
      <point x="494" y="1783"/>
      <point x="564" y="1846"/>
      <point x="647" y="1846" type="curve" smooth="yes"/>
      <point x="654" y="1846"/>
      <point x="661" y="1846"/>
      <point x="668" y="1845" type="curve"/>
      <point x="763" y="1834"/>
      <point x="833" y="1750"/>
      <point x="910" y="1750" type="curve" smooth="yes"/>
      <point x="951" y="1750"/>
      <point x="979" y="1781"/>
      <point x="979" y="1821" type="curve" smooth="yes"/>
      <point x="979" y="1828"/>
      <point x="978" y="1834"/>
      <point x="977" y="1840" type="curve"/>
      <point x="1048" y="1840" type="line"/>
      <point x="1049" y="1834"/>
      <point x="1049" y="1828"/>
      <point x="1049" y="1822" type="curve" smooth="yes"/>
      <point x="1049" y="1737"/>
      <point x="978" y="1670"/>
    </contour>
    <contour>
      <point x="-65" y="0" type="line"/>
      <point x="677" y="1440" type="line"/>
      <point x="765" y="1440" type="line"/>
      <point x="1050" y="0" type="line"/>
      <point x="962" y="0" type="line"/>
      <point x="684" y="1402" type="line"/>
      <point x="743" y="1402" type="line"/>
      <point x="23" y="0" type="line"/>
    </contour>
    <contour>
      <point x="190" y="374" type="line"/>
      <point x="203" y="454" type="line"/>
      <point x="924" y="454" type="line"/>
      <point x="912" y="374" type="line"/>
    </contour>
  </outline>
</glyph>
<glyph name="Aring" format="2">
  <advance width="1185"/>
  <unicode hex="00C5"/>
  <outline>
    <contour>
      <point x="741" y="1560" type="curve" smooth="yes"/>
      <point x="648" y="1560"/>
      <point x="579" y="1630"/>
      <point x="579" y="1723" type="curve" smooth="yes"/>
      <point x="579" y="1839"/>
      <point x="685" y="1948"/>
      <point x="802" y="1948" type="curve" smooth="yes"/>
      <point x="895" y="1948"/>
      <point x="964" y="1878"/>
      <point x="964" y="1785" type="curve" smooth="yes"/>
      <point x="964" y="1667"/>
      <point x="859" y="1560"/>
    </contour>
    <contour>
      <point x="754" y="1644" type="curve" smooth="yes"/>
      <point x="823" y="1644"/>
      <point x="881" y="1705"/>
      <point x="881" y="1773" type="curve" smooth="yes"/>
      <point x="881" y="1827"/>
      <point x="842" y="1864"/>
      <point x="789" y="1864" type="curve" smooth="yes"/>
      <point x="721" y="1864"/>
      <point x="663" y="1803"/>
      <point x="663" y="1736" type="curve" smooth="yes"/>
      <point x="663" y="1684"/>
      <point x="702" y="1644"/>
    </contour>
    <contour>
      <point x="-65" y="0" type="line"/>
      <point x="677" y="1440" type="line"/>
      <point x="765" y="1440" type="line"/>
      <point x="1050" y="0" type="line"/>
      <point x="962" y="0" type="line"/>
      <point x="684" y="1402" type="line"/>
      <point x="743" y="1402" type="line"/>
      <point x="23" y="0" type="line"/>
    </contour>
    <contour>
      <point x="190" y="374" type="line"/>
      <point x="203" y="454" type="line"/>
      <point x="924" y="454" type="line"/>
      <point x="912" y="374" type="line"/>
    </contour>
  </outline>
</glyph>
<glyph name="Ccedilla" format="2">
  <advance width="1357"/>
  <unicode hex="00C7"/>
  <outline>
    <contour>
      <point x="420" y="-478" type="qcurve" smooth="yes"/>
      <point x="390" y="-478"/>
      <point x="334" y="-463"/>
      <point x="307" y="-450" type="qcurve"/>
      <point x="346" y="-376" type="line"/>
      <point x="365" y="-384"/>
      <point x="406" y="-396"/>
      <point x="427" y="-396" type="qcurve" smooth="yes"/>
      <point x="450" y="-396"/>
      <point x="489" y="-378"/>
      <point x="518" y="-348"/>
      <point x="535" y="-308"/>
      <point x="535" y="-285" type="qcurve" smooth="yes"/>
      <point x="535" y="-264"/>
      <point x="512" y="-233"/>
      <point x="477" y="-212"/>
      <point x="438" y="-198"/>
      <point x="421" y="-192" type="qcurve"/>
      <point x="528" y="14" type="line"/>
      <point x="610" y="14" type="line"/>
      <point x="528" y="-142" type="line"/>
      <point x="570" y="-161"/>
      <point x="623" y="-225"/>
      <point x="623" y="-273" type="qcurve" smooth="yes"/>
      <point x="623" y="-314"/>
      <point x="591" y="-389"/>
      <point x="535" y="-445"/>
      <point x="462" y="-478"/>
    </contour>
    <contour>
      <point x="633" y="-30" type="qcurve" smooth="yes"/>
      <point x="486" y="-30"/>
      <point x="270" y="66"/>
      <point x="130" y="236"/>
      <point x="62" y="470"/>
      <point x="62" y="608" type="qcurve" smooth="yes"/>
      <point x="62" y="718"/>
      <point x="98" y="931"/>
      <point x="172" y="1123"/>
      <point x="287" y="1285"/>
      <point x="443" y="1403"/>
      <point x="644" y="1470"/>
      <point x="767" y="1470" type="qcurve" smooth="yes"/>
      <point x="883" y="1470"/>
      <point x="1075" y="1406"/>
      <point x="1218" y="1283"/>
      <point x="1310" y="1104"/>
      <point x="1325" y="988" type="qcurve"/>
      <point x="1238" y="968" type="line"/>
      <point x="1224" y="1067"/>
      <point x="1146" y="1222"/>
      <point x="1023" y="1330"/>
      <point x="858" y="1386"/>
      <point x="758" y="1386" type="qcurve" smooth="yes"/>
      <point x="650" y="1386"/>
      <point x="475" y="1324"/>
      <point x="340" y="1215"/>
      <point x="243" y="1067"/>
      <point x="180" y="895"/>
      <point x="150" y="706"/>
      <point x="150" y="612" type="qcurve" smooth="yes"/>
      <point x="150" y="494"/>
      <point x="208" y="290"/>
      <point x="328" y="140"/>
      <point x="513" y="54"/>
      <point x="641" y="54" type="qcurve" smooth="yes"/>
      <point x="743" y="54"/>
      <point x="918" y="113"/>
      <point x="1058" y="221"/>
      <point x="1162" y="376"/>
      <point x="1193" y="472" type="qcurve"/>
      <point x="1278" y="452" type="line"/>
      <point x="1242" y="340"/>
      <point x="1120" y="162"/>
      <point x="956" y="37"/>
      <point x="752" y="-30"/>
    </contour>
  </outline>
</glyph>
<glyph name="Egrave" format="2">
  <advance width="1073"/>
  <unicode hex="00C8"/>
  <outline>
    <contour>
      <point x="748" y="1890" type="line"/>
      <point x="654" y="1890" type="line"/>
      <point x="705" y="1620" type="line"/>
      <point x="770" y="1620" type="line"/>
    </contour>
    <contour>
      <point x="23" y="0" type="line"/>
      <point x="251" y="1440" type="line"/>
      <point x="1114" y="1440" type="line"/>
      <point x="1100" y="1356" type="line"/>
      <point x="320" y="1356" type="line"/>
      <point x="226" y="762" type="line"/>
      <point x="889" y="762" type="line"/>
      <point x="875" y="678" type="line"/>
      <point x="213" y="678" type="line"/>
      <point x="119" y="84" type="line"/>
      <point x="899" y="84" type="line"/>
      <point x="886" y="0" type="line"/>
    </contour>
  </outline>
</glyph>
<glyph name="Iacute" format="2">
  <advance width="363"/>
  <unicode hex="00CD"/>
  <outline>
    <contour>
      <point x="319" y="1620" type="line"/>
      <point x="426" y="1890" type="line"/>
      <point x="520" y="1890" type="line"/>
      <point x="384" y="1620" type="line"/>
    </contour>
    <contour>
      <point x="41" y="0" type="line"/>
      <point x="269" y="1440" type="line"/>
      <point x="351" y="1440" type="line"/>
      <point x="123" y="0" type="line"/>
    </contour>
  </outline>
</glyph>
<glyph name="Icircumflex" format="2">
  <advance width="363"/>
  <unicode hex="00CE"/>
  <outline>
    <contour>
      <point x="297" y="1620" type="line"/>
      <point x="531" y="1860" type="line"/>
      <point x="621" y="1860" type="line"/>
      <point x="779" y="1620" type="line"/>
      <point x="681" y="1620" type="line"/>
      <point x="565" y="1790" type="line"/>
      <point x="395" y="1620" type="line"/>
    </contour>
    <contour>
      <point x="240" y="0" type="line"/>
      <point x="468" y="1440" type="line"/>
      <point x="551" y="1440" type="line"/>
      <point x="323" y="0" type="line"/>
    </contour>
  </outline>
</glyph>
<glyph name="Eth" format="2">
  <advance width="1246"/>
  <unicode hex="00D0"/>
  <outline>
    <contour>
      <point x="25" y="678" type="line"/>
      <point x="38" y="762" type="line"/>
      <point x="626" y="762" type="line"/>
      <point x="613" y="678" type="line"/>
    </contour>
    <contour>
      <point x="14" y="0" type="line"/>
      <point x="242" y="1440" type="line"/>
      <point x="655" y="1440" type="line" smooth="yes"/>
      <point x="717" y="1440"/>
      <point x="780" y="1440"/>
      <point x="842" y="1430" type="curve" smooth="yes"/>
      <point x="1117" y="1385"/>
      <point x="1205" y="1157"/>
      <point x="1205" y="905" type="curve" smooth="yes"/>
      <point x="1205" y="537"/>
      <point x="1029" y="71"/>
      <point x="617" y="10" type="curve" smooth="yes"/>
      <point x="554" y="1"/>
      <point x="490" y="0"/>
      <point x="427" y="0" type="curve" smooth="yes"/>
    </contour>
    <contour>
      <point x="115" y="84" type="line"/>
      <point x="441" y="84" type="line" smooth="yes"/>
      <point x="597" y="84"/>
      <point x="735" y="101"/>
      <point x="858" y="206" type="curve" smooth="yes"/>
      <point x="1041" y="363"/>
      <point x="1117" y="670"/>
      <point x="1117" y="903" type="curve" smooth="yes"/>
      <point x="1117" y="1120"/>
      <point x="1050" y="1300"/>
      <point x="815" y="1344" type="curve" smooth="yes"/>
      <point x="758" y="1355"/>
      <point x="699" y="1356"/>
      <point x="642" y="1356" type="curve" smooth="yes"/>
      <point x="317" y="1356" type="line"/>
    </contour>
  </outline>
</glyph>
<glyph name="Ntilde" format="2">
  <advance width="1269"/>
  <unicode hex="00D1"/>
  <outline>
    <contour>
      <point x="956" y="1620" type="qcurve" smooth="yes"/>
      <point x="917" y="1620"/>
      <point x="849" y="1650"/>
      <point x="786" y="1686"/>
      <point x="725" y="1716"/>
      <point x="695" y="1716" type="qcurve" smooth="yes"/>
      <point x="677" y="1716"/>
      <point x="649" y="1702"/>
      <point x="631" y="1678"/>
      <point x="625" y="1647"/>
      <point x="628" y="1630" type="qcurve"/>
      <point x="558" y="1630" type="line"/>
      <point x="557" y="1635"/>
      <point x="557" y="1644"/>
      <point x="557" y="1649" type="qcurve" smooth="yes"/>
      <point x="557" y="1680"/>
      <point x="581" y="1734"/>
      <point x="623" y="1773"/>
      <point x="678" y="1796"/>
      <point x="709" y="1796" type="qcurve" smooth="yes"/>
      <point x="749" y="1796"/>
      <point x="818" y="1766"/>
      <point x="881" y="1730"/>
      <point x="942" y="1700"/>
      <point x="973" y="1700" type="qcurve" smooth="yes"/>
      <point x="992" y="1700"/>
      <point x="1020" y="1715"/>
      <point x="1037" y="1740"/>
      <point x="1043" y="1773"/>
      <point x="1040" y="1790" type="qcurve"/>
      <point x="1110" y="1790" type="line"/>
      <point x="1111" y="1785"/>
      <point x="1111" y="1777"/>
      <point x="1111" y="1772" type="qcurve" smooth="yes"/>
      <point x="1111" y="1740"/>
      <point x="1086" y="1685"/>
      <point x="1044" y="1644"/>
      <point x="988" y="1620"/>
    </contour>
    <contour>
      <point x="23" y="0" type="line"/>
      <point x="251" y="1440" type="line"/>
      <point x="334" y="1440" type="line"/>
      <point x="988" y="150" type="line"/>
      <point x="1192" y="1440" type="line"/>
      <point x="1274" y="1440" type="line"/>
      <point x="1046" y="0" type="line"/>
      <point x="964" y="0" type="line"/>
      <point x="310" y="1292" type="line"/>
      <point x="106" y="0" type="line"/>
    </contour>
  </outline>
</glyph>
<glyph name="Ograve" format="2">
  <advance width="1371"/>
  <unicode hex="00D2"/>
  <outline>
    <component base="O"/>
    <contour>
      <point x="770" y="1890" type="line"/>
      <point x="676" y="1890" type="line"/>
      <point x="727" y="1620" type="line"/>
      <point x="792" y="1620" type="line"/>
    </contour>
  </outline>
</glyph>
<glyph name="Oacute" format="2">
  <advance width="1371"/>
  <unicode hex="00D3"/>
  <outline>
    <component base="O"/>
    <contour>
      <point x="870" y="1890" type="line"/>
      <point x="762" y="1620" type="line"/>
      <point x="827" y="1620" type="line"/>
      <point x="964" y="1890" type="line"/>
    </contour>
  </outline>
</glyph>
<glyph name="Ocircumflex" format="2">
  <advance width="1371"/>
  <unicode hex="00D4"/>
  <outline>
    <component base="O"/>
    <contour>
      <point x="521" y="1620" type="line"/>
      <point x="755" y="1860" type="line"/>
      <point x="846" y="1860" type="line"/>
      <point x="1004" y="1620" type="line"/>
      <point x="906" y="1620" type="line"/>
      <point x="789" y="1790" type="line"/>
      <point x="619" y="1620" type="line"/>
    </contour>
  </outline>
</glyph>
<glyph name="Oslash" format="2">
  <advance width="1382"/>
  <unicode hex="00D8"/>
  <outline>
    <contour>
      <point x="-35" y="-26" type="qcurve"/>
      <point x="-86" y="32" type="line"/>
      <point x="-22" y="92"/>
      <point x="105" y="210"/>
      <point x="170" y="270" type="qcurve" smooth="yes"/>
      <point x="183" y="282"/>
      <point x="208" y="305"/>
      <point x="221" y="317" type="qcurve" smooth="yes"/>
      <point x="453" y="532"/>
      <point x="911" y="957"/>
      <point x="1142" y="1173" type="qcurve" smooth="yes"/>
      <point x="1155" y="1185"/>
      <point x="1180" y="1208"/>
      <point x="1193" y="1220" type="qcurve" smooth="yes"/>
      <point x="1257" y="1280"/>
      <point x="1384" y="1399"/>
      <point x="1448" y="1459" type="qcurve"/>
      <point x="1500" y="1404" type="line"/>
      <point x="1423" y="1332"/>
      <point x="1271" y="1189"/>
      <point x="1194" y="1117" type="qcurve" smooth="yes"/>
      <point x="1181" y="1105"/>
      <point x="1156" y="1081"/>
      <point x="1143" y="1069" type="qcurve" smooth="yes"/>
      <point x="912" y="852"/>
      <point x="453" y="427"/>
      <point x="221" y="212" type="qcurve" smooth="yes"/>
      <point x="208" y="200"/>
      <point x="183" y="176"/>
      <point x="170" y="164" type="qcurve" smooth="yes"/>
      <point x="119" y="116"/>
      <point x="16" y="22"/>
    </contour>
    <contour>
      <point x="638" y="-30" type="qcurve" smooth="yes"/>
      <point x="491" y="-30"/>
      <point x="276" y="65"/>
      <point x="135" y="235"/>
      <point x="67" y="469"/>
      <point x="67" y="608" type="qcurve" smooth="yes"/>
      <point x="67" y="718"/>
      <point x="103" y="932"/>
      <point x="177" y="1123"/>
      <point x="292" y="1285"/>
      <point x="448" y="1404"/>
      <point x="649" y="1470"/>
      <point x="772" y="1470" type="qcurve" smooth="yes"/>
      <point x="919" y="1470"/>
      <point x="1134" y="1375"/>
      <point x="1275" y="1205"/>
      <point x="1343" y="971"/>
      <point x="1343" y="832" type="qcurve" smooth="yes"/>
      <point x="1343" y="722"/>
      <point x="1307" y="509"/>
      <point x="1232" y="317"/>
      <point x="1118" y="155"/>
      <point x="961" y="37"/>
      <point x="761" y="-30"/>
    </contour>
    <contour>
      <point x="646" y="54" type="qcurve" smooth="yes"/>
      <point x="754" y="54"/>
      <point x="928" y="115"/>
      <point x="1063" y="222"/>
      <point x="1161" y="367"/>
      <point x="1224" y="538"/>
      <point x="1254" y="725"/>
      <point x="1254" y="820" type="qcurve" smooth="yes"/>
      <point x="1254" y="940"/>
      <point x="1198" y="1147"/>
      <point x="1079" y="1299"/>
      <point x="893" y="1386"/>
      <point x="763" y="1386" type="qcurve" smooth="yes"/>
      <point x="655" y="1386"/>
      <point x="481" y="1324"/>
      <point x="346" y="1215"/>
      <point x="248" y="1068"/>
      <point x="185" y="896"/>
      <point x="155" y="707"/>
      <point x="155" y="612" type="qcurve" smooth="yes"/>
      <point x="155" y="493"/>
      <point x="213" y="289"/>
      <point x="333" y="139"/>
      <point x="518" y="54"/>
    </contour>
  </outline>
</glyph>
<glyph name="Ucircumflex" format="2">
  <advance width="1324"/>
  <unicode hex="00DB"/>
  <outline>
    <contour>
      <point x="578" y="1620" type="line"/>
      <point x="812" y="1860" type="line"/>
      <point x="902" y="1860" type="line"/>
      <point x="1060" y="1620" type="line"/>
      <point x="962" y="1620" type="line"/>
      <point x="846" y="1790" type="line"/>
      <point x="676" y="1620" type="line"/>
    </contour>
    <contour>
      <point x="557" y="-30" type="curve" smooth="yes"/>
      <point x="292" y="-30"/>
      <point x="95" y="129"/>
      <point x="95" y="404" type="curve" smooth="yes"/>
      <point x="95" y="440"/>
      <point x="98" y="475"/>
      <point x="104" y="510" type="curve" smooth="yes"/>
      <point x="251" y="1440" type="line"/>
      <point x="334" y="1440" type="line"/>
      <point x="191" y="538" type="line" smooth="yes"/>
      <point x="186" y="503"/>
      <point x="182" y="468"/>
      <point x="182" y="433" type="curve" smooth="yes"/>
      <point x="182" y="209"/>
      <point x="346" y="50"/>
      <point x="570" y="50" type="curve" smooth="yes"/>
      <point x="754" y="50"/>
      <point x="927" y="158"/>
      <point x="1024" y="312" type="curve" smooth="yes"/>
      <point x="1053" y="357"/>
      <point x="1073" y="408"/>
      <point x="1087" y="459" type="curve" smooth="yes"/>
      <point x="1094" y="485"/>
      <point x="1100" y="512"/>
      <point x="1104" y="538" type="curve" smooth="yes"/>
      <point x="1247" y="1440" type="line"/>
      <point x="1329" y="1440" type="line"/>
      <point x="1182" y="510" type="line" smooth="yes"/>
      <point x="1132" y="194"/>
      <point x="879" y="-30"/>
    </contour>
  </outline>
</glyph>
<glyph name="Thorn" format="2">
  <advance width="1099"/>
  <unicode hex="00DE"/>
  <outline>
    <contour>
      <point x="23" y="0" type="line"/>
      <point x="251" y="1440" type="line"/>
      <point x="334" y="1440" type="line"/>
      <point x="288" y="1152" type="line"/>
      <point x="705" y="1152" type="line" smooth="yes"/>
      <point x="912" y="1152"/>
      <point x="1065" y="994"/>
      <point x="1065" y="789" type="curve" smooth="yes"/>
      <point x="1065" y="530"/>
      <point x="829" y="288"/>
      <point x="569" y="288" type="curve" smooth="yes"/>
      <point x="151" y="288" type="line"/>
      <point x="106" y="0" type="line"/>
    </contour>
    <contour>
      <point x="164" y="372" type="line"/>
      <point x="582" y="372" type="line" smooth="yes"/>
      <point x="730" y="372"/>
      <point x="865" y="475"/>
      <point x="933" y="601" type="curve" smooth="yes"/>
      <point x="963" y="657"/>
      <point x="976" y="713"/>
      <point x="976" y="776" type="curve" smooth="yes"/>
      <point x="976" y="939"/>
      <point x="858" y="1068"/>
      <point x="692" y="1068" type="curve" smooth="yes"/>
      <point x="275" y="1068" type="line"/>
    </contour>
  </outline>
</glyph>
<glyph name="germandbls" format="2">
  <advance width="1071"/>
  <unicode hex="00DF"/>
  <outline>
    <contour>
      <point x="437" y="-28" type="qcurve" smooth="yes"/>
      <point x="394" y="-28"/>
      <point x="308" y="-18"/>
      <point x="269" y="0" type="qcurve"/>
      <point x="283" y="84" type="line"/>
      <point x="326" y="68"/>
      <point x="406" y="58"/>
      <point x="451" y="58" type="qcurve" smooth="yes"/>
      <point x="531" y="58"/>
      <point x="665" y="107"/>
      <point x="767" y="197"/>
      <point x="833" y="324"/>
      <point x="845" y="402" type="qcurve" smooth="yes"/>
      <point x="847" y="416"/>
      <point x="849" y="442"/>
      <point x="849" y="456" type="qcurve" smooth="yes"/>
      <point x="849" y="530"/>
      <point x="787" y="632"/>
      <point x="687" y="696"/>
      <point x="562" y="727"/>
      <point x="499" y="728" type="qcurve"/>
      <point x="512" y="812" type="line"/>
      <point x="577" y="820"/>
      <point x="685" y="867"/>
      <point x="768" y="941"/>
      <point x="822" y="1041"/>
      <point x="831" y="1102" type="qcurve" smooth="yes"/>
      <point x="833" y="1118"/>
      <point x="836" y="1149"/>
      <point x="836" y="1166" type="qcurve" smooth="yes"/>
      <point x="836" y="1220"/>
      <point x="803" y="1303"/>
      <point x="743" y="1358"/>
      <point x="658" y="1386"/>
      <point x="605" y="1386" type="qcurve" smooth="yes"/>
      <point x="561" y="1386"/>
      <point x="477" y="1364"/>
      <point x="439" y="1344" type="qcurve" smooth="yes"/>
      <point x="397" y="1321"/>
      <point x="340" y="1253"/>
      <point x="303" y="1174"/>
      <point x="282" y="1086"/>
      <point x="275" y="1042" type="qcurve" smooth="yes"/>
      <point x="110" y="0" type="line"/>
      <point x="23" y="0" type="line"/>
      <point x="192" y="1064" type="line" smooth="yes"/>
      <point x="206" y="1153"/>
      <point x="271" y="1302"/>
      <point x="375" y="1410"/>
      <point x="520" y="1470"/>
      <point x="616" y="1470" type="qcurve" smooth="yes"/>
      <point x="684" y="1470"/>
      <point x="797" y="1435"/>
      <point x="878" y="1365"/>
      <point x="923" y="1259"/>
      <point x="923" y="1187" type="qcurve" smooth="yes"/>
      <point x="923" y="1173"/>
      <point x="922" y="1145"/>
      <point x="920" y="1131" type="qcurve"/>
      <point x="914" y="1074"/>
      <point x="878" y="963"/>
      <point x="816" y="869"/>
      <point x="728" y="799"/>
      <point x="669" y="784" type="qcurve"/>
      <point x="693" y="782"/>
      <point x="740" y="768"/>
      <point x="762" y="758" type="qcurve" smooth="yes"/>
      <point x="803" y="739"/>
      <point x="867" y="678"/>
      <point x="912" y="604"/>
      <point x="936" y="519"/>
      <point x="936" y="474" type="qcurve" smooth="yes"/>
      <point x="936" y="465"/>
      <point x="936" y="447"/>
      <point x="935" y="438" type="qcurve" smooth="yes"/>
      <point x="934" y="429"/>
      <point x="932" y="411"/>
      <point x="930" y="402" type="qcurve"/>
      <point x="914" y="303"/>
      <point x="832" y="144"/>
      <point x="706" y="32"/>
      <point x="538" y="-28"/>
    </contour>
  </outline>
</glyph>
<glyph name="agrave" format="2">
  <advance width="1013"/>
  <unicode hex="00E0"/>
  <outline>
    <component base="a"/>
    <contour>
      <point x="545" y="1530" type="line"/>
      <point x="454" y="1530" type="line"/>
      <point x="502" y="1260" type="line"/>
      <point x="565" y="1260" type="line"/>
    </contour>
  </outline>
</glyph>
<glyph name="atilde" format="2">
  <advance width="1013"/>
  <unicode hex="00E3"/>
  <outline>
    <component base="a"/>
    <contour>
      <point x="708" y="1240" type="curve" smooth="yes"/>
      <point x="603" y="1240"/>
      <point x="532" y="1336"/>
      <point x="447" y="1336" type="curve" smooth="yes"/>
      <point x="398" y="1336"/>
      <point x="373" y="1296"/>
      <point x="381" y="1250" type="curve"/>
      <point x="310" y="1250" type="line"/>
      <point x="309" y="1256"/>
      <point x="309" y="1262"/>
      <point x="309" y="1268" type="curve" smooth="yes"/>
      <point x="309" y="1353"/>
      <point x="379" y="1416"/>
      <point x="462" y="1416" type="curve" smooth="yes"/>
      <point x="568" y="1416"/>
      <point x="640" y="1320"/>
      <point x="725" y="1320" type="curve" smooth="yes"/>
      <point x="774" y="1320"/>
      <point x="801" y="1365"/>
      <point x="792" y="1410" type="curve"/>
      <point x="863" y="1410" type="line"/>
      <point x="864" y="1404"/>
      <point x="864" y="1398"/>
      <point x="864" y="1392" type="curve" smooth="yes"/>
      <point x="864" y="1306"/>
      <point x="793" y="1240"/>
    </contour>
  </outline>
</glyph>
<glyph name="aring" format="2">
  <advance width="1013"/>
  <unicode hex="00E5"/>
  <outline>
    <component base="a"/>
    <contour>
      <point x="591" y="1200" type="curve" smooth="yes"/>
      <point x="501" y="1200"/>
      <point x="436" y="1270"/>
      <point x="436" y="1359" type="curve" smooth="yes"/>
      <point x="436" y="1474"/>
      <point x="534" y="1588"/>
      <point x="653" y="1588" type="curve" smooth="yes"/>
      <point x="745" y="1588"/>
      <point x="809" y="1516"/>
      <point x="809" y="1426" type="curve" smooth="yes"/>
      <point x="809" y="1311"/>
      <point x="709" y="1200"/>
    </contour>
    <contour>
      <point x="605" y="1284" type="curve" smooth="yes"/>
      <point x="674" y="1284"/>
      <point x="729" y="1347"/>
      <point x="729" y="1413" type="curve" smooth="yes"/>
      <point x="729" y="1465"/>
      <point x="692" y="1504"/>
      <point x="640" y="1504" type="curve" smooth="yes"/>
      <point x="572" y="1504"/>
      <point x="516" y="1441"/>
      <point x="516" y="1375" type="curve" smooth="yes"/>
      <point x="516" y="1324"/>
      <point x="553" y="1284"/>
    </contour>
  </outline>
</glyph>
<glyph name="ae" format="2">
  <advance width="1783"/>
  <unicode hex="00E6"/>
  <outline>
    <contour>
      <point x="1208" y="-30" type="qcurve" smooth="yes"/>
      <point x="1101" y="-30"/>
      <point x="950" y="49"/>
      <point x="855" y="182"/>
      <point x="811" y="357"/>
      <point x="811" y="453" type="qcurve" smooth="yes"/>
      <point x="811" y="531"/>
      <point x="835" y="689"/>
      <point x="887" y="835"/>
      <point x="967" y="962"/>
      <point x="1078" y="1056"/>
      <point x="1223" y="1110"/>
      <point x="1313" y="1110" type="qcurve" smooth="yes"/>
      <point x="1424" y="1110"/>
      <point x="1573" y="1029"/>
      <point x="1663" y="892"/>
      <point x="1701" y="714"/>
      <point x="1701" y="617" type="qcurve" smooth="yes"/>
      <point x="1701" y="591"/>
      <point x="1699" y="542"/>
      <point x="1697" y="516" type="qcurve"/>
      <point x="1616" y="516" type="line"/>
      <point x="1618" y="542"/>
      <point x="1621" y="592"/>
      <point x="1621" y="618" type="qcurve" smooth="yes"/>
      <point x="1621" y="699"/>
      <point x="1590" y="846"/>
      <point x="1516" y="959"/>
      <point x="1393" y="1026"/>
      <point x="1301" y="1026" type="qcurve" smooth="yes"/>
      <point x="1224" y="1026"/>
      <point x="1104" y="978"/>
      <point x="1012" y="895"/>
      <point x="948" y="784"/>
      <point x="908" y="658"/>
      <point x="890" y="523"/>
      <point x="890" y="459" type="qcurve" smooth="yes"/>
      <point x="890" y="379"/>
      <point x="924" y="232"/>
      <point x="1000" y="120"/>
      <point x="1124" y="54"/>
      <point x="1215" y="54" type="qcurve" smooth="yes"/>
      <point x="1344" y="54"/>
      <point x="1532" y="186"/>
      <point x="1590" y="298" type="qcurve"/>
      <point x="1649" y="258" type="line"/>
      <point x="1616" y="192"/>
      <point x="1526" y="86"/>
      <point x="1415" y="11"/>
      <point x="1283" y="-30"/>
    </contour>
    <contour>
      <point x="363" y="54" type="qcurve" smooth="yes"/>
      <point x="488" y="54"/>
      <point x="651" y="136"/>
      <point x="752" y="275"/>
      <point x="803" y="459"/>
      <point x="817" y="560" type="qcurve"/>
      <point x="816" y="520" type="line"/>
      <point x="484" y="520" type="line" smooth="yes"/>
      <point x="414" y="520"/>
      <point x="282" y="503"/>
      <point x="178" y="449"/>
      <point x="115" y="347"/>
      <point x="115" y="261" type="qcurve" smooth="yes"/>
      <point x="115" y="205"/>
      <point x="155" y="126"/>
      <point x="223" y="77"/>
      <point x="313" y="54"/>
    </contour>
    <contour>
      <point x="368" y="-30" type="qcurve" smooth="yes"/>
      <point x="300" y="-30"/>
      <point x="178" y="2"/>
      <point x="86" y="70"/>
      <point x="32" y="177"/>
      <point x="32" y="252" type="qcurve" smooth="yes"/>
      <point x="32" y="323"/>
      <point x="67" y="430"/>
      <point x="129" y="508"/>
      <point x="215" y="558"/>
      <point x="317" y="588"/>
      <point x="432" y="600"/>
      <point x="492" y="600" type="qcurve" smooth="yes"/>
      <point x="822" y="600" type="line"/>
      <point x="819" y="588" type="line"/>
      <point x="823" y="619"/>
      <point x="828" y="680"/>
      <point x="828" y="712" type="qcurve" smooth="yes"/>
      <point x="828" y="786"/>
      <point x="799" y="902"/>
      <point x="733" y="983"/>
      <point x="626" y="1026"/>
      <point x="548" y="1026" type="qcurve" smooth="yes"/>
      <point x="423" y="1026"/>
      <point x="240" y="916"/>
      <point x="200" y="794" type="qcurve"/>
      <point x="120" y="822" type="line"/>
      <point x="142" y="896"/>
      <point x="227" y="1004"/>
      <point x="342" y="1075"/>
      <point x="480" y="1110"/>
      <point x="553" y="1110" type="qcurve" smooth="yes"/>
      <point x="640" y="1110"/>
      <point x="773" y="1062"/>
      <point x="863" y="970"/>
      <point x="910" y="836"/>
      <point x="910" y="749" type="qcurve" smooth="yes"/>
      <point x="910" y="740"/>
      <point x="910" y="722"/>
      <point x="908" y="703"/>
      <point x="907" y="685"/>
      <point x="905" y="676" type="qcurve"/>
      <point x="848" y="300" type="line"/>
      <point x="848" y="299"/>
      <point x="845" y="290"/>
      <point x="840" y="280"/>
      <point x="836" y="271"/>
      <point x="836" y="269" type="qcurve"/>
      <point x="773" y="122"/>
      <point x="529" y="-30"/>
    </contour>
    <contour>
      <point x="858" y="516" type="line"/>
      <point x="871" y="600" type="line"/>
      <point x="1661" y="600" type="line"/>
      <point x="1648" y="516" type="line"/>
    </contour>
  </outline>
</glyph>
<glyph name="ccedilla" format="2">
  <advance width="1012"/>
  <unicode hex="00E7"/>
  <outline>
    <contour>
      <point x="328" y="-478" type="qcurve" smooth="yes"/>
      <point x="299" y="-478"/>
      <point x="244" y="-463"/>
      <point x="218" y="-450" type="qcurve"/>
      <point x="257" y="-376" type="line"/>
      <point x="275" y="-384"/>
      <point x="315" y="-396"/>
      <point x="335" y="-396" type="qcurve" smooth="yes"/>
      <point x="358" y="-396"/>
      <point x="396" y="-378"/>
      <point x="424" y="-347"/>
      <point x="440" y="-307"/>
      <point x="440" y="-284" type="qcurve" smooth="yes"/>
      <point x="440" y="-263"/>
      <point x="418" y="-234"/>
      <point x="385" y="-213"/>
      <point x="347" y="-198"/>
      <point x="330" y="-192" type="qcurve"/>
      <point x="434" y="14" type="line"/>
      <point x="514" y="14" type="line"/>
      <point x="434" y="-142" type="line" smooth="yes"/>
      <point x="424" y="-162"/>
      <point x="450" y="-190"/>
      <point x="489" y="-218"/>
      <point x="525" y="-249"/>
      <point x="525" y="-272" type="qcurve" smooth="yes"/>
      <point x="525" y="-312"/>
      <point x="494" y="-387"/>
      <point x="441" y="-444"/>
      <point x="369" y="-478"/>
    </contour>
    <contour>
      <point x="474" y="-30" type="qcurve" smooth="yes"/>
      <point x="361" y="-30"/>
      <point x="201" y="48"/>
      <point x="100" y="183"/>
      <point x="53" y="364"/>
      <point x="53" y="467" type="qcurve" smooth="yes"/>
      <point x="53" y="587"/>
      <point x="115" y="818"/>
      <point x="244" y="999"/>
      <point x="440" y="1110"/>
      <point x="575" y="1110" type="qcurve" smooth="yes"/>
      <point x="641" y="1110"/>
      <point x="765" y="1076"/>
      <point x="868" y="1009"/>
      <point x="944" y="908"/>
      <point x="963" y="842" type="qcurve"/>
      <point x="884" y="808" type="line"/>
      <point x="867" y="862"/>
      <point x="805" y="944"/>
      <point x="723" y="999"/>
      <point x="623" y="1026"/>
      <point x="567" y="1026" type="qcurve" smooth="yes"/>
      <point x="451" y="1026"/>
      <point x="288" y="927"/>
      <point x="185" y="768"/>
      <point x="138" y="568"/>
      <point x="138" y="468" type="qcurve" smooth="yes"/>
      <point x="138" y="383"/>
      <point x="174" y="233"/>
      <point x="256" y="120"/>
      <point x="387" y="54"/>
      <point x="481" y="54" type="qcurve" smooth="yes"/>
      <point x="598" y="54"/>
      <point x="781" y="167"/>
      <point x="835" y="270" type="qcurve"/>
      <point x="909" y="234" type="line"/>
      <point x="837" y="109"/>
      <point x="620" y="-30"/>
    </contour>
  </outline>
</glyph>
<glyph name="egrave" format="2">
  <advance width="1076"/>
  <unicode hex="00E8"/>
  <outline>
    <component base="e"/>
    <contour>
      <point x="580" y="1530" type="line"/>
      <point x="490" y="1530" type="line"/>
      <point x="537" y="1260" type="line"/>
      <point x="600" y="1260" type="line"/>
    </contour>
  </outline>
</glyph>
<glyph name="eacute" format="2">
  <advance width="1076"/>
  <unicode hex="00E9"/>
  <outline>
    <component base="e"/>
    <contour>
      <point x="663" y="1530" type="line"/>
      <point x="558" y="1260" type="line"/>
      <point x="621" y="1260" type="line"/>
      <point x="754" y="1530" type="line"/>
    </contour>
  </outline>
</glyph>
<glyph name="ecircumflex" format="2">
  <advance width="1076"/>
  <unicode hex="00EA"/>
  <outline>
    <component base="e"/>
    <contour>
      <point x="325" y="1260" type="line"/>
      <point x="553" y="1500" type="line"/>
      <point x="641" y="1500" type="line"/>
      <point x="793" y="1260" type="line"/>
      <point x="698" y="1260" type="line"/>
      <point x="586" y="1430" type="line"/>
      <point x="420" y="1260" type="line"/>
    </contour>
  </outline>
</glyph>
<glyph name="igrave" format="2">
  <advance width="360"/>
  <unicode hex="00EC"/>
  <outline>
    <contour>
      <point x="437" y="1530" type="line"/>
      <point x="347" y="1530" type="line"/>
      <point x="395" y="1260" type="line"/>
      <point x="457" y="1260" type="line"/>
    </contour>
    <contour>
      <point x="199" y="0" type="line"/>
      <point x="370" y="1080" type="line"/>
      <point x="449" y="1080" type="line"/>
      <point x="278" y="0" type="line"/>
    </contour>
  </outline>
</glyph>
<glyph name="iacute" format="2">
  <advance width="361"/>
  <unicode hex="00ED"/>
  <outline>
    <contour>
      <point x="430" y="1530" type="line"/>
      <point x="520" y="1530" type="line"/>
      <point x="387" y="1260" type="line"/>
      <point x="325" y="1260" type="line"/>
    </contour>
    <contour>
      <point x="105" y="0" type="line"/>
      <point x="276" y="1080" type="line"/>
      <point x="355" y="1080" type="line"/>
      <point x="184" y="0" type="line"/>
    </contour>
  </outline>
</glyph>
<glyph name="icircumflex" format="2">
  <advance width="360"/>
  <unicode hex="00EE"/>
  <outline>
    <contour>
      <point x="150" y="1260" type="line"/>
      <point x="378" y="1500" type="line"/>
      <point x="464" y="1500" type="line"/>
      <point x="616" y="1260" type="line"/>
      <point x="521" y="1260" type="line"/>
      <point x="410" y="1430" type="line"/>
      <point x="245" y="1260" type="line"/>
    </contour>
    <contour>
      <point x="144" y="0" type="line"/>
      <point x="315" y="1080" type="line"/>
      <point x="394" y="1080" type="line"/>
      <point x="223" y="0" type="line"/>
    </contour>
  </outline>
</glyph>
<glyph name="eth" format="2">
  <advance width="1075"/>
  <unicode hex="00F0"/>
  <outline>
    <contour>
      <point x="434" y="-30" type="curve" smooth="yes"/>
      <point x="425" y="-30" type="line" smooth="yes"/>
      <point x="170" y="-30"/>
      <point x="40" y="135"/>
      <point x="40" y="382" type="curve" smooth="yes"/>
      <point x="40" y="607"/>
      <point x="140" y="859"/>
      <point x="343" y="975" type="curve" smooth="yes"/>
      <point x="425" y="1021"/>
      <point x="510" y="1038"/>
      <point x="604" y="1038" type="curve" smooth="yes"/>
      <point x="746" y="1038"/>
      <point x="886" y="985"/>
      <point x="950" y="850" type="curve"/>
      <point x="951" y="867"/>
      <point x="951" y="884"/>
      <point x="951" y="901" type="curve" smooth="yes"/>
      <point x="951" y="1170"/>
      <point x="835" y="1362"/>
      <point x="550" y="1384" type="curve"/>
      <point x="572" y="1466" type="line"/>
      <point x="879" y="1448"/>
      <point x="1033" y="1232"/>
      <point x="1033" y="936" type="curve" smooth="yes"/>
      <point x="1033" y="912"/>
      <point x="1032" y="888"/>
      <point x="1031" y="864" type="curve" smooth="yes"/>
      <point x="1025" y="744"/>
      <point x="1004" y="624"/>
      <point x="985" y="506" type="curve" smooth="yes"/>
      <point x="937" y="210"/>
      <point x="754" y="-30"/>
    </contour>
    <contour>
      <point x="447" y="54" type="curve" smooth="yes"/>
      <point x="761" y="54"/>
      <point x="911" y="337"/>
      <point x="911" y="620" type="curve" smooth="yes"/>
      <point x="911" y="820"/>
      <point x="808" y="954"/>
      <point x="599" y="954" type="curve" smooth="yes"/>
      <point x="581" y="954" type="line" smooth="yes"/>
      <point x="271" y="954"/>
      <point x="125" y="665"/>
      <point x="125" y="389" type="curve" smooth="yes"/>
      <point x="125" y="179"/>
      <point x="233" y="54"/>
    </contour>
    <contour>
      <point x="653" y="1158" type="line"/>
      <point x="598" y="1210" type="line"/>
      <point x="918" y="1564" type="line"/>
      <point x="973" y="1512" type="line"/>
    </contour>
  </outline>
</glyph>
<glyph name="ntilde" format="2">
  <advance width="1068"/>
  <unicode hex="00F1"/>
  <outline>
    <contour>
      <point x="764" y="1260" type="curve" smooth="yes"/>
      <point x="664" y="1260"/>
      <point x="591" y="1356"/>
      <point x="512" y="1356" type="curve" smooth="yes"/>
      <point x="464" y="1356"/>
      <point x="439" y="1315"/>
      <point x="447" y="1270" type="curve"/>
      <point x="379" y="1270" type="line"/>
      <point x="379" y="1275"/>
      <point x="378" y="1281"/>
      <point x="378" y="1286" type="curve" smooth="yes"/>
      <point x="378" y="1369"/>
      <point x="444" y="1436"/>
      <point x="527" y="1436" type="curve" smooth="yes"/>
      <point x="533" y="1436"/>
      <point x="540" y="1436"/>
      <point x="546" y="1435" type="curve"/>
      <point x="639" y="1424"/>
      <point x="705" y="1340"/>
      <point x="781" y="1340" type="curve" smooth="yes"/>
      <point x="830" y="1340"/>
      <point x="855" y="1385"/>
      <point x="847" y="1430" type="curve"/>
      <point x="914" y="1430" type="line"/>
      <point x="914" y="1425"/>
      <point x="915" y="1420"/>
      <point x="915" y="1414" type="curve" smooth="yes"/>
      <point x="915" y="1331"/>
      <point x="849" y="1260"/>
    </contour>
    <contour>
      <point x="783" y="0" type="line"/>
      <point x="865" y="520" type="line" smooth="yes"/>
      <point x="873" y="570"/>
      <point x="880" y="619"/>
      <point x="883" y="669" type="curve" smooth="yes"/>
      <point x="884" y="686"/>
      <point x="885" y="702"/>
      <point x="885" y="719" type="curve" smooth="yes"/>
      <point x="885" y="903"/>
      <point x="803" y="1022"/>
      <point x="609" y="1022" type="curve" smooth="yes"/>
      <point x="356" y="1022"/>
      <point x="231" y="817"/>
      <point x="196" y="590" type="curve"/>
      <point x="122" y="588" type="line"/>
      <point x="136" y="676"/>
      <point x="160" y="769"/>
      <point x="203" y="847" type="curve" smooth="yes"/>
      <point x="291" y="1006"/>
      <point x="438" y="1104"/>
      <point x="622" y="1104" type="curve" smooth="yes"/>
      <point x="857" y="1104"/>
      <point x="967" y="945"/>
      <point x="967" y="724" type="curve" smooth="yes"/>
      <point x="967" y="679"/>
      <point x="962" y="633"/>
      <point x="955" y="588" type="curve" smooth="yes"/>
      <point x="862" y="0" type="line"/>
    </contour>
    <contour>
      <point x="23" y="0" type="line"/>
      <point x="194" y="1080" type="line"/>
      <point x="268" y="1080" type="line"/>
      <point x="233" y="860" type="line"/>
      <point x="238" y="860" type="line"/>
      <point x="102" y="0" type="line"/>
    </contour>
  </outline>
</glyph>
<glyph name="ograve" format="2">
  <advance width="1077"/>
  <unicode hex="00F2"/>
  <outline>
    <component base="o"/>
    <contour>
      <point x="552" y="1530" type="line"/>
      <point x="461" y="1530" type="line"/>
      <point x="509" y="1260" type="line"/>
      <point x="572" y="1260" type="line"/>
    </contour>
  </outline>
</glyph>
<glyph name="oacute" format="2">
  <advance width="1077"/>
  <unicode hex="00F3"/>
  <outline>
    <component base="o"/>
    <contour>
      <point x="640" y="1530" type="line"/>
      <point x="535" y="1260" type="line"/>
      <point x="597" y="1260" type="line"/>
      <point x="730" y="1530" type="line"/>
    </contour>
  </outline>
</glyph>
<glyph name="ocircumflex" format="2">
  <advance width="1077"/>
  <unicode hex="00F4"/>
  <outline>
    <component base="o"/>
    <contour>
      <point x="325" y="1260" type="line"/>
      <point x="553" y="1500" type="line"/>
      <point x="640" y="1500" type="line"/>
      <point x="792" y="1260" type="line"/>
      <point x="697" y="1260" type="line"/>
      <point x="585" y="1430" type="line"/>
      <point x="420" y="1260" type="line"/>
    </contour>
  </outline>
</glyph>
<glyph name="otilde" format="2">
  <advance width="1161"/>
  <unicode hex="00F5"/>
  <outline>
    <component base="o" xOffset="165"/>
    <contour>
      <point x="935" y="1260" type="curve" smooth="yes"/>
      <point x="835" y="1260"/>
      <point x="762" y="1356"/>
      <point x="683" y="1356" type="curve" smooth="yes"/>
      <point x="635" y="1356"/>
      <point x="610" y="1315"/>
      <point x="618" y="1270" type="curve"/>
      <point x="550" y="1270" type="line"/>
      <point x="550" y="1275"/>
      <point x="549" y="1281"/>
      <point x="549" y="1286" type="curve" smooth="yes"/>
      <point x="549" y="1369"/>
      <point x="615" y="1436"/>
      <point x="698" y="1436" type="curve" smooth="yes"/>
      <point x="801" y="1436"/>
      <point x="871" y="1340"/>
      <point x="952" y="1340" type="curve" smooth="yes"/>
      <point x="1001" y="1340"/>
      <point x="1026" y="1385"/>
      <point x="1018" y="1430" type="curve"/>
      <point x="1085" y="1430" type="line"/>
      <point x="1085" y="1425"/>
      <point x="1086" y="1420"/>
      <point x="1086" y="1414" type="curve" smooth="yes"/>
      <point x="1086" y="1331"/>
      <point x="1020" y="1260"/>
    </contour>
  </outline>
</glyph>
<glyph name="oslash" format="2">
  <advance width="1084"/>
  <unicode hex="00F8"/>
  <outline>
    <contour>
      <point x="-15" y="0" type="qcurve"/>
      <point x="-62" y="60" type="line"/>
      <point x="-17" y="100"/>
      <point x="70" y="180"/>
      <point x="114" y="220" type="qcurve" smooth="yes"/>
      <point x="132" y="236"/>
      <point x="167" y="267"/>
      <point x="185" y="284" type="qcurve"/>
      <point x="194" y="292"/>
      <point x="211" y="308"/>
      <point x="229" y="324"/>
      <point x="247" y="340"/>
      <point x="256" y="348" type="qcurve" smooth="yes"/>
      <point x="389" y="468"/>
      <point x="652" y="706"/>
      <point x="786" y="826" type="qcurve" smooth="yes"/>
      <point x="804" y="842"/>
      <point x="839" y="873"/>
      <point x="857" y="890" type="qcurve"/>
      <point x="911" y="938"/>
      <point x="1016" y="1032"/>
      <point x="1070" y="1080" type="qcurve"/>
      <point x="1118" y="1022" type="line"/>
      <point x="1055" y="966"/>
      <point x="932" y="856"/>
      <point x="870" y="799" type="qcurve" smooth="yes"/>
      <point x="852" y="783"/>
      <point x="816" y="752"/>
      <point x="799" y="735" type="qcurve"/>
      <point x="674" y="623"/>
      <point x="429" y="400"/>
      <point x="304" y="288" type="qcurve" smooth="yes"/>
      <point x="277" y="264"/>
      <point x="224" y="216"/>
      <point x="197" y="192" type="qcurve"/>
      <point x="180" y="176"/>
      <point x="144" y="144"/>
      <point x="127" y="128" type="qcurve"/>
      <point x="91" y="96"/>
      <point x="20" y="32"/>
    </contour>
    <contour>
      <point x="477" y="-30" type="qcurve" smooth="yes"/>
      <point x="367" y="-30"/>
      <point x="208" y="46"/>
      <point x="105" y="178"/>
      <point x="56" y="356"/>
      <point x="56" y="457" type="qcurve" smooth="yes"/>
      <point x="56" y="578"/>
      <point x="116" y="812"/>
      <point x="243" y="997"/>
      <point x="441" y="1110"/>
      <point x="578" y="1110" type="qcurve" smooth="yes"/>
      <point x="688" y="1110"/>
      <point x="847" y="1035"/>
      <point x="951" y="904"/>
      <point x="1000" y="728"/>
      <point x="1000" y="626" type="qcurve" smooth="yes"/>
      <point x="1000" y="505"/>
      <point x="940" y="269"/>
      <point x="813" y="84"/>
      <point x="615" y="-30"/>
    </contour>
    <contour>
      <point x="485" y="54" type="qcurve" smooth="yes"/>
      <point x="604" y="54"/>
      <point x="769" y="155"/>
      <point x="871" y="317"/>
      <point x="916" y="521"/>
      <point x="916" y="624" type="qcurve" smooth="yes"/>
      <point x="916" y="710"/>
      <point x="879" y="857"/>
      <point x="796" y="965"/>
      <point x="665" y="1026"/>
      <point x="571" y="1026" type="qcurve" smooth="yes"/>
      <point x="453" y="1026"/>
      <point x="289" y="926"/>
      <point x="186" y="766"/>
      <point x="140" y="564"/>
      <point x="140" y="462" type="qcurve" smooth="yes"/>
      <point x="140" y="377"/>
      <point x="178" y="229"/>
      <point x="261" y="118"/>
      <point x="392" y="54"/>
    </contour>
  </outline>
</glyph>
<glyph name="ugrave" format="2">
  <advance width="1134"/>
  <unicode hex="00F9"/>
  <outline>
    <component base="u" xOffset="147"/>
    <contour>
      <point x="719" y="1530" type="line"/>
      <point x="629" y="1530" type="line"/>
      <point x="676" y="1260" type="line"/>
      <point x="739" y="1260" type="line"/>
    </contour>
  </outline>
</glyph>
<glyph name="uacute" format="2">
  <advance width="1134"/>
  <unicode hex="00FA"/>
  <outline>
    <component base="u" xOffset="147"/>
    <contour>
      <point x="774" y="1530" type="line"/>
      <point x="668" y="1260" type="line"/>
      <point x="731" y="1260" type="line"/>
      <point x="864" y="1530" type="line"/>
    </contour>
  </outline>
</glyph>
<glyph name="ucircumflex" format="2">
  <advance width="1135"/>
  <unicode hex="00FB"/>
  <outline>
    <component base="u" xOffset="147"/>
    <contour>
      <point x="458" y="1260" type="line"/>
      <point x="686" y="1500" type="line"/>
      <point x="773" y="1500" type="line"/>
      <point x="925" y="1260" type="line"/>
      <point x="830" y="1260" type="line"/>
      <point x="718" y="1430" type="line"/>
      <point x="553" y="1260" type="line"/>
    </contour>
  </outline>
</glyph>
<glyph name="yacute" format="2">
  <advance width="1086"/>
  <unicode hex="00FD"/>
  <outline>
    <component base="y"/>
    <contour>
      <point x="653" y="1530" type="line"/>
      <point x="548" y="1260" type="line"/>
      <point x="611" y="1260" type="line"/>
      <point x="744" y="1530" type="line"/>
    </contour>
  </outline>
</glyph>
<glyph name="thorn" format="2">
  <advance width="902"/>
  <unicode hex="00FE"/>
  <outline>
    <contour>
      <point x="-28" y="782" type="line"/>
      <point x="76" y="1440" type="line"/>
      <point x="155" y="1440" type="line"/>
      <point x="51" y="782" type="line"/>
    </contour>
    <contour>
      <point x="321" y="-30" type="qcurve" smooth="yes"/>
      <point x="218" y="-30"/>
      <point x="74" y="55"/>
      <point x="-17" y="193"/>
      <point x="-57" y="368"/>
      <point x="-57" y="458" type="qcurve" smooth="yes"/>
      <point x="-57" y="534"/>
      <point x="-33" y="689"/>
      <point x="18" y="834"/>
      <point x="97" y="961"/>
      <point x="207" y="1055"/>
      <point x="349" y="1110"/>
      <point x="437" y="1110" type="qcurve" smooth="yes"/>
      <point x="541" y="1110"/>
      <point x="687" y="1026"/>
      <point x="780" y="890"/>
      <point x="822" y="715"/>
      <point x="822" y="624" type="qcurve" smooth="yes"/>
      <point x="822" y="548"/>
      <point x="796" y="392"/>
      <point x="743" y="247"/>
      <point x="662" y="120"/>
      <point x="551" y="25"/>
      <point x="409" y="-30"/>
    </contour>
    <contour>
      <point x="-228" y="-480" type="line"/>
      <point x="19" y="1080" type="line"/>
      <point x="93" y="1080" type="line"/>
      <point x="-42" y="230" type="line"/>
      <point x="-36" y="230" type="line"/>
      <point x="-149" y="-480" type="line"/>
    </contour>
    <contour>
      <point x="329" y="54" type="qcurve" smooth="yes"/>
      <point x="403" y="54"/>
      <point x="521" y="103"/>
      <point x="612" y="187"/>
      <point x="676" y="299"/>
      <point x="717" y="425"/>
      <point x="736" y="557"/>
      <point x="736" y="619" type="qcurve" smooth="yes"/>
      <point x="736" y="698"/>
      <point x="703" y="845"/>
      <point x="628" y="958"/>
      <point x="505" y="1026"/>
      <point x="415" y="1026" type="qcurve" smooth="yes"/>
      <point x="340" y="1026"/>
      <point x="221" y="978"/>
      <point x="130" y="896"/>
      <point x="65" y="786"/>
      <point x="23" y="662"/>
      <point x="4" y="530"/>
      <point x="4" y="467" type="qcurve" smooth="yes"/>
      <point x="4" y="388"/>
      <point x="38" y="239"/>
      <point x="114" y="124"/>
      <point x="239" y="54"/>
    </contour>
  </outline>
</glyph>
<glyph name="abreve" format="2">
  <advance width="1013"/>
  <unicode hex="0103"/>
  <outline>
    <component base="a"/>
    <contour>
      <point x="536" y="1212" type="curve" smooth="yes"/>
      <point x="429" y="1212"/>
      <point x="354" y="1294"/>
      <point x="354" y="1400" type="curve" smooth="yes"/>
      <point x="354" y="1413"/>
      <point x="355" y="1427"/>
      <point x="357" y="1440" type="curve"/>
      <point x="430" y="1440" type="line"/>
      <point x="429" y="1431"/>
      <point x="428" y="1423"/>
      <point x="428" y="1414" type="curve" smooth="yes"/>
      <point x="428" y="1345"/>
      <point x="480" y="1290"/>
      <point x="549" y="1290" type="curve" smooth="yes"/>
      <point x="632" y="1290"/>
      <point x="702" y="1361"/>
      <point x="715" y="1440" type="curve"/>
      <point x="788" y="1440" type="line"/>
      <point x="769" y="1320"/>
      <point x="661" y="1212"/>
    </contour>
  </outline>
</glyph>
<glyph name="Aogonek" format="2">
  <advance width="1185"/>
  <unicode hex="0104"/>
  <outline>
    <contour>
      <point x="835" y="-484" type="qcurve" smooth="yes"/>
      <point x="804" y="-484"/>
      <point x="750" y="-460"/>
      <point x="711" y="-419"/>
      <point x="688" y="-364"/>
      <point x="688" y="-333" type="qcurve" smooth="yes"/>
      <point x="688" y="-276"/>
      <point x="753" y="-160"/>
      <point x="849" y="-54"/>
      <point x="957" y="36"/>
      <point x="1000" y="66" type="qcurve"/>
      <point x="1050" y="0" type="line"/>
      <point x="1014" y="-22"/>
      <point x="919" y="-94"/>
      <point x="834" y="-182"/>
      <point x="775" y="-279"/>
      <point x="775" y="-325" type="qcurve" smooth="yes"/>
      <point x="775" y="-356"/>
      <point x="814" y="-404"/>
      <point x="847" y="-404" type="qcurve" smooth="yes"/>
      <point x="877" y="-404"/>
      <point x="938" y="-366"/>
      <point x="958" y="-346" type="qcurve"/>
      <point x="999" y="-402" type="line"/>
      <point x="967" y="-437"/>
      <point x="883" y="-484"/>
    </contour>
    <contour>
      <point x="-65" y="0" type="line"/>
      <point x="677" y="1440" type="line"/>
      <point x="765" y="1440" type="line"/>
      <point x="1050" y="0" type="line"/>
      <point x="962" y="0" type="line"/>
      <point x="684" y="1402" type="line"/>
      <point x="743" y="1402" type="line"/>
      <point x="23" y="0" type="line"/>
    </contour>
    <contour>
      <point x="190" y="374" type="line"/>
      <point x="203" y="454" type="line"/>
      <point x="924" y="454" type="line"/>
      <point x="912" y="374" type="line"/>
    </contour>
  </outline>
</glyph>
<glyph name="aogonek" format="2">
  <advance width="1013"/>
  <unicode hex="0105"/>
  <outline>
    <component base="a"/>
    <contour>
      <point x="600" y="-484" type="curve" smooth="yes"/>
      <point x="518" y="-484"/>
      <point x="460" y="-413"/>
      <point x="460" y="-335" type="curve" smooth="yes"/>
      <point x="460" y="-185"/>
      <point x="651" y="-16"/>
      <point x="763" y="66" type="curve"/>
      <point x="811" y="0" type="line"/>
      <point x="715" y="-60"/>
      <point x="543" y="-203"/>
      <point x="543" y="-325" type="curve" smooth="yes"/>
      <point x="543" y="-365"/>
      <point x="570" y="-404"/>
      <point x="613" y="-404" type="curve" smooth="yes"/>
      <point x="653" y="-404"/>
      <point x="694" y="-373"/>
      <point x="721" y="-346" type="curve"/>
      <point x="759" y="-402" type="line"/>
      <point x="718" y="-447"/>
      <point x="663" y="-484"/>
    </contour>
  </outline>
</glyph>
<glyph name="Cacute" format="2">
  <advance width="1357"/>
  <unicode hex="0106"/>
  <outline>
    <component base="C"/>
    <contour>
      <point x="855" y="1890" type="line"/>
      <point x="748" y="1620" type="line"/>
      <point x="812" y="1620" type="line"/>
      <point x="949" y="1890" type="line"/>
    </contour>
  </outline>
</glyph>
<glyph name="cacute" format="2">
  <advance width="1012"/>
  <unicode hex="0107"/>
  <outline>
    <component base="c"/>
    <contour>
      <point x="664" y="1530" type="line"/>
      <point x="558" y="1260" type="line"/>
      <point x="621" y="1260" type="line"/>
      <point x="754" y="1530" type="line"/>
    </contour>
  </outline>
</glyph>
<glyph name="Ccircumflex" format="2">
  <advance width="1357"/>
  <unicode hex="0108"/>
  <outline>
    <component base="C"/>
    <contour>
      <point x="522" y="1620" type="line"/>
      <point x="756" y="1860" type="line"/>
      <point x="847" y="1860" type="line"/>
      <point x="1005" y="1620" type="line"/>
      <point x="907" y="1620" type="line"/>
      <point x="790" y="1790" type="line"/>
      <point x="620" y="1620" type="line"/>
    </contour>
  </outline>
</glyph>
<glyph name="ccircumflex" format="2">
  <advance width="1012"/>
  <unicode hex="0109"/>
  <outline>
    <component base="c"/>
    <contour>
      <point x="325" y="1260" type="line"/>
      <point x="553" y="1500" type="line"/>
      <point x="640" y="1500" type="line"/>
      <point x="792" y="1260" type="line"/>
      <point x="697" y="1260" type="line"/>
      <point x="585" y="1430" type="line"/>
      <point x="420" y="1260" type="line"/>
    </contour>
  </outline>
</glyph>
<glyph name="Cdotaccent" format="2">
  <advance width="1357"/>
  <unicode hex="010A"/>
  <outline>
    <component base="C"/>
    <contour>
      <point x="790" y="1667" type="curve" smooth="yes"/>
      <point x="755" y="1667"/>
      <point x="728" y="1692"/>
      <point x="728" y="1727" type="curve" smooth="yes"/>
      <point x="728" y="1774"/>
      <point x="766" y="1814"/>
      <point x="813" y="1814" type="curve" smooth="yes"/>
      <point x="848" y="1814"/>
      <point x="875" y="1789"/>
      <point x="875" y="1753" type="curve" smooth="yes"/>
      <point x="875" y="1707"/>
      <point x="836" y="1667"/>
    </contour>
  </outline>
</glyph>
<glyph name="cdotaccent" format="2">
  <advance width="1012"/>
  <unicode hex="010B"/>
  <outline>
    <component base="c"/>
    <contour>
      <point x="575" y="1307" type="curve" smooth="yes"/>
      <point x="541" y="1307"/>
      <point x="516" y="1332"/>
      <point x="516" y="1366" type="curve" smooth="yes"/>
      <point x="516" y="1412"/>
      <point x="551" y="1454"/>
      <point x="598" y="1454" type="curve" smooth="yes"/>
      <point x="633" y="1454"/>
      <point x="657" y="1428"/>
      <point x="657" y="1394" type="curve" smooth="yes"/>
      <point x="657" y="1349"/>
      <point x="621" y="1307"/>
    </contour>
  </outline>
</glyph>
<glyph name="Ccaron" format="2">
  <advance width="1357"/>
  <unicode hex="010C"/>
  <outline>
    <component base="C"/>
    <contour>
      <point x="620" y="1860" type="line"/>
      <point x="718" y="1860" type="line"/>
      <point x="834" y="1690" type="line"/>
      <point x="1004" y="1860" type="line"/>
      <point x="1102" y="1860" type="line"/>
      <point x="868" y="1620" type="line"/>
      <point x="778" y="1620" type="line"/>
    </contour>
  </outline>
</glyph>
<glyph name="ccaron" format="2">
  <advance width="1012"/>
  <unicode hex="010D"/>
  <outline>
    <component base="c"/>
    <contour>
      <point x="363" y="1500" type="line"/>
      <point x="458" y="1500" type="line"/>
      <point x="569" y="1330" type="line"/>
      <point x="735" y="1500" type="line"/>
      <point x="830" y="1500" type="line"/>
      <point x="602" y="1260" type="line"/>
      <point x="515" y="1260" type="line"/>
    </contour>
  </outline>
</glyph>
<glyph name="Dcaron" format="2">
  <advance width="1256"/>
  <unicode hex="010E"/>
  <outline>
    <component base="D" xOffset="81"/>
    <contour>
      <point x="497" y="1860" type="line"/>
      <point x="595" y="1860" type="line"/>
      <point x="711" y="1690" type="line"/>
      <point x="881" y="1860" type="line"/>
      <point x="979" y="1860" type="line"/>
      <point x="745" y="1620" type="line"/>
      <point x="655" y="1620" type="line"/>
    </contour>
  </outline>
</glyph>
<glyph name="dcroat" format="2">
  <advance width="1172"/>
  <unicode hex="0111"/>
  <outline>
    <component base="d" xOffset="165"/>
    <contour>
      <point x="815" y="1200" type="line"/>
      <point x="828" y="1284" type="line"/>
      <point x="1283" y="1284" type="line"/>
      <point x="1270" y="1200" type="line"/>
    </contour>
  </outline>
</glyph>
<glyph name="Emacron" format="2">
  <advance width="1073"/>
  <unicode hex="0112"/>
  <outline>
    <contour>
      <point x="485" y="1680" type="line"/>
      <point x="499" y="1764" type="line"/>
      <point x="969" y="1764" type="line"/>
      <point x="956" y="1680" type="line"/>
    </contour>
    <contour>
      <point x="23" y="0" type="line"/>
      <point x="251" y="1440" type="line"/>
      <point x="1114" y="1440" type="line"/>
      <point x="1100" y="1356" type="line"/>
      <point x="320" y="1356" type="line"/>
      <point x="226" y="762" type="line"/>
      <point x="889" y="762" type="line"/>
      <point x="875" y="678" type="line"/>
      <point x="213" y="678" type="line"/>
      <point x="119" y="84" type="line"/>
      <point x="899" y="84" type="line"/>
      <point x="886" y="0" type="line"/>
    </contour>
  </outline>
</glyph>
<glyph name="emacron" format="2">
  <advance width="1076"/>
  <unicode hex="0113"/>
  <outline>
    <component base="e"/>
    <contour>
      <point x="359" y="1320" type="line"/>
      <point x="373" y="1404" type="line"/>
      <point x="829" y="1404" type="line"/>
      <point x="815" y="1320" type="line"/>
    </contour>
  </outline>
</glyph>
<glyph name="Edotaccent" format="2">
  <advance width="1073"/>
  <unicode hex="0116"/>
  <outline>
    <contour>
      <point x="728" y="1667" type="curve" smooth="yes"/>
      <point x="693" y="1667"/>
      <point x="666" y="1692"/>
      <point x="666" y="1727" type="curve" smooth="yes"/>
      <point x="666" y="1774"/>
      <point x="705" y="1814"/>
      <point x="752" y="1814" type="curve" smooth="yes"/>
      <point x="787" y="1814"/>
      <point x="813" y="1789"/>
      <point x="813" y="1754" type="curve" smooth="yes"/>
      <point x="813" y="1707"/>
      <point x="775" y="1667"/>
    </contour>
    <contour>
      <point x="23" y="0" type="line"/>
      <point x="251" y="1440" type="line"/>
      <point x="1114" y="1440" type="line"/>
      <point x="1100" y="1356" type="line"/>
      <point x="320" y="1356" type="line"/>
      <point x="226" y="762" type="line"/>
      <point x="889" y="762" type="line"/>
      <point x="875" y="678" type="line"/>
      <point x="213" y="678" type="line"/>
      <point x="119" y="84" type="line"/>
      <point x="899" y="84" type="line"/>
      <point x="886" y="0" type="line"/>
    </contour>
  </outline>
</glyph>
<glyph name="edotaccent" format="2">
  <advance width="1076"/>
  <unicode hex="0117"/>
  <outline>
    <component base="e"/>
    <contour>
      <point x="566" y="1307" type="curve" smooth="yes"/>
      <point x="532" y="1307"/>
      <point x="507" y="1332"/>
      <point x="507" y="1366" type="curve" smooth="yes"/>
      <point x="507" y="1412"/>
      <point x="542" y="1454"/>
      <point x="589" y="1454" type="curve" smooth="yes"/>
      <point x="624" y="1454"/>
      <point x="648" y="1428"/>
      <point x="648" y="1394" type="curve" smooth="yes"/>
      <point x="648" y="1349"/>
      <point x="612" y="1307"/>
    </contour>
  </outline>
</glyph>
<glyph name="Eogonek" format="2">
  <advance width="1073"/>
  <unicode hex="0118"/>
  <outline>
    <contour>
      <point x="670" y="-484" type="curve" smooth="yes"/>
      <point x="587" y="-484"/>
      <point x="523" y="-415"/>
      <point x="523" y="-333" type="curve" smooth="yes"/>
      <point x="523" y="-182"/>
      <point x="721" y="-15"/>
      <point x="835" y="66" type="curve"/>
      <point x="886" y="0" type="line"/>
      <point x="789" y="-59"/>
      <point x="610" y="-201"/>
      <point x="610" y="-325" type="curve" smooth="yes"/>
      <point x="610" y="-366"/>
      <point x="638" y="-404"/>
      <point x="682" y="-404" type="curve" smooth="yes"/>
      <point x="722" y="-404"/>
      <point x="766" y="-373"/>
      <point x="794" y="-346" type="curve"/>
      <point x="834" y="-402" type="line"/>
      <point x="792" y="-448"/>
      <point x="734" y="-484"/>
    </contour>
    <contour>
      <point x="23" y="0" type="line"/>
      <point x="251" y="1440" type="line"/>
      <point x="1114" y="1440" type="line"/>
      <point x="1100" y="1356" type="line"/>
      <point x="320" y="1356" type="line"/>
      <point x="226" y="762" type="line"/>
      <point x="889" y="762" type="line"/>
      <point x="875" y="678" type="line"/>
      <point x="213" y="678" type="line"/>
      <point x="119" y="84" type="line"/>
      <point x="899" y="84" type="line"/>
      <point x="886" y="0" type="line"/>
    </contour>
  </outline>
</glyph>
<glyph name="eogonek" format="2">
  <advance width="1076"/>
  <unicode hex="0119"/>
  <outline>
    <component base="e"/>
    <contour>
      <point x="580" y="-479" type="curve" smooth="yes"/>
      <point x="501" y="-479"/>
      <point x="444" y="-421"/>
      <point x="444" y="-342" type="curve" smooth="yes"/>
      <point x="444" y="-323"/>
      <point x="447" y="-304"/>
      <point x="451" y="-286" type="curve"/>
      <point x="463" y="-239"/>
      <point x="488" y="-193"/>
      <point x="520" y="-149" type="curve" smooth="yes"/>
      <point x="591" y="-52"/>
      <point x="694" y="37"/>
      <point x="758" y="108" type="curve" smooth="yes"/>
      <point x="794" y="147"/>
      <point x="826" y="190"/>
      <point x="852" y="236" type="curve"/>
      <point x="932" y="242" type="line"/>
      <point x="888" y="168"/>
      <point x="830" y="100"/>
      <point x="774" y="36" type="curve" smooth="yes"/>
      <point x="702" y="-46"/>
      <point x="524" y="-220"/>
      <point x="524" y="-330" type="curve" smooth="yes"/>
      <point x="524" y="-357"/>
      <point x="543" y="-382"/>
      <point x="567" y="-392" type="curve"/>
      <point x="575" y="-396"/>
      <point x="583" y="-398"/>
      <point x="592" y="-398" type="curve" smooth="yes"/>
      <point x="627" y="-398"/>
      <point x="679" y="-366"/>
      <point x="705" y="-344" type="curve"/>
      <point x="745" y="-402" type="line"/>
      <point x="701" y="-442"/>
      <point x="642" y="-479"/>
    </contour>
  </outline>
</glyph>
<glyph name="ecaron" format="2">
  <advance width="1076"/>
  <unicode hex="011B"/>
  <outline>
    <component base="e"/>
    <contour>
      <point x="363" y="1500" type="line"/>
      <point x="458" y="1500" type="line"/>
      <point x="570" y="1330" type="line"/>
      <point x="736" y="1500" type="line"/>
      <point x="831" y="1500" type="line"/>
      <point x="603" y="1260" type="line"/>
      <point x="515" y="1260" type="line"/>
    </contour>
  </outline>
</glyph>
<glyph name="Gcircumflex" format="2">
  <advance width="1487"/>
  <unicode hex="011C"/>
  <outline>
    <component base="G" xOffset="193"/>
    <contour>
      <point x="702" y="1620" type="line"/>
      <point x="936" y="1860" type="line"/>
      <point x="1026" y="1860" type="line"/>
      <point x="1184" y="1620" type="line"/>
      <point x="1086" y="1620" type="line"/>
      <point x="970" y="1790" type="line"/>
      <point x="800" y="1620" type="line"/>
    </contour>
  </outline>
</glyph>
<glyph name="gcircumflex" format="2">
  <advance width="1077"/>
  <unicode hex="011D"/>
  <outline>
    <component base="g"/>
    <contour>
      <point x="298" y="1260" type="line"/>
      <point x="526" y="1500" type="line"/>
      <point x="613" y="1500" type="line"/>
      <point x="765" y="1260" type="line"/>
      <point x="670" y="1260" type="line"/>
      <point x="559" y="1430" type="line"/>
      <point x="393" y="1260" type="line"/>
    </contour>
  </outline>
</glyph>
<glyph name="Gbreve" format="2">
  <advance width="1487"/>
  <unicode hex="011E"/>
  <outline>
    <component base="G" xOffset="193"/>
    <contour>
      <point x="959" y="1572" type="curve" smooth="yes"/>
      <point x="849" y="1572"/>
      <point x="768" y="1654"/>
      <point x="768" y="1764" type="curve" smooth="yes"/>
      <point x="768" y="1776"/>
      <point x="769" y="1788"/>
      <point x="771" y="1800" type="curve"/>
      <point x="848" y="1800" type="line"/>
      <point x="847" y="1792"/>
      <point x="846" y="1783"/>
      <point x="846" y="1775" type="curve" smooth="yes"/>
      <point x="846" y="1704"/>
      <point x="900" y="1650"/>
      <point x="971" y="1650" type="curve" smooth="yes"/>
      <point x="1055" y="1650"/>
      <point x="1130" y="1718"/>
      <point x="1142" y="1800" type="curve"/>
      <point x="1218" y="1800" type="line"/>
      <point x="1197" y="1677"/>
      <point x="1086" y="1572"/>
    </contour>
  </outline>
</glyph>
<glyph name="gbreve" format="2">
  <advance width="1077"/>
  <unicode hex="011F"/>
  <outline>
    <component base="g"/>
    <contour>
      <point x="578" y="1212" type="curve" smooth="yes"/>
      <point x="471" y="1212"/>
      <point x="396" y="1294"/>
      <point x="396" y="1400" type="curve" smooth="yes"/>
      <point x="396" y="1413"/>
      <point x="397" y="1427"/>
      <point x="399" y="1440" type="curve"/>
      <point x="472" y="1440" type="line"/>
      <point x="471" y="1431"/>
      <point x="470" y="1423"/>
      <point x="470" y="1414" type="curve" smooth="yes"/>
      <point x="470" y="1345"/>
      <point x="522" y="1290"/>
      <point x="591" y="1290" type="curve" smooth="yes"/>
      <point x="674" y="1290"/>
      <point x="744" y="1361"/>
      <point x="757" y="1440" type="curve"/>
      <point x="830" y="1440" type="line"/>
      <point x="811" y="1320"/>
      <point x="703" y="1212"/>
    </contour>
  </outline>
</glyph>
<glyph name="Gdotaccent" format="2">
  <advance width="1487"/>
  <unicode hex="0120"/>
  <outline>
    <component base="G" xOffset="193"/>
    <contour>
      <point x="989" y="1667" type="curve" smooth="yes"/>
      <point x="955" y="1667"/>
      <point x="927" y="1690"/>
      <point x="927" y="1725" type="curve" smooth="yes"/>
      <point x="927" y="1773"/>
      <point x="963" y="1814"/>
      <point x="1012" y="1814" type="curve" smooth="yes"/>
      <point x="1048" y="1814"/>
      <point x="1074" y="1789"/>
      <point x="1074" y="1753" type="curve" smooth="yes"/>
      <point x="1074" y="1707"/>
      <point x="1035" y="1667"/>
    </contour>
  </outline>
</glyph>
<glyph name="gdotaccent" format="2">
  <advance width="1077"/>
  <unicode hex="0121"/>
  <outline>
    <component base="g"/>
    <contour>
      <point x="595" y="1307" type="curve" smooth="yes"/>
      <point x="559" y="1307"/>
      <point x="536" y="1334"/>
      <point x="536" y="1368" type="curve" smooth="yes"/>
      <point x="536" y="1413"/>
      <point x="573" y="1454"/>
      <point x="619" y="1454" type="curve" smooth="yes"/>
      <point x="654" y="1454"/>
      <point x="678" y="1428"/>
      <point x="678" y="1394" type="curve" smooth="yes"/>
      <point x="678" y="1349"/>
      <point x="641" y="1307"/>
    </contour>
  </outline>
</glyph>
<glyph name="Gcommaaccent" format="2">
  <advance width="1487"/>
  <unicode hex="0122"/>
  <outline>
    <component base="G" xOffset="193"/>
    <contour>
      <point x="655" y="-240" type="line"/>
      <point x="548" y="-510" type="line"/>
      <point x="612" y="-510" type="line"/>
      <point x="749" y="-240" type="line"/>
    </contour>
  </outline>
</glyph>
<glyph name="gcommaaccent" format="2">
  <advance width="1077"/>
  <unicode hex="0123"/>
  <outline>
    <component base="g"/>
    <contour>
      <point x="590" y="1308" type="line"/>
      <point x="695" y="1578" type="line"/>
      <point x="632" y="1578" type="line"/>
      <point x="499" y="1308" type="line"/>
    </contour>
  </outline>
</glyph>
